<svg width="128" height="53" viewBox="0 0 128 53" fill="none" xmlns="http://www.w3.org/2000/svg">
<g filter="url(#filter0_d_286_34100)">
<path d="M103.989 46.5H2.99314L19.4541 24.2978L19.6798 23.9933L19.4476 23.6937L3.02017 2.5H103.989L121.068 24.5L103.989 46.5Z" stroke="#B6B6B6" shape-rendering="crispEdges"/>
</g>
<path d="M32.9668 17.6328L29.2012 28H27.6621L31.998 16.625H32.9902L32.9668 17.6328ZM36.123 28L32.3496 17.6328L32.3262 16.625H33.3184L37.6699 28H36.123ZM35.9277 23.7891V25.0234H29.5371V23.7891H35.9277ZM40.5799 21.1719V31.25H39.1268V19.5469H40.4549L40.5799 21.1719ZM46.2752 23.7031V23.8672C46.2752 24.4818 46.2023 25.0521 46.0565 25.5781C45.9107 26.099 45.6971 26.5521 45.4159 26.9375C45.1398 27.3229 44.7987 27.6224 44.3924 27.8359C43.9862 28.0495 43.52 28.1562 42.994 28.1562C42.4575 28.1562 41.9836 28.0677 41.5721 27.8906C41.1607 27.7135 40.8117 27.4557 40.5252 27.1172C40.2388 26.7786 40.0096 26.3724 39.8377 25.8984C39.6711 25.4245 39.5565 24.8906 39.494 24.2969V23.4219C39.5565 22.7969 39.6737 22.237 39.8455 21.7422C40.0174 21.2474 40.244 20.8255 40.5252 20.4766C40.8117 20.1224 41.158 19.8542 41.5643 19.6719C41.9705 19.4844 42.4393 19.3906 42.9705 19.3906C43.5018 19.3906 43.9732 19.4948 44.3846 19.7031C44.7961 19.9062 45.1424 20.1979 45.4237 20.5781C45.7049 20.9583 45.9159 21.4141 46.0565 21.9453C46.2023 22.4714 46.2752 23.0573 46.2752 23.7031ZM44.8221 23.8672V23.7031C44.8221 23.2812 44.7778 22.8854 44.6893 22.5156C44.6008 22.1406 44.4627 21.8125 44.2752 21.5312C44.0929 21.2448 43.8586 21.0208 43.5721 20.8594C43.2857 20.6927 42.9445 20.6094 42.5487 20.6094C42.1841 20.6094 41.8664 20.6719 41.5955 20.7969C41.3299 20.9219 41.1034 21.0911 40.9159 21.3047C40.7284 21.513 40.5747 21.7526 40.4549 22.0234C40.3403 22.2891 40.2544 22.5651 40.1971 22.8516V24.875C40.3013 25.2396 40.4471 25.5833 40.6346 25.9062C40.8221 26.224 41.0721 26.4818 41.3846 26.6797C41.6971 26.8724 42.0903 26.9688 42.5643 26.9688C42.9549 26.9688 43.2909 26.888 43.5721 26.7266C43.8586 26.5599 44.0929 26.3333 44.2752 26.0469C44.4627 25.7604 44.6008 25.4323 44.6893 25.0625C44.7778 24.6875 44.8221 24.2891 44.8221 23.8672ZM49.7243 21.1719V31.25H48.2712V19.5469H49.5993L49.7243 21.1719ZM55.4196 23.7031V23.8672C55.4196 24.4818 55.3467 25.0521 55.2009 25.5781C55.055 26.099 54.8415 26.5521 54.5602 26.9375C54.2842 27.3229 53.943 27.6224 53.5368 27.8359C53.1305 28.0495 52.6644 28.1562 52.1384 28.1562C51.6019 28.1562 51.1279 28.0677 50.7165 27.8906C50.305 27.7135 49.9561 27.4557 49.6696 27.1172C49.3832 26.7786 49.154 26.3724 48.9821 25.8984C48.8154 25.4245 48.7009 24.8906 48.6384 24.2969V23.4219C48.7009 22.7969 48.818 22.237 48.9899 21.7422C49.1618 21.2474 49.3884 20.8255 49.6696 20.4766C49.9561 20.1224 50.3024 19.8542 50.7087 19.6719C51.1149 19.4844 51.5837 19.3906 52.1149 19.3906C52.6462 19.3906 53.1175 19.4948 53.529 19.7031C53.9404 19.9062 54.2868 20.1979 54.568 20.5781C54.8493 20.9583 55.0602 21.4141 55.2009 21.9453C55.3467 22.4714 55.4196 23.0573 55.4196 23.7031ZM53.9665 23.8672V23.7031C53.9665 23.2812 53.9222 22.8854 53.8337 22.5156C53.7451 22.1406 53.6071 21.8125 53.4196 21.5312C53.2373 21.2448 53.0029 21.0208 52.7165 20.8594C52.43 20.6927 52.0889 20.6094 51.693 20.6094C51.3285 20.6094 51.0108 20.6719 50.7399 20.7969C50.4743 20.9219 50.2477 21.0911 50.0602 21.3047C49.8727 21.513 49.7191 21.7526 49.5993 22.0234C49.4847 22.2891 49.3988 22.5651 49.3415 22.8516V24.875C49.4457 25.2396 49.5915 25.5833 49.779 25.9062C49.9665 26.224 50.2165 26.4818 50.529 26.6797C50.8415 26.8724 51.2347 26.9688 51.7087 26.9688C52.0993 26.9688 52.4352 26.888 52.7165 26.7266C53.0029 26.5599 53.2373 26.3333 53.4196 26.0469C53.6071 25.7604 53.7451 25.4323 53.8337 25.0625C53.9222 24.6875 53.9665 24.2891 53.9665 23.8672ZM58.8687 20.875V28H57.4234V19.5469H58.8296L58.8687 20.875ZM61.5093 19.5L61.5015 20.8438C61.3817 20.8177 61.2671 20.8021 61.1577 20.7969C61.0536 20.7865 60.9338 20.7812 60.7984 20.7812C60.465 20.7812 60.1708 20.8333 59.9155 20.9375C59.6603 21.0417 59.4442 21.1875 59.2671 21.375C59.09 21.5625 58.9494 21.7865 58.8452 22.0469C58.7463 22.3021 58.6812 22.5833 58.6499 22.8906L58.2437 23.125C58.2437 22.6146 58.2932 22.1354 58.3921 21.6875C58.4963 21.2396 58.6551 20.8438 58.8687 20.5C59.0822 20.151 59.353 19.8802 59.6812 19.6875C60.0145 19.4896 60.4103 19.3906 60.8687 19.3906C60.9728 19.3906 61.0926 19.4036 61.228 19.4297C61.3635 19.4505 61.4572 19.474 61.5093 19.5ZM62.4662 23.8672V23.6875C62.4662 23.0781 62.5547 22.513 62.7318 21.9922C62.9089 21.4661 63.1641 21.0104 63.4974 20.625C63.8308 20.2344 64.2344 19.9323 64.7084 19.7188C65.1823 19.5 65.7136 19.3906 66.3021 19.3906C66.8959 19.3906 67.4297 19.5 67.9037 19.7188C68.3828 19.9323 68.7891 20.2344 69.1224 20.625C69.461 21.0104 69.7188 21.4661 69.8959 21.9922C70.0729 22.513 70.1615 23.0781 70.1615 23.6875V23.8672C70.1615 24.4766 70.0729 25.0417 69.8959 25.5625C69.7188 26.0833 69.461 26.5391 69.1224 26.9297C68.7891 27.3151 68.3854 27.6172 67.9115 27.8359C67.4427 28.0495 66.9115 28.1562 66.3177 28.1562C65.724 28.1562 65.1901 28.0495 64.7162 27.8359C64.2422 27.6172 63.836 27.3151 63.4974 26.9297C63.1641 26.5391 62.9089 26.0833 62.7318 25.5625C62.5547 25.0417 62.4662 24.4766 62.4662 23.8672ZM63.9115 23.6875V23.8672C63.9115 24.2891 63.961 24.6875 64.0599 25.0625C64.1589 25.4323 64.3073 25.7604 64.5052 26.0469C64.7084 26.3333 64.961 26.5599 65.263 26.7266C65.5651 26.888 65.9167 26.9688 66.3177 26.9688C66.7136 26.9688 67.0599 26.888 67.3568 26.7266C67.6589 26.5599 67.9089 26.3333 68.1068 26.0469C68.3047 25.7604 68.4532 25.4323 68.5521 25.0625C68.6563 24.6875 68.7084 24.2891 68.7084 23.8672V23.6875C68.7084 23.2708 68.6563 22.8776 68.5521 22.5078C68.4532 22.1328 68.3021 21.8021 68.099 21.5156C67.9011 21.224 67.6511 20.9948 67.349 20.8281C67.0521 20.6615 66.7032 20.5781 66.3021 20.5781C65.9063 20.5781 65.5573 20.6615 65.2552 20.8281C64.9584 20.9948 64.7084 21.224 64.5052 21.5156C64.3073 21.8021 64.1589 22.1328 64.0599 22.5078C63.961 22.8776 63.9115 23.2708 63.9115 23.6875ZM74.5793 26.6953L76.8918 19.5469H78.3684L75.3293 28H74.3605L74.5793 26.6953ZM72.6496 19.5469L75.0324 26.7344L75.1965 28H74.2277L71.1652 19.5469H72.6496ZM83.3174 28.1562C82.7289 28.1562 82.195 28.0573 81.7159 27.8594C81.2419 27.6562 80.833 27.3724 80.4893 27.0078C80.1508 26.6432 79.8903 26.2109 79.708 25.7109C79.5258 25.2109 79.4346 24.6641 79.4346 24.0703V23.7422C79.4346 23.0547 79.5362 22.4427 79.7393 21.9062C79.9424 21.3646 80.2185 20.9062 80.5674 20.5312C80.9164 20.1562 81.3122 19.8724 81.7549 19.6797C82.1976 19.487 82.656 19.3906 83.1299 19.3906C83.7341 19.3906 84.2549 19.4948 84.6924 19.7031C85.1351 19.9115 85.4971 20.2031 85.7784 20.5781C86.0596 20.9479 86.2679 21.3854 86.4034 21.8906C86.5388 22.3906 86.6065 22.9375 86.6065 23.5312V24.1797H80.294V23H85.1612V22.8906C85.1403 22.5156 85.0622 22.151 84.9268 21.7969C84.7966 21.4427 84.5883 21.151 84.3018 20.9219C84.0153 20.6927 83.6247 20.5781 83.1299 20.5781C82.8018 20.5781 82.4997 20.6484 82.2237 20.7891C81.9476 20.9245 81.7107 21.1276 81.5127 21.3984C81.3148 21.6693 81.1612 22 81.0518 22.3906C80.9424 22.7812 80.8877 23.2318 80.8877 23.7422V24.0703C80.8877 24.4714 80.9424 24.849 81.0518 25.2031C81.1664 25.5521 81.3304 25.8594 81.544 26.125C81.7627 26.3906 82.0258 26.599 82.333 26.75C82.6455 26.901 82.9997 26.9766 83.3955 26.9766C83.906 26.9766 84.3383 26.8724 84.6924 26.6641C85.0466 26.4557 85.3565 26.1771 85.6221 25.8281L86.4971 26.5234C86.3148 26.7995 86.083 27.0625 85.8018 27.3125C85.5205 27.5625 85.1742 27.7656 84.7627 27.9219C84.3565 28.0781 83.8747 28.1562 83.3174 28.1562ZM93.7821 26.3594V16H95.2352V28H93.9071L93.7821 26.3594ZM88.0946 23.8672V23.7031C88.0946 23.0573 88.1727 22.4714 88.329 21.9453C88.4904 21.4141 88.717 20.9583 89.0087 20.5781C89.3055 20.1979 89.6571 19.9062 90.0634 19.7031C90.4748 19.4948 90.9331 19.3906 91.4384 19.3906C91.9696 19.3906 92.4331 19.4844 92.829 19.6719C93.23 19.8542 93.5686 20.1224 93.8446 20.4766C94.1259 20.8255 94.3472 21.2474 94.5087 21.7422C94.6701 22.237 94.7821 22.7969 94.8446 23.4219V24.1406C94.7873 24.7604 94.6753 25.3177 94.5087 25.8125C94.3472 26.3073 94.1259 26.7292 93.8446 27.0781C93.5686 27.4271 93.23 27.6953 92.829 27.8828C92.4279 28.0651 91.9592 28.1562 91.4227 28.1562C90.9279 28.1562 90.4748 28.0495 90.0634 27.8359C89.6571 27.6224 89.3055 27.3229 89.0087 26.9375C88.717 26.5521 88.4904 26.099 88.329 25.5781C88.1727 25.0521 88.0946 24.4818 88.0946 23.8672ZM89.5477 23.7031V23.8672C89.5477 24.2891 89.5894 24.6849 89.6727 25.0547C89.7613 25.4245 89.8967 25.75 90.079 26.0312C90.2613 26.3125 90.493 26.5339 90.7743 26.6953C91.0555 26.8516 91.3915 26.9297 91.7821 26.9297C92.2613 26.9297 92.6545 26.8281 92.9618 26.625C93.2743 26.4219 93.5243 26.1536 93.7118 25.8203C93.8993 25.487 94.0451 25.125 94.1493 24.7344V22.8516C94.0868 22.5651 93.9956 22.2891 93.8759 22.0234C93.7613 21.7526 93.6102 21.513 93.4227 21.3047C93.2404 21.0911 93.0139 20.9219 92.743 20.7969C92.4774 20.6719 92.1623 20.6094 91.7977 20.6094C91.4019 20.6094 91.0608 20.6927 90.7743 20.8594C90.493 21.0208 90.2613 21.2448 90.079 21.5312C89.8967 21.8125 89.7613 22.1406 89.6727 22.5156C89.5894 22.8854 89.5477 23.2812 89.5477 23.7031Z" fill="#B6B6B6"/>
<defs>
<filter id="filter0_d_286_34100" x="0" y="0" width="127.701" height="53" filterUnits="userSpaceOnUse" color-interpolation-filters="sRGB">
<feFlood flood-opacity="0" result="BackgroundImageFix"/>
<feColorMatrix in="SourceAlpha" type="matrix" values="0 0 0 0 0 0 0 0 0 0 0 0 0 0 0 0 0 0 127 0" result="hardAlpha"/>
<feOffset dx="2" dy="2"/>
<feGaussianBlur stdDeviation="2"/>
<feComposite in2="hardAlpha" operator="out"/>
<feColorMatrix type="matrix" values="0 0 0 0 0 0 0 0 0 0 0 0 0 0 0 0 0 0 0.25 0"/>
<feBlend mode="normal" in2="BackgroundImageFix" result="effect1_dropShadow_286_34100"/>
<feBlend mode="normal" in="SourceGraphic" in2="effect1_dropShadow_286_34100" result="shape"/>
</filter>
</defs>
</svg>
