<svg width="128" height="53" viewBox="0 0 128 53" fill="none" xmlns="http://www.w3.org/2000/svg">
<g filter="url(#filter0_d_286_34096)">
<path d="M2.09863 2H104.333L121.8 24.5L104.333 47H2.09863L19.151 24L2.09863 2Z" fill="#04AA9C"/>
</g>
<path d="M33.5645 17.6328L29.7988 28H28.2598L32.5957 16.625H33.5879L33.5645 17.6328ZM36.7207 28L32.9473 17.6328L32.9238 16.625H33.916L38.2676 28H36.7207ZM36.5254 23.7891V25.0234H30.1348V23.7891H36.5254ZM41.1776 21.1719V31.25H39.7245V19.5469H41.0526L41.1776 21.1719ZM46.8729 23.7031V23.8672C46.8729 24.4818 46.8 25.0521 46.6541 25.5781C46.5083 26.099 46.2948 26.5521 46.0135 26.9375C45.7375 27.3229 45.3963 27.6224 44.9901 27.8359C44.5838 28.0495 44.1177 28.1562 43.5916 28.1562C43.0552 28.1562 42.5812 28.0677 42.1698 27.8906C41.7583 27.7135 41.4093 27.4557 41.1229 27.1172C40.8364 26.7786 40.6073 26.3724 40.4354 25.8984C40.2687 25.4245 40.1541 24.8906 40.0916 24.2969V23.4219C40.1541 22.7969 40.2713 22.237 40.4432 21.7422C40.6151 21.2474 40.8416 20.8255 41.1229 20.4766C41.4093 20.1224 41.7557 19.8542 42.162 19.6719C42.5682 19.4844 43.037 19.3906 43.5682 19.3906C44.0995 19.3906 44.5708 19.4948 44.9823 19.7031C45.3937 19.9062 45.7401 20.1979 46.0213 20.5781C46.3026 20.9583 46.5135 21.4141 46.6541 21.9453C46.8 22.4714 46.8729 23.0573 46.8729 23.7031ZM45.4198 23.8672V23.7031C45.4198 23.2812 45.3755 22.8854 45.287 22.5156C45.1984 22.1406 45.0604 21.8125 44.8729 21.5312C44.6906 21.2448 44.4562 21.0208 44.1698 20.8594C43.8833 20.6927 43.5422 20.6094 43.1463 20.6094C42.7817 20.6094 42.464 20.6719 42.1932 20.7969C41.9276 20.9219 41.701 21.0911 41.5135 21.3047C41.326 21.513 41.1724 21.7526 41.0526 22.0234C40.938 22.2891 40.8521 22.5651 40.7948 22.8516V24.875C40.8989 25.2396 41.0448 25.5833 41.2323 25.9062C41.4198 26.224 41.6698 26.4818 41.9823 26.6797C42.2948 26.8724 42.688 26.9688 43.162 26.9688C43.5526 26.9688 43.8885 26.888 44.1698 26.7266C44.4562 26.5599 44.6906 26.3333 44.8729 26.0469C45.0604 25.7604 45.1984 25.4323 45.287 25.0625C45.3755 24.6875 45.4198 24.2891 45.4198 23.8672ZM50.322 21.1719V31.25H48.8688V19.5469H50.197L50.322 21.1719ZM56.0173 23.7031V23.8672C56.0173 24.4818 55.9443 25.0521 55.7985 25.5781C55.6527 26.099 55.4391 26.5521 55.1579 26.9375C54.8818 27.3229 54.5407 27.6224 54.1345 27.8359C53.7282 28.0495 53.2621 28.1562 52.736 28.1562C52.1996 28.1562 51.7256 28.0677 51.3141 27.8906C50.9027 27.7135 50.5537 27.4557 50.2673 27.1172C49.9808 26.7786 49.7516 26.3724 49.5798 25.8984C49.4131 25.4245 49.2985 24.8906 49.236 24.2969V23.4219C49.2985 22.7969 49.4157 22.237 49.5876 21.7422C49.7595 21.2474 49.986 20.8255 50.2673 20.4766C50.5537 20.1224 50.9001 19.8542 51.3063 19.6719C51.7126 19.4844 52.1813 19.3906 52.7126 19.3906C53.2438 19.3906 53.7152 19.4948 54.1266 19.7031C54.5381 19.9062 54.8845 20.1979 55.1657 20.5781C55.447 20.9583 55.6579 21.4141 55.7985 21.9453C55.9443 22.4714 56.0173 23.0573 56.0173 23.7031ZM54.5641 23.8672V23.7031C54.5641 23.2812 54.5199 22.8854 54.4313 22.5156C54.3428 22.1406 54.2048 21.8125 54.0173 21.5312C53.835 21.2448 53.6006 21.0208 53.3141 20.8594C53.0277 20.6927 52.6865 20.6094 52.2907 20.6094C51.9261 20.6094 51.6084 20.6719 51.3376 20.7969C51.072 20.9219 50.8454 21.0911 50.6579 21.3047C50.4704 21.513 50.3167 21.7526 50.197 22.0234C50.0824 22.2891 49.9964 22.5651 49.9391 22.8516V24.875C50.0433 25.2396 50.1891 25.5833 50.3766 25.9062C50.5641 26.224 50.8141 26.4818 51.1266 26.6797C51.4391 26.8724 51.8324 26.9688 52.3063 26.9688C52.697 26.9688 53.0329 26.888 53.3141 26.7266C53.6006 26.5599 53.835 26.3333 54.0173 26.0469C54.2048 25.7604 54.3428 25.4323 54.4313 25.0625C54.5199 24.6875 54.5641 24.2891 54.5641 23.8672ZM59.4663 20.875V28H58.021V19.5469H59.4273L59.4663 20.875ZM62.107 19.5L62.0991 20.8438C61.9793 20.8177 61.8648 20.8021 61.7554 20.7969C61.6512 20.7865 61.5314 20.7812 61.396 20.7812C61.0627 20.7812 60.7684 20.8333 60.5132 20.9375C60.258 21.0417 60.0418 21.1875 59.8648 21.375C59.6877 21.5625 59.5471 21.7865 59.4429 22.0469C59.3439 22.3021 59.2788 22.5833 59.2476 22.8906L58.8413 23.125C58.8413 22.6146 58.8908 22.1354 58.9898 21.6875C59.0939 21.2396 59.2528 20.8438 59.4663 20.5C59.6799 20.151 59.9507 19.8802 60.2788 19.6875C60.6122 19.4896 61.008 19.3906 61.4663 19.3906C61.5705 19.3906 61.6903 19.4036 61.8257 19.4297C61.9611 19.4505 62.0549 19.474 62.107 19.5ZM63.0638 23.8672V23.6875C63.0638 23.0781 63.1524 22.513 63.3295 21.9922C63.5065 21.4661 63.7617 21.0104 64.0951 20.625C64.4284 20.2344 64.8321 19.9323 65.306 19.7188C65.78 19.5 66.3112 19.3906 66.8998 19.3906C67.4935 19.3906 68.0274 19.5 68.5013 19.7188C68.9805 19.9323 69.3867 20.2344 69.7201 20.625C70.0586 21.0104 70.3164 21.4661 70.4935 21.9922C70.6706 22.513 70.7591 23.0781 70.7591 23.6875V23.8672C70.7591 24.4766 70.6706 25.0417 70.4935 25.5625C70.3164 26.0833 70.0586 26.5391 69.7201 26.9297C69.3867 27.3151 68.9831 27.6172 68.5091 27.8359C68.0404 28.0495 67.5091 28.1562 66.9154 28.1562C66.3216 28.1562 65.7878 28.0495 65.3138 27.8359C64.8399 27.6172 64.4336 27.3151 64.0951 26.9297C63.7617 26.5391 63.5065 26.0833 63.3295 25.5625C63.1524 25.0417 63.0638 24.4766 63.0638 23.8672ZM64.5091 23.6875V23.8672C64.5091 24.2891 64.5586 24.6875 64.6576 25.0625C64.7565 25.4323 64.905 25.7604 65.1029 26.0469C65.306 26.3333 65.5586 26.5599 65.8607 26.7266C66.1628 26.888 66.5143 26.9688 66.9154 26.9688C67.3112 26.9688 67.6576 26.888 67.9545 26.7266C68.2565 26.5599 68.5065 26.3333 68.7045 26.0469C68.9024 25.7604 69.0508 25.4323 69.1498 25.0625C69.2539 24.6875 69.306 24.2891 69.306 23.8672V23.6875C69.306 23.2708 69.2539 22.8776 69.1498 22.5078C69.0508 22.1328 68.8998 21.8021 68.6966 21.5156C68.4987 21.224 68.2487 20.9948 67.9466 20.8281C67.6498 20.6615 67.3008 20.5781 66.8998 20.5781C66.5039 20.5781 66.155 20.6615 65.8529 20.8281C65.556 20.9948 65.306 21.224 65.1029 21.5156C64.905 21.8021 64.7565 22.1328 64.6576 22.5078C64.5586 22.8776 64.5091 23.2708 64.5091 23.6875ZM75.177 26.6953L77.4895 19.5469H78.966L75.927 28H74.9582L75.177 26.6953ZM73.2473 19.5469L75.6301 26.7344L75.7941 28H74.8254L71.7629 19.5469H73.2473ZM83.9151 28.1562C83.3265 28.1562 82.7927 28.0573 82.3135 27.8594C81.8396 27.6562 81.4307 27.3724 81.087 27.0078C80.7484 26.6432 80.488 26.2109 80.3057 25.7109C80.1234 25.2109 80.0323 24.6641 80.0323 24.0703V23.7422C80.0323 23.0547 80.1338 22.4427 80.337 21.9062C80.5401 21.3646 80.8161 20.9062 81.1651 20.5312C81.514 20.1562 81.9099 19.8724 82.3526 19.6797C82.7953 19.487 83.2536 19.3906 83.7276 19.3906C84.3317 19.3906 84.8526 19.4948 85.2901 19.7031C85.7328 19.9115 86.0948 20.2031 86.376 20.5781C86.6573 20.9479 86.8656 21.3854 87.001 21.8906C87.1364 22.3906 87.2041 22.9375 87.2041 23.5312V24.1797H80.8916V23H85.7588V22.8906C85.738 22.5156 85.6599 22.151 85.5245 21.7969C85.3942 21.4427 85.1859 21.151 84.8995 20.9219C84.613 20.6927 84.2224 20.5781 83.7276 20.5781C83.3995 20.5781 83.0974 20.6484 82.8213 20.7891C82.5453 20.9245 82.3083 21.1276 82.1104 21.3984C81.9125 21.6693 81.7588 22 81.6495 22.3906C81.5401 22.7812 81.4854 23.2318 81.4854 23.7422V24.0703C81.4854 24.4714 81.5401 24.849 81.6495 25.2031C81.764 25.5521 81.9281 25.8594 82.1416 26.125C82.3604 26.3906 82.6234 26.599 82.9307 26.75C83.2432 26.901 83.5974 26.9766 83.9932 26.9766C84.5036 26.9766 84.9359 26.8724 85.2901 26.6641C85.6442 26.4557 85.9541 26.1771 86.2198 25.8281L87.0948 26.5234C86.9125 26.7995 86.6807 27.0625 86.3995 27.3125C86.1182 27.5625 85.7718 27.7656 85.3604 27.9219C84.9541 28.0781 84.4724 28.1562 83.9151 28.1562ZM94.3798 26.3594V16H95.8329V28H94.5048L94.3798 26.3594ZM88.6923 23.8672V23.7031C88.6923 23.0573 88.7704 22.4714 88.9266 21.9453C89.0881 21.4141 89.3147 20.9583 89.6063 20.5781C89.9032 20.1979 90.2548 19.9062 90.661 19.7031C91.0725 19.4948 91.5308 19.3906 92.036 19.3906C92.5673 19.3906 93.0308 19.4844 93.4266 19.6719C93.8277 19.8542 94.1662 20.1224 94.4423 20.4766C94.7235 20.8255 94.9449 21.2474 95.1063 21.7422C95.2678 22.237 95.3798 22.7969 95.4423 23.4219V24.1406C95.385 24.7604 95.273 25.3177 95.1063 25.8125C94.9449 26.3073 94.7235 26.7292 94.4423 27.0781C94.1662 27.4271 93.8277 27.6953 93.4266 27.8828C93.0256 28.0651 92.5568 28.1562 92.0204 28.1562C91.5256 28.1562 91.0725 28.0495 90.661 27.8359C90.2548 27.6224 89.9032 27.3229 89.6063 26.9375C89.3147 26.5521 89.0881 26.099 88.9266 25.5781C88.7704 25.0521 88.6923 24.4818 88.6923 23.8672ZM90.1454 23.7031V23.8672C90.1454 24.2891 90.1871 24.6849 90.2704 25.0547C90.3589 25.4245 90.4943 25.75 90.6766 26.0312C90.8589 26.3125 91.0907 26.5339 91.372 26.6953C91.6532 26.8516 91.9891 26.9297 92.3798 26.9297C92.8589 26.9297 93.2522 26.8281 93.5595 26.625C93.872 26.4219 94.122 26.1536 94.3095 25.8203C94.497 25.487 94.6428 25.125 94.747 24.7344V22.8516C94.6845 22.5651 94.5933 22.2891 94.4735 22.0234C94.3589 21.7526 94.2079 21.513 94.0204 21.3047C93.8381 21.0911 93.6115 20.9219 93.3407 20.7969C93.0751 20.6719 92.76 20.6094 92.3954 20.6094C91.9996 20.6094 91.6584 20.6927 91.372 20.8594C91.0907 21.0208 90.8589 21.2448 90.6766 21.5312C90.4943 21.8125 90.3589 22.1406 90.2704 22.5156C90.1871 22.8854 90.1454 23.2812 90.1454 23.7031Z" fill="white"/>
<defs>
<filter id="filter0_d_286_34096" x="0.0986328" y="0" width="127.701" height="53" filterUnits="userSpaceOnUse" color-interpolation-filters="sRGB">
<feFlood flood-opacity="0" result="BackgroundImageFix"/>
<feColorMatrix in="SourceAlpha" type="matrix" values="0 0 0 0 0 0 0 0 0 0 0 0 0 0 0 0 0 0 127 0" result="hardAlpha"/>
<feOffset dx="2" dy="2"/>
<feGaussianBlur stdDeviation="2"/>
<feComposite in2="hardAlpha" operator="out"/>
<feColorMatrix type="matrix" values="0 0 0 0 0 0 0 0 0 0 0 0 0 0 0 0 0 0 0.25 0"/>
<feBlend mode="normal" in2="BackgroundImageFix" result="effect1_dropShadow_286_34096"/>
<feBlend mode="normal" in="SourceGraphic" in2="effect1_dropShadow_286_34096" result="shape"/>
</filter>
</defs>
</svg>
