<svg width="45" height="45" viewBox="0 0 45 45" fill="none" xmlns="http://www.w3.org/2000/svg">
<path d="M29.4075 20.8125L27.3825 22.8825C25.7625 24.5025 24.75 25.875 24.75 29.25H20.25V28.125C20.25 25.6275 21.2625 23.3775 22.8825 21.7575L25.6725 18.9225C26.505 18.1125 27 16.9875 27 15.75C27 14.5565 26.5259 13.4119 25.682 12.568C24.8381 11.7241 23.6935 11.25 22.5 11.25C21.3065 11.25 20.1619 11.7241 19.318 12.568C18.4741 13.4119 18 14.5565 18 15.75H13.5C13.5 13.3631 14.4482 11.0739 16.136 9.38604C17.8239 7.69821 20.1131 6.75 22.5 6.75C24.8869 6.75 27.1761 7.69821 28.864 9.38604C30.5518 11.0739 31.5 13.3631 31.5 15.75C31.4968 17.6473 30.7448 19.4666 29.4075 20.8125ZM24.75 38.25H20.25V33.75H24.75M22.5 0C19.5453 0 16.6194 0.58198 13.8896 1.71271C11.1598 2.84344 8.67942 4.50078 6.5901 6.5901C2.37053 10.8097 0 16.5326 0 22.5C0 28.4674 2.37053 34.1903 6.5901 38.4099C8.67942 40.4992 11.1598 42.1566 13.8896 43.2873C16.6194 44.418 19.5453 45 22.5 45C28.4674 45 34.1903 42.6295 38.4099 38.4099C42.6295 34.1903 45 28.4674 45 22.5C45 10.0575 34.875 0 22.5 0Z" fill="#FF0E0E" fill-opacity="0.8"/>
</svg>
