<svg width="35" height="33" viewBox="0 0 35 33" fill="none" xmlns="http://www.w3.org/2000/svg">
<g clip-path="url(#clip0_209_34376)">
<path d="M4.58457 23.5625V29.25C4.58457 30.112 4.91846 30.9386 5.51279 31.5481C6.10712 32.1576 6.9132 32.5 7.75371 32.5H26.7685C27.609 32.5 28.4151 32.1576 29.0095 31.5481C29.6038 30.9386 29.9377 30.112 29.9377 29.25V23.5625M3 19.5V17.875C3 17.013 3.33389 16.1864 3.92822 15.5769C4.52255 14.9674 5.32863 14.625 6.16914 14.625H28.3531C29.1936 14.625 29.9997 14.9674 30.594 15.5769C31.1884 16.1864 31.5222 17.013 31.5222 17.875V19.5M17.2611 9.75V14.625M17.2611 9.75C19.2608 9.75 20.4303 8.177 20.4303 5.48438C20.4303 2.79175 17.2611 0 17.2611 0C17.2611 0 14.092 2.79175 14.092 5.48438C14.092 8.177 15.2614 9.75 17.2611 9.75Z" stroke="#04AA9C" stroke-width="2" stroke-linecap="round" stroke-linejoin="round"/>
<path d="M3 19.5C3 20.793 3.50084 22.0331 4.39233 22.9474C5.28382 23.8617 6.49295 24.3753 7.75371 24.3753C9.01447 24.3753 10.2236 23.8617 11.1151 22.9474C12.0066 22.0331 12.5074 20.793 12.5074 19.5C12.5074 20.793 13.0083 22.0331 13.8997 22.9474C14.7912 23.8617 16.0004 24.3753 17.2611 24.3753C18.5219 24.3753 19.731 23.8617 20.6225 22.9474C21.514 22.0331 22.0148 20.793 22.0148 19.5C22.0148 20.793 22.5157 22.0331 23.4072 22.9474C24.2987 23.8617 25.5078 24.3753 26.7685 24.3753C28.0293 24.3753 29.2384 23.8617 30.1299 22.9474C31.0214 22.0331 31.5222 20.793 31.5222 19.5" stroke="#04AA9C" stroke-width="2" stroke-linecap="round" stroke-linejoin="round"/>
</g>
<defs>
<clipPath id="clip0_209_34376">
<rect width="34.5222" height="32.5" fill="white"/>
</clipPath>
</defs>
</svg>
