<svg width="25" height="26" viewBox="0 0 25 26" fill="none" xmlns="http://www.w3.org/2000/svg">
<path d="M15.9605 19.6021C18.3287 19.3212 20.6123 18.7645 22.7783 17.9648C20.9823 15.9713 19.8892 13.332 19.8892 10.4375V9.56148C19.8893 9.54101 19.8894 9.52051 19.8894 9.5C19.8894 5.35786 16.5315 2 12.3894 2C8.24727 2 4.8894 5.35786 4.8894 9.5L4.88916 10.4375C4.88916 13.332 3.796 15.9713 2 17.9648C4.16616 18.7645 6.44995 19.3213 8.81832 19.6022M15.9605 19.6021C14.7894 19.741 13.5976 19.8125 12.3892 19.8125C11.1809 19.8125 9.98926 19.7411 8.81832 19.6022M15.9605 19.6021C16.0767 19.9639 16.1394 20.3496 16.1394 20.75C16.1394 22.8211 14.4605 24.5 12.3894 24.5C10.3183 24.5 8.6394 22.8211 8.6394 20.75C8.6394 20.3496 8.70214 19.9639 8.81832 19.6022" stroke="#5D6D79" stroke-width="3" stroke-linecap="round" stroke-linejoin="round"/>
</svg>
