<svg width="40" height="38" viewBox="0 0 40 38" fill="none" xmlns="http://www.w3.org/2000/svg">
<rect width="40" height="38" rx="19" fill="white"/>
<path d="M23.5708 25.3521C25.939 25.0712 28.2227 24.5145 30.3887 23.7148C28.5927 21.7213 27.4995 19.082 27.4995 16.1875V15.3115C27.4997 15.291 27.4998 15.2705 27.4998 15.25C27.4998 11.1079 24.1419 7.75 19.9998 7.75C15.8576 7.75 12.4998 11.1079 12.4998 15.25L12.4995 16.1875C12.4995 19.082 11.4063 21.7213 9.61035 23.7148C11.7765 24.5145 14.0603 25.0713 16.4287 25.3522M23.5708 25.3521C22.3997 25.491 21.208 25.5625 19.9995 25.5625C18.7912 25.5625 17.5996 25.4911 16.4287 25.3522M23.5708 25.3521C23.687 25.7139 23.7498 26.0996 23.7498 26.5C23.7498 28.5711 22.0708 30.25 19.9998 30.25C17.9287 30.25 16.2498 28.5711 16.2498 26.5C16.2498 26.0996 16.3125 25.7139 16.4287 25.3522" stroke="#5D6D79" stroke-width="3" stroke-linecap="round" stroke-linejoin="round"/>
<rect x="0.5" y="0.5" width="39" height="37" rx="18.5" stroke="black" stroke-opacity="0.1"/>
</svg>
