<svg width="35" height="34" viewBox="0 0 35 34" fill="none" xmlns="http://www.w3.org/2000/svg">
<rect width="35" height="34" rx="5" fill="#04AA9C"/>
<path d="M15.1562 7C14.5346 7 13.9385 7.24313 13.499 7.67591C13.0594 8.10868 12.8125 8.69565 12.8125 9.30769V10.0769H7.34375C6.72215 10.0769 6.12601 10.3201 5.68647 10.7528C5.24693 11.1856 5 11.7726 5 12.3846V24.6923C5 25.3043 5.24693 25.8913 5.68647 26.3241C6.12601 26.7569 6.72215 27 7.34375 27H27.6562C28.2779 27 28.874 26.7569 29.3135 26.3241C29.7531 25.8913 30 25.3043 30 24.6923V12.3846C30 11.7726 29.7531 11.1856 29.3135 10.7528C28.874 10.3201 28.2779 10.0769 27.6562 10.0769H22.1875V9.30769C22.1875 8.69565 21.9406 8.10868 21.501 7.67591C21.0615 7.24313 20.4654 7 19.8438 7H15.1562ZM15.1562 8.53846H19.8438C20.051 8.53846 20.2497 8.61951 20.3962 8.76376C20.5427 8.90802 20.625 9.10368 20.625 9.30769V10.0769H14.375V9.30769C14.375 9.10368 14.4573 8.90802 14.6038 8.76376C14.7503 8.61951 14.949 8.53846 15.1562 8.53846ZM18.1031 19.1754L28.4375 16.4631V24.6923C28.4375 24.8963 28.3552 25.092 28.2087 25.2362C28.0622 25.3805 27.8635 25.4615 27.6562 25.4615H7.34375C7.13655 25.4615 6.93784 25.3805 6.79132 25.2362C6.64481 25.092 6.5625 24.8963 6.5625 24.6923V16.4615L16.8969 19.1754C17.2921 19.279 17.7079 19.279 18.1031 19.1754ZM7.34375 11.6154H27.6562C27.8635 11.6154 28.0622 11.6964 28.2087 11.8407C28.3552 11.9849 28.4375 12.1806 28.4375 12.3846V14.8708L17.7016 17.6892C17.5695 17.724 17.4305 17.724 17.2984 17.6892L6.5625 14.8708V12.3846C6.5625 12.1806 6.64481 11.9849 6.79132 11.8407C6.93784 11.6964 7.13655 11.6154 7.34375 11.6154Z" fill="white"/>
</svg>
