<svg width="52" height="52" viewBox="0 0 52 52" fill="none" xmlns="http://www.w3.org/2000/svg">
<path d="M13 19C13 30.0457 21.9543 39 33 39H36C37.6569 39 39 37.6569 39 36V34.1712C39 33.4829 38.5316 32.8829 37.8638 32.716L31.9662 31.2416C31.3807 31.0952 30.7645 31.314 30.4024 31.7968L29.1088 33.5216C28.7334 34.0222 28.084 34.2435 27.4965 34.0283C23.0872 32.4131 19.5869 28.9128 17.9717 24.5035C17.7565 23.916 17.9778 23.2666 18.4784 22.8912L20.2032 21.5976C20.686 21.2355 20.9048 20.6193 20.7584 20.0338L19.284 14.1362C19.1171 13.4684 18.5171 13 17.8288 13H16C14.3431 13 13 14.3431 13 16V19Z" stroke="#04AA9C" stroke-width="2" stroke-linecap="round" stroke-linejoin="round"/>
</svg>
