<svg width="25" height="25" viewBox="0 0 25 25" fill="none" xmlns="http://www.w3.org/2000/svg">
<circle cx="12.5" cy="12.5" r="12.5" fill="#F2EEEE" fill-opacity="0.8"/>
<path d="M8.34532 7.05981C8.04442 7.54201 7.54065 7.85904 6.97792 7.93901C6.66171 7.98395 6.34669 8.03258 6.03291 8.08487C5.15552 8.23108 4.53125 9.00292 4.53125 9.89241V16.9141C4.53125 17.9496 5.37072 18.7891 6.40625 18.7891H18.9062C19.9418 18.7891 20.7812 17.9496 20.7812 16.9141V9.89242C20.7812 9.00293 20.157 8.23108 19.2796 8.08488C18.9658 8.03259 18.6508 7.98396 18.3346 7.93902C17.7719 7.85905 17.2681 7.54201 16.9672 7.05982L16.2828 5.96314C15.9674 5.4577 15.4307 5.12938 14.8358 5.09744C14.1142 5.05869 13.3875 5.03906 12.6562 5.03906C11.925 5.03906 11.1983 5.05869 10.4767 5.09744C9.88175 5.12938 9.34506 5.4577 9.02966 5.96314L8.34532 7.05981Z" stroke="#0F172A" stroke-opacity="0.8" stroke-width="1.5" stroke-linecap="round" stroke-linejoin="round"/>
<path d="M16.4062 12.5391C16.4062 14.6101 14.7273 16.2891 12.6562 16.2891C10.5852 16.2891 8.90625 14.6101 8.90625 12.5391C8.90625 10.468 10.5852 8.78906 12.6562 8.78906C14.7273 8.78906 16.4062 10.468 16.4062 12.5391Z" stroke="#0F172A" stroke-opacity="0.8" stroke-width="1.5" stroke-linecap="round" stroke-linejoin="round"/>
<path d="M18.2812 10.6641H18.2875V10.6703H18.2812V10.6641Z" stroke="#0F172A" stroke-opacity="0.8" stroke-width="1.5" stroke-linecap="round" stroke-linejoin="round"/>
</svg>
