<svg width="25" height="25" viewBox="0 0 25 25" fill="none" xmlns="http://www.w3.org/2000/svg">
<path d="M2.5 0C1.1125 0 0 1.17105 0 2.63158V15.7895C0 16.4874 0.263392 17.1568 0.732233 17.6503C1.20107 18.1438 1.83696 18.4211 2.5 18.4211H12.5V25L16.25 21.0526L20 25V18.4211H22.5C23.163 18.4211 23.7989 18.1438 24.2678 17.6503C24.7366 17.1568 25 16.4874 25 15.7895V2.63158C25 1.93364 24.7366 1.26429 24.2678 0.770771C23.7989 0.277255 23.163 0 22.5 0H2.5ZM12.5 2.63158L16.25 5.26316L20 2.63158V7.23684L23.75 9.21053L20 11.1842V15.7895L16.25 13.1579L12.5 15.7895V11.1842L8.75 9.21053L12.5 7.23684V2.63158ZM2.5 2.63158H8.75V5.26316H2.5V2.63158ZM2.5 7.89474H6.25V10.5263H2.5V7.89474ZM2.5 13.1579H8.75V15.7895H2.5V13.1579Z" fill="white"/>
</svg>
