<svg width="40" height="38" viewBox="0 0 40 38" fill="none" xmlns="http://www.w3.org/2000/svg">
<rect width="40" height="38" rx="19" fill="white"/>
<path d="M15.7812 19C15.7812 19.2589 15.5714 19.4688 15.3125 19.4688C15.0536 19.4688 14.8438 19.2589 14.8438 19C14.8438 18.7411 15.0536 18.5312 15.3125 18.5312C15.5714 18.5312 15.7812 18.7411 15.7812 19ZM15.7812 19H15.3125M20.4688 19C20.4688 19.2589 20.2589 19.4688 20 19.4688C19.7411 19.4688 19.5312 19.2589 19.5312 19C19.5312 18.7411 19.7411 18.5312 20 18.5312C20.2589 18.5312 20.4688 18.7411 20.4688 19ZM20.4688 19H20M25.1562 19C25.1562 19.2589 24.9464 19.4688 24.6875 19.4688C24.4286 19.4688 24.2188 19.2589 24.2188 19C24.2188 18.7411 24.4286 18.5312 24.6875 18.5312C24.9464 18.5312 25.1562 18.7411 25.1562 19ZM25.1562 19H24.6875M31.25 19C31.25 24.6954 26.2132 29.3125 20 29.3125C18.8907 29.3125 17.8188 29.1653 16.8065 28.8911C15.5877 29.7473 14.1025 30.25 12.5 30.25C12.251 30.25 12.0047 30.2379 11.7621 30.2142C11.5625 30.1947 11.3647 30.1674 11.1697 30.1325C11.7742 29.4191 12.2035 28.5533 12.3924 27.601C12.5057 27.0297 12.2259 26.4749 11.8085 26.0686C9.91213 24.2227 8.75 21.7358 8.75 19C8.75 13.3046 13.7868 8.6875 20 8.6875C26.2132 8.6875 31.25 13.3046 31.25 19Z" stroke="#5D6D79" stroke-width="3" stroke-linecap="round" stroke-linejoin="round"/>
<rect x="0.5" y="0.5" width="39" height="37" rx="18.5" stroke="black" stroke-opacity="0.1"/>
</svg>
