<svg width="56" height="52" viewBox="0 0 56 52" fill="none" xmlns="http://www.w3.org/2000/svg">
<rect width="56" height="52" rx="5" fill="#04AA9C"/>
<path d="M17.5 12.2857H31.2083C32.0133 12.2857 32.6667 12.9257 32.6667 13.7143V23.7143C32.6667 24.0174 32.7896 24.3081 33.0084 24.5224C33.2272 24.7367 33.5239 24.8571 33.8333 24.8571H38.2083C39.0133 24.8571 39.6667 25.4971 39.6667 26.2857V39.7143H36.1667V35.7143C36.1667 35.2596 35.9823 34.8236 35.6541 34.5021C35.3259 34.1806 34.8808 34 34.4167 34H21.5833C21.1192 34 20.6741 34.1806 20.3459 34.5021C20.0177 34.8236 19.8333 35.2596 19.8333 35.7143V39.7143H16.3333V13.4286C16.3333 13.1255 16.4562 12.8348 16.675 12.6204C16.8938 12.4061 17.1906 12.2857 17.5 12.2857ZM33.8333 39.7143H29.1667V36.2857H33.8333V39.7143ZM26.8333 39.7143H22.1667V36.2857H26.8333V39.7143ZM40.8333 42C41.1428 42 41.4395 41.8796 41.6583 41.6653C41.8771 41.4509 42 41.1602 42 40.8571V26.2857C42 25.7979 41.9019 25.315 41.7114 24.8643C41.5208 24.4137 41.2415 24.0042 40.8894 23.6593C40.5374 23.3144 40.1194 23.0408 39.6593 22.8542C39.1993 22.6675 38.7063 22.5714 38.2083 22.5714H35V13.7143C35 13.2265 34.9019 12.7435 34.7114 12.2929C34.5208 11.8423 34.2415 11.4328 33.8894 11.0879C33.5374 10.743 33.1194 10.4694 32.6593 10.2827C32.1993 10.0961 31.7063 10 31.2083 10H17.5C16.5717 10 15.6815 10.3612 15.0251 11.0042C14.3687 11.6472 14 12.5193 14 13.4286V40.8571C14 41.1602 14.1229 41.4509 14.3417 41.6653C14.5605 41.8796 14.8572 42 15.1667 42H40.8333ZM21.5833 19.1429C22.0475 19.1429 22.4926 18.9622 22.8208 18.6408C23.149 18.3193 23.3333 17.8832 23.3333 17.4286C23.3333 16.9739 23.149 16.5379 22.8208 16.2164C22.4926 15.8949 22.0475 15.7143 21.5833 15.7143C21.1192 15.7143 20.6741 15.8949 20.3459 16.2164C20.0177 16.5379 19.8333 16.9739 19.8333 17.4286C19.8333 17.8832 20.0177 18.3193 20.3459 18.6408C20.6741 18.9622 21.1192 19.1429 21.5833 19.1429ZM21.5833 24.8571C22.0475 24.8571 22.4926 24.6765 22.8208 24.355C23.149 24.0336 23.3333 23.5975 23.3333 23.1429C23.3333 22.6882 23.149 22.2522 22.8208 21.9307C22.4926 21.6092 22.0475 21.4286 21.5833 21.4286C21.1192 21.4286 20.6741 21.6092 20.3459 21.9307C20.0177 22.2522 19.8333 22.6882 19.8333 23.1429C19.8333 23.5975 20.0177 24.0336 20.3459 24.355C20.6741 24.6765 21.1192 24.8571 21.5833 24.8571ZM23.3333 28.8571C23.3333 29.3118 23.149 29.7478 22.8208 30.0693C22.4926 30.3908 22.0475 30.5714 21.5833 30.5714C21.1192 30.5714 20.6741 30.3908 20.3459 30.0693C20.0177 29.7478 19.8333 29.3118 19.8333 28.8571C19.8333 28.4025 20.0177 27.9665 20.3459 27.645C20.6741 27.3235 21.1192 27.1429 21.5833 27.1429C22.0475 27.1429 22.4926 27.3235 22.8208 27.645C23.149 27.9665 23.3333 28.4025 23.3333 28.8571ZM27.4167 19.1429C27.8808 19.1429 28.3259 18.9622 28.6541 18.6408C28.9823 18.3193 29.1667 17.8832 29.1667 17.4286C29.1667 16.9739 28.9823 16.5379 28.6541 16.2164C28.3259 15.8949 27.8808 15.7143 27.4167 15.7143C26.9525 15.7143 26.5074 15.8949 26.1792 16.2164C25.851 16.5379 25.6667 16.9739 25.6667 17.4286C25.6667 17.8832 25.851 18.3193 26.1792 18.6408C26.5074 18.9622 26.9525 19.1429 27.4167 19.1429ZM29.1667 23.1429C29.1667 23.5975 28.9823 24.0336 28.6541 24.355C28.3259 24.6765 27.8808 24.8571 27.4167 24.8571C26.9525 24.8571 26.5074 24.6765 26.1792 24.355C25.851 24.0336 25.6667 23.5975 25.6667 23.1429C25.6667 22.6882 25.851 22.2522 26.1792 21.9307C26.5074 21.6092 26.9525 21.4286 27.4167 21.4286C27.8808 21.4286 28.3259 21.6092 28.6541 21.9307C28.9823 22.2522 29.1667 22.6882 29.1667 23.1429ZM27.4167 30.5714C27.8808 30.5714 28.3259 30.3908 28.6541 30.0693C28.9823 29.7478 29.1667 29.3118 29.1667 28.8571C29.1667 28.4025 28.9823 27.9665 28.6541 27.645C28.3259 27.3235 27.8808 27.1429 27.4167 27.1429C26.9525 27.1429 26.5074 27.3235 26.1792 27.645C25.851 27.9665 25.6667 28.4025 25.6667 28.8571C25.6667 29.3118 25.851 29.7478 26.1792 30.0693C26.5074 30.3908 26.9525 30.5714 27.4167 30.5714ZM35 28.8571C35 29.3118 34.8156 29.7478 34.4874 30.0693C34.1592 30.3908 33.7141 30.5714 33.25 30.5714C32.7859 30.5714 32.3408 30.3908 32.0126 30.0693C31.6844 29.7478 31.5 29.3118 31.5 28.8571C31.5 28.4025 31.6844 27.9665 32.0126 27.645C32.3408 27.3235 32.7859 27.1429 33.25 27.1429C33.7141 27.1429 34.1592 27.3235 34.4874 27.645C34.8156 27.9665 35 28.4025 35 28.8571Z" fill="white"/>
</svg>
