<svg width="133" height="53" viewBox="0 0 133 53" fill="none" xmlns="http://www.w3.org/2000/svg">
<g filter="url(#filter0_d_286_34102)">
<path d="M108.354 46.5H3.96508L20.9699 24.3041L21.2081 23.9931L20.9632 23.6874L3.99323 2.5H108.354L126.002 24.5L108.354 46.5Z" stroke="#B6B6B6" shape-rendering="crispEdges"/>
</g>
<path d="M36.0771 24.3828H37.5771C37.499 25.1016 37.2933 25.7448 36.96 26.3125C36.6266 26.8802 36.1553 27.3307 35.5459 27.6641C34.9365 27.9922 34.1761 28.1562 33.2646 28.1562C32.598 28.1562 31.9912 28.0312 31.4443 27.7812C30.9027 27.5312 30.4365 27.1771 30.0459 26.7188C29.6553 26.2552 29.3532 25.7005 29.1396 25.0547C28.9313 24.4036 28.8271 23.6797 28.8271 22.8828V21.75C28.8271 20.9531 28.9313 20.2318 29.1396 19.5859C29.3532 18.9349 29.6579 18.3776 30.0537 17.9141C30.4548 17.4505 30.9365 17.0938 31.499 16.8438C32.0615 16.5938 32.6943 16.4688 33.3975 16.4688C34.2568 16.4688 34.9834 16.6302 35.5771 16.9531C36.1709 17.276 36.6318 17.724 36.96 18.2969C37.2933 18.8646 37.499 19.5234 37.5771 20.2734H36.0771C36.0042 19.7422 35.8688 19.2865 35.6709 18.9062C35.473 18.5208 35.1917 18.224 34.8271 18.0156C34.4626 17.8073 33.986 17.7031 33.3975 17.7031C32.8923 17.7031 32.4469 17.7995 32.0615 17.9922C31.6813 18.1849 31.361 18.4583 31.1006 18.8125C30.8454 19.1667 30.6527 19.5911 30.5225 20.0859C30.3923 20.5807 30.3271 21.1302 30.3271 21.7344V22.8828C30.3271 23.4401 30.3844 23.9635 30.499 24.4531C30.6188 24.9427 30.7985 25.3724 31.0381 25.7422C31.2777 26.112 31.5824 26.4036 31.9521 26.6172C32.3219 26.8255 32.7594 26.9297 33.2646 26.9297C33.9053 26.9297 34.4157 26.8281 34.7959 26.625C35.1761 26.4219 35.4626 26.1302 35.6553 25.75C35.8532 25.3698 35.9938 24.9141 36.0771 24.3828ZM39.1903 23.8672V23.6875C39.1903 23.0781 39.2788 22.513 39.4559 21.9922C39.633 21.4661 39.8882 21.0104 40.2215 20.625C40.5549 20.2344 40.9585 19.9323 41.4325 19.7188C41.9064 19.5 42.4377 19.3906 43.0262 19.3906C43.62 19.3906 44.1538 19.5 44.6278 19.7188C45.1069 19.9323 45.5132 20.2344 45.8465 20.625C46.1851 21.0104 46.4429 21.4661 46.62 21.9922C46.797 22.513 46.8856 23.0781 46.8856 23.6875V23.8672C46.8856 24.4766 46.797 25.0417 46.62 25.5625C46.4429 26.0833 46.1851 26.5391 45.8465 26.9297C45.5132 27.3151 45.1095 27.6172 44.6356 27.8359C44.1668 28.0495 43.6356 28.1562 43.0418 28.1562C42.4481 28.1562 41.9142 28.0495 41.4403 27.8359C40.9663 27.6172 40.5601 27.3151 40.2215 26.9297C39.8882 26.5391 39.633 26.0833 39.4559 25.5625C39.2788 25.0417 39.1903 24.4766 39.1903 23.8672ZM40.6356 23.6875V23.8672C40.6356 24.2891 40.6851 24.6875 40.784 25.0625C40.883 25.4323 41.0314 25.7604 41.2293 26.0469C41.4325 26.3333 41.6851 26.5599 41.9871 26.7266C42.2892 26.888 42.6408 26.9688 43.0418 26.9688C43.4377 26.9688 43.784 26.888 44.0809 26.7266C44.383 26.5599 44.633 26.3333 44.8309 26.0469C45.0288 25.7604 45.1773 25.4323 45.2762 25.0625C45.3804 24.6875 45.4325 24.2891 45.4325 23.8672V23.6875C45.4325 23.2708 45.3804 22.8776 45.2762 22.5078C45.1773 22.1328 45.0262 21.8021 44.8231 21.5156C44.6252 21.224 44.3752 20.9948 44.0731 20.8281C43.7762 20.6615 43.4273 20.5781 43.0262 20.5781C42.6304 20.5781 42.2814 20.6615 41.9793 20.8281C41.6825 20.9948 41.4325 21.224 41.2293 21.5156C41.0314 21.8021 40.883 22.1328 40.784 22.5078C40.6851 22.8776 40.6356 23.2708 40.6356 23.6875ZM50.2956 21.2266V28H48.8425V19.5469H50.2175L50.2956 21.2266ZM49.9987 23.4531L49.3268 23.4297C49.332 22.8516 49.4076 22.3177 49.5534 21.8281C49.6992 21.3333 49.9154 20.9036 50.2018 20.5391C50.4883 20.1745 50.8451 19.8932 51.2721 19.6953C51.6992 19.4922 52.194 19.3906 52.7565 19.3906C53.1524 19.3906 53.5169 19.4479 53.8503 19.5625C54.1836 19.6719 54.4727 19.8464 54.7175 20.0859C54.9623 20.3255 55.1524 20.6328 55.2878 21.0078C55.4232 21.3828 55.4909 21.8359 55.4909 22.3672V28H54.0456V22.4375C54.0456 21.9948 53.9701 21.6406 53.819 21.375C53.6732 21.1094 53.4649 20.9167 53.194 20.7969C52.9232 20.6719 52.6055 20.6094 52.2409 20.6094C51.8138 20.6094 51.457 20.6849 51.1706 20.8359C50.8841 20.987 50.655 21.1953 50.4831 21.4609C50.3112 21.7266 50.1862 22.0312 50.1081 22.375C50.0352 22.7135 49.9987 23.0729 49.9987 23.4531ZM55.4753 22.6562L54.5065 22.9531C54.5117 22.4896 54.5873 22.0443 54.7331 21.6172C54.8841 21.1901 55.1003 20.8099 55.3815 20.4766C55.668 20.1432 56.0195 19.8802 56.4362 19.6875C56.8529 19.4896 57.3294 19.3906 57.8659 19.3906C58.319 19.3906 58.7201 19.4505 59.069 19.5703C59.4232 19.6901 59.7201 19.875 59.9596 20.125C60.2044 20.3698 60.3893 20.6849 60.5143 21.0703C60.6393 21.4557 60.7018 21.9141 60.7018 22.4453V28H59.2487V22.4297C59.2487 21.9557 59.1732 21.5885 59.0221 21.3281C58.8763 21.0625 58.668 20.8776 58.3971 20.7734C58.1315 20.6641 57.8138 20.6094 57.444 20.6094C57.1263 20.6094 56.8451 20.6641 56.6003 20.7734C56.3555 20.8828 56.1498 21.0339 55.9831 21.2266C55.8164 21.4141 55.6888 21.6302 55.6003 21.875C55.5169 22.1198 55.4753 22.3802 55.4753 22.6562ZM64.4946 21.1719V31.25H63.0415V19.5469H64.3696L64.4946 21.1719ZM70.19 23.7031V23.8672C70.19 24.4818 70.117 25.0521 69.9712 25.5781C69.8254 26.099 69.6118 26.5521 69.3306 26.9375C69.0545 27.3229 68.7134 27.6224 68.3071 27.8359C67.9009 28.0495 67.4348 28.1562 66.9087 28.1562C66.3723 28.1562 65.8983 28.0677 65.4868 27.8906C65.0754 27.7135 64.7264 27.4557 64.44 27.1172C64.1535 26.7786 63.9243 26.3724 63.7525 25.8984C63.5858 25.4245 63.4712 24.8906 63.4087 24.2969V23.4219C63.4712 22.7969 63.5884 22.237 63.7603 21.7422C63.9321 21.2474 64.1587 20.8255 64.44 20.4766C64.7264 20.1224 65.0728 19.8542 65.479 19.6719C65.8853 19.4844 66.354 19.3906 66.8853 19.3906C67.4165 19.3906 67.8879 19.4948 68.2993 19.7031C68.7108 19.9062 69.0571 20.1979 69.3384 20.5781C69.6196 20.9583 69.8306 21.4141 69.9712 21.9453C70.117 22.4714 70.19 23.0573 70.19 23.7031ZM68.7368 23.8672V23.7031C68.7368 23.2812 68.6926 22.8854 68.604 22.5156C68.5155 22.1406 68.3775 21.8125 68.19 21.5312C68.0077 21.2448 67.7733 21.0208 67.4868 20.8594C67.2004 20.6927 66.8592 20.6094 66.4634 20.6094C66.0988 20.6094 65.7811 20.6719 65.5103 20.7969C65.2446 20.9219 65.0181 21.0911 64.8306 21.3047C64.6431 21.513 64.4894 21.7526 64.3696 22.0234C64.2551 22.2891 64.1691 22.5651 64.1118 22.8516V24.875C64.216 25.2396 64.3618 25.5833 64.5493 25.9062C64.7368 26.224 64.9868 26.4818 65.2993 26.6797C65.6118 26.8724 66.0051 26.9688 66.479 26.9688C66.8696 26.9688 67.2056 26.888 67.4868 26.7266C67.7733 26.5599 68.0077 26.3333 68.19 26.0469C68.3775 25.7604 68.5155 25.4323 68.604 25.0625C68.6926 24.6875 68.7368 24.2891 68.7368 23.8672ZM73.764 16V28H72.3109V16H73.764ZM79.7521 28.1562C79.1636 28.1562 78.6298 28.0573 78.1506 27.8594C77.6766 27.6562 77.2678 27.3724 76.924 27.0078C76.5855 26.6432 76.3251 26.2109 76.1428 25.7109C75.9605 25.2109 75.8693 24.6641 75.8693 24.0703V23.7422C75.8693 23.0547 75.9709 22.4427 76.174 21.9062C76.3771 21.3646 76.6532 20.9062 77.0021 20.5312C77.3511 20.1562 77.7469 19.8724 78.1896 19.6797C78.6324 19.487 79.0907 19.3906 79.5646 19.3906C80.1688 19.3906 80.6896 19.4948 81.1271 19.7031C81.5699 19.9115 81.9318 20.2031 82.2131 20.5781C82.4943 20.9479 82.7027 21.3854 82.8381 21.8906C82.9735 22.3906 83.0412 22.9375 83.0412 23.5312V24.1797H76.7287V23H81.5959V22.8906C81.5751 22.5156 81.4969 22.151 81.3615 21.7969C81.2313 21.4427 81.023 21.151 80.7365 20.9219C80.4501 20.6927 80.0594 20.5781 79.5646 20.5781C79.2365 20.5781 78.9344 20.6484 78.6584 20.7891C78.3824 20.9245 78.1454 21.1276 77.9475 21.3984C77.7495 21.6693 77.5959 22 77.4865 22.3906C77.3771 22.7812 77.3225 23.2318 77.3225 23.7422V24.0703C77.3225 24.4714 77.3771 24.849 77.4865 25.2031C77.6011 25.5521 77.7652 25.8594 77.9787 26.125C78.1975 26.3906 78.4605 26.599 78.7678 26.75C79.0803 26.901 79.4344 26.9766 79.8303 26.9766C80.3407 26.9766 80.773 26.8724 81.1271 26.6641C81.4813 26.4557 81.7912 26.1771 82.0568 25.8281L82.9318 26.5234C82.7495 26.7995 82.5178 27.0625 82.2365 27.3125C81.9553 27.5625 81.6089 27.7656 81.1975 27.9219C80.7912 28.0781 80.3094 28.1562 79.7521 28.1562ZM88.4278 19.5469V20.6562H83.8575V19.5469H88.4278ZM85.4043 17.4922H86.8496V25.9062C86.8496 26.1927 86.8939 26.4089 86.9825 26.5547C87.071 26.7005 87.1856 26.7969 87.3262 26.8438C87.4668 26.8906 87.6179 26.9141 87.7793 26.9141C87.8991 26.9141 88.0241 26.9036 88.1543 26.8828C88.2898 26.8568 88.3913 26.8359 88.459 26.8203L88.4668 28C88.3523 28.0365 88.2012 28.0703 88.0137 28.1016C87.8314 28.138 87.6101 28.1562 87.3496 28.1562C86.9955 28.1562 86.67 28.0859 86.3731 27.9453C86.0762 27.8047 85.8392 27.5703 85.6621 27.2422C85.4903 26.9089 85.4043 26.4609 85.4043 25.8984V17.4922ZM93.7909 28.1562C93.2024 28.1562 92.6685 28.0573 92.1893 27.8594C91.7154 27.6562 91.3065 27.3724 90.9628 27.0078C90.6242 26.6432 90.3638 26.2109 90.1815 25.7109C89.9992 25.2109 89.9081 24.6641 89.9081 24.0703V23.7422C89.9081 23.0547 90.0096 22.4427 90.2128 21.9062C90.4159 21.3646 90.6919 20.9062 91.0409 20.5312C91.3899 20.1562 91.7857 19.8724 92.2284 19.6797C92.6711 19.487 93.1294 19.3906 93.6034 19.3906C94.2076 19.3906 94.7284 19.4948 95.1659 19.7031C95.6086 19.9115 95.9706 20.2031 96.2518 20.5781C96.5331 20.9479 96.7414 21.3854 96.8768 21.8906C97.0123 22.3906 97.08 22.9375 97.08 23.5312V24.1797H90.7675V23H95.6346V22.8906C95.6138 22.5156 95.5357 22.151 95.4003 21.7969C95.2701 21.4427 95.0617 21.151 94.7753 20.9219C94.4888 20.6927 94.0982 20.5781 93.6034 20.5781C93.2753 20.5781 92.9732 20.6484 92.6971 20.7891C92.4211 20.9245 92.1841 21.1276 91.9862 21.3984C91.7883 21.6693 91.6346 22 91.5253 22.3906C91.4159 22.7812 91.3612 23.2318 91.3612 23.7422V24.0703C91.3612 24.4714 91.4159 24.849 91.5253 25.2031C91.6399 25.5521 91.8039 25.8594 92.0175 26.125C92.2362 26.3906 92.4992 26.599 92.8065 26.75C93.119 26.901 93.4732 26.9766 93.869 26.9766C94.3794 26.9766 94.8117 26.8724 95.1659 26.6641C95.5201 26.4557 95.83 26.1771 96.0956 25.8281L96.9706 26.5234C96.7883 26.7995 96.5565 27.0625 96.2753 27.3125C95.994 27.5625 95.6477 27.7656 95.2362 27.9219C94.83 28.0781 94.3482 28.1562 93.7909 28.1562ZM104.256 26.3594V16H105.709V28H104.381L104.256 26.3594ZM98.5681 23.8672V23.7031C98.5681 23.0573 98.6462 22.4714 98.8025 21.9453C98.9639 21.4141 99.1905 20.9583 99.4821 20.5781C99.779 20.1979 100.131 19.9062 100.537 19.7031C100.948 19.4948 101.407 19.3906 101.912 19.3906C102.443 19.3906 102.907 19.4844 103.302 19.6719C103.704 19.8542 104.042 20.1224 104.318 20.4766C104.599 20.8255 104.821 21.2474 104.982 21.7422C105.144 22.237 105.256 22.7969 105.318 23.4219V24.1406C105.261 24.7604 105.149 25.3177 104.982 25.8125C104.821 26.3073 104.599 26.7292 104.318 27.0781C104.042 27.4271 103.704 27.6953 103.302 27.8828C102.901 28.0651 102.433 28.1562 101.896 28.1562C101.401 28.1562 100.948 28.0495 100.537 27.8359C100.131 27.6224 99.779 27.3229 99.4821 26.9375C99.1905 26.5521 98.9639 26.099 98.8025 25.5781C98.6462 25.0521 98.5681 24.4818 98.5681 23.8672ZM100.021 23.7031V23.8672C100.021 24.2891 100.063 24.6849 100.146 25.0547C100.235 25.4245 100.37 25.75 100.552 26.0312C100.735 26.3125 100.967 26.5339 101.248 26.6953C101.529 26.8516 101.865 26.9297 102.256 26.9297C102.735 26.9297 103.128 26.8281 103.435 26.625C103.748 26.4219 103.998 26.1536 104.185 25.8203C104.373 25.487 104.519 25.125 104.623 24.7344V22.8516C104.56 22.5651 104.469 22.2891 104.349 22.0234C104.235 21.7526 104.084 21.513 103.896 21.3047C103.714 21.0911 103.487 20.9219 103.217 20.7969C102.951 20.6719 102.636 20.6094 102.271 20.6094C101.875 20.6094 101.534 20.6927 101.248 20.8594C100.967 21.0208 100.735 21.2448 100.552 21.5312C100.37 21.8125 100.235 22.1406 100.146 22.5156C100.063 22.8854 100.021 23.2812 100.021 23.7031Z" fill="#B6B6B6"/>
<defs>
<filter id="filter0_d_286_34102" x="0.952148" y="0" width="131.691" height="53" filterUnits="userSpaceOnUse" color-interpolation-filters="sRGB">
<feFlood flood-opacity="0" result="BackgroundImageFix"/>
<feColorMatrix in="SourceAlpha" type="matrix" values="0 0 0 0 0 0 0 0 0 0 0 0 0 0 0 0 0 0 127 0" result="hardAlpha"/>
<feOffset dx="2" dy="2"/>
<feGaussianBlur stdDeviation="2"/>
<feComposite in2="hardAlpha" operator="out"/>
<feColorMatrix type="matrix" values="0 0 0 0 0 0 0 0 0 0 0 0 0 0 0 0 0 0 0.25 0"/>
<feBlend mode="normal" in2="BackgroundImageFix" result="effect1_dropShadow_286_34102"/>
<feBlend mode="normal" in="SourceGraphic" in2="effect1_dropShadow_286_34102" result="shape"/>
</filter>
</defs>
</svg>
