<svg width="133" height="53" viewBox="0 0 133 53" fill="none" xmlns="http://www.w3.org/2000/svg">
<g filter="url(#filter0_d_286_34098)">
<path d="M2.96191 2H108.604L126.653 24.5L108.604 47H2.96191L20.5827 24L2.96191 2Z" fill="#15BE06"/>
</g>
<path d="M36.0869 24.3828H37.5869C37.5088 25.1016 37.3031 25.7448 36.9697 26.3125C36.6364 26.8802 36.165 27.3307 35.5557 27.6641C34.9463 27.9922 34.1859 28.1562 33.2744 28.1562C32.6077 28.1562 32.001 28.0312 31.4541 27.7812C30.9124 27.5312 30.4463 27.1771 30.0557 26.7188C29.665 26.2552 29.363 25.7005 29.1494 25.0547C28.9411 24.4036 28.8369 23.6797 28.8369 22.8828V21.75C28.8369 20.9531 28.9411 20.2318 29.1494 19.5859C29.363 18.9349 29.6676 18.3776 30.0635 17.9141C30.4645 17.4505 30.9463 17.0938 31.5088 16.8438C32.0713 16.5938 32.7041 16.4688 33.4072 16.4688C34.2666 16.4688 34.9932 16.6302 35.5869 16.9531C36.1807 17.276 36.6416 17.724 36.9697 18.2969C37.3031 18.8646 37.5088 19.5234 37.5869 20.2734H36.0869C36.014 19.7422 35.8786 19.2865 35.6807 18.9062C35.4827 18.5208 35.2015 18.224 34.8369 18.0156C34.4723 17.8073 33.9958 17.7031 33.4072 17.7031C32.902 17.7031 32.4567 17.7995 32.0713 17.9922C31.6911 18.1849 31.3708 18.4583 31.1104 18.8125C30.8551 19.1667 30.6624 19.5911 30.5322 20.0859C30.402 20.5807 30.3369 21.1302 30.3369 21.7344V22.8828C30.3369 23.4401 30.3942 23.9635 30.5088 24.4531C30.6286 24.9427 30.8083 25.3724 31.0479 25.7422C31.2874 26.112 31.5921 26.4036 31.9619 26.6172C32.3317 26.8255 32.7692 26.9297 33.2744 26.9297C33.915 26.9297 34.4255 26.8281 34.8057 26.625C35.1859 26.4219 35.4723 26.1302 35.665 25.75C35.863 25.3698 36.0036 24.9141 36.0869 24.3828ZM39.2 23.8672V23.6875C39.2 23.0781 39.2886 22.513 39.4657 21.9922C39.6427 21.4661 39.898 21.0104 40.2313 20.625C40.5646 20.2344 40.9683 19.9323 41.4422 19.7188C41.9162 19.5 42.4474 19.3906 43.036 19.3906C43.6297 19.3906 44.1636 19.5 44.6375 19.7188C45.1167 19.9323 45.523 20.2344 45.8563 20.625C46.1948 21.0104 46.4526 21.4661 46.6297 21.9922C46.8068 22.513 46.8954 23.0781 46.8954 23.6875V23.8672C46.8954 24.4766 46.8068 25.0417 46.6297 25.5625C46.4526 26.0833 46.1948 26.5391 45.8563 26.9297C45.523 27.3151 45.1193 27.6172 44.6454 27.8359C44.1766 28.0495 43.6454 28.1562 43.0516 28.1562C42.4579 28.1562 41.924 28.0495 41.45 27.8359C40.9761 27.6172 40.5698 27.3151 40.2313 26.9297C39.898 26.5391 39.6427 26.0833 39.4657 25.5625C39.2886 25.0417 39.2 24.4766 39.2 23.8672ZM40.6454 23.6875V23.8672C40.6454 24.2891 40.6948 24.6875 40.7938 25.0625C40.8927 25.4323 41.0412 25.7604 41.2391 26.0469C41.4422 26.3333 41.6948 26.5599 41.9969 26.7266C42.299 26.888 42.6506 26.9688 43.0516 26.9688C43.4474 26.9688 43.7938 26.888 44.0907 26.7266C44.3927 26.5599 44.6427 26.3333 44.8407 26.0469C45.0386 25.7604 45.187 25.4323 45.286 25.0625C45.3901 24.6875 45.4422 24.2891 45.4422 23.8672V23.6875C45.4422 23.2708 45.3901 22.8776 45.286 22.5078C45.187 22.1328 45.036 21.8021 44.8329 21.5156C44.6349 21.224 44.3849 20.9948 44.0829 20.8281C43.786 20.6615 43.437 20.5781 43.036 20.5781C42.6401 20.5781 42.2912 20.6615 41.9891 20.8281C41.6922 20.9948 41.4422 21.224 41.2391 21.5156C41.0412 21.8021 40.8927 22.1328 40.7938 22.5078C40.6948 22.8776 40.6454 23.2708 40.6454 23.6875ZM50.3054 21.2266V28H48.8522V19.5469H50.2272L50.3054 21.2266ZM50.0085 23.4531L49.3366 23.4297C49.3418 22.8516 49.4173 22.3177 49.5632 21.8281C49.709 21.3333 49.9251 20.9036 50.2116 20.5391C50.4981 20.1745 50.8548 19.8932 51.2819 19.6953C51.709 19.4922 52.2038 19.3906 52.7663 19.3906C53.1621 19.3906 53.5267 19.4479 53.86 19.5625C54.1934 19.6719 54.4824 19.8464 54.7272 20.0859C54.972 20.3255 55.1621 20.6328 55.2975 21.0078C55.433 21.3828 55.5007 21.8359 55.5007 22.3672V28H54.0554V22.4375C54.0554 21.9948 53.9798 21.6406 53.8288 21.375C53.683 21.1094 53.4746 20.9167 53.2038 20.7969C52.933 20.6719 52.6152 20.6094 52.2507 20.6094C51.8236 20.6094 51.4668 20.6849 51.1804 20.8359C50.8939 20.987 50.6647 21.1953 50.4929 21.4609C50.321 21.7266 50.196 22.0312 50.1179 22.375C50.0449 22.7135 50.0085 23.0729 50.0085 23.4531ZM55.485 22.6562L54.5163 22.9531C54.5215 22.4896 54.597 22.0443 54.7429 21.6172C54.8939 21.1901 55.11 20.8099 55.3913 20.4766C55.6777 20.1432 56.0293 19.8802 56.446 19.6875C56.8626 19.4896 57.3392 19.3906 57.8757 19.3906C58.3288 19.3906 58.7298 19.4505 59.0788 19.5703C59.433 19.6901 59.7298 19.875 59.9694 20.125C60.2142 20.3698 60.3991 20.6849 60.5241 21.0703C60.6491 21.4557 60.7116 21.9141 60.7116 22.4453V28H59.2585V22.4297C59.2585 21.9557 59.183 21.5885 59.0319 21.3281C58.8861 21.0625 58.6777 20.8776 58.4069 20.7734C58.1413 20.6641 57.8236 20.6094 57.4538 20.6094C57.1361 20.6094 56.8548 20.6641 56.61 20.7734C56.3652 20.8828 56.1595 21.0339 55.9929 21.2266C55.8262 21.4141 55.6986 21.6302 55.61 21.875C55.5267 22.1198 55.485 22.3802 55.485 22.6562ZM64.5044 21.1719V31.25H63.0513V19.5469H64.3794L64.5044 21.1719ZM70.1997 23.7031V23.8672C70.1997 24.4818 70.1268 25.0521 69.981 25.5781C69.8351 26.099 69.6216 26.5521 69.3404 26.9375C69.0643 27.3229 68.7232 27.6224 68.3169 27.8359C67.9107 28.0495 67.4445 28.1562 66.9185 28.1562C66.382 28.1562 65.9081 28.0677 65.4966 27.8906C65.0851 27.7135 64.7362 27.4557 64.4497 27.1172C64.1633 26.7786 63.9341 26.3724 63.7622 25.8984C63.5956 25.4245 63.481 24.8906 63.4185 24.2969V23.4219C63.481 22.7969 63.5982 22.237 63.77 21.7422C63.9419 21.2474 64.1685 20.8255 64.4497 20.4766C64.7362 20.1224 65.0825 19.8542 65.4888 19.6719C65.895 19.4844 66.3638 19.3906 66.895 19.3906C67.4263 19.3906 67.8976 19.4948 68.3091 19.7031C68.7206 19.9062 69.0669 20.1979 69.3482 20.5781C69.6294 20.9583 69.8404 21.4141 69.981 21.9453C70.1268 22.4714 70.1997 23.0573 70.1997 23.7031ZM68.7466 23.8672V23.7031C68.7466 23.2812 68.7023 22.8854 68.6138 22.5156C68.5252 22.1406 68.3872 21.8125 68.1997 21.5312C68.0174 21.2448 67.7831 21.0208 67.4966 20.8594C67.2101 20.6927 66.869 20.6094 66.4732 20.6094C66.1086 20.6094 65.7909 20.6719 65.52 20.7969C65.2544 20.9219 65.0279 21.0911 64.8404 21.3047C64.6529 21.513 64.4992 21.7526 64.3794 22.0234C64.2648 22.2891 64.1789 22.5651 64.1216 22.8516V24.875C64.2258 25.2396 64.3716 25.5833 64.5591 25.9062C64.7466 26.224 64.9966 26.4818 65.3091 26.6797C65.6216 26.8724 66.0148 26.9688 66.4888 26.9688C66.8794 26.9688 67.2154 26.888 67.4966 26.7266C67.7831 26.5599 68.0174 26.3333 68.1997 26.0469C68.3872 25.7604 68.5252 25.4323 68.6138 25.0625C68.7023 24.6875 68.7466 24.2891 68.7466 23.8672ZM73.7738 16V28H72.3207V16H73.7738ZM79.7619 28.1562C79.1734 28.1562 78.6395 28.0573 78.1604 27.8594C77.6864 27.6562 77.2775 27.3724 76.9338 27.0078C76.5952 26.6432 76.3348 26.2109 76.1525 25.7109C75.9702 25.2109 75.8791 24.6641 75.8791 24.0703V23.7422C75.8791 23.0547 75.9807 22.4427 76.1838 21.9062C76.3869 21.3646 76.663 20.9062 77.0119 20.5312C77.3609 20.1562 77.7567 19.8724 78.1994 19.6797C78.6421 19.487 79.1005 19.3906 79.5744 19.3906C80.1786 19.3906 80.6994 19.4948 81.1369 19.7031C81.5796 19.9115 81.9416 20.2031 82.2229 20.5781C82.5041 20.9479 82.7124 21.3854 82.8479 21.8906C82.9833 22.3906 83.051 22.9375 83.051 23.5312V24.1797H76.7385V23H81.6057V22.8906C81.5848 22.5156 81.5067 22.151 81.3713 21.7969C81.2411 21.4427 81.0327 21.151 80.7463 20.9219C80.4598 20.6927 80.0692 20.5781 79.5744 20.5781C79.2463 20.5781 78.9442 20.6484 78.6682 20.7891C78.3921 20.9245 78.1551 21.1276 77.9572 21.3984C77.7593 21.6693 77.6057 22 77.4963 22.3906C77.3869 22.7812 77.3322 23.2318 77.3322 23.7422V24.0703C77.3322 24.4714 77.3869 24.849 77.4963 25.2031C77.6109 25.5521 77.7749 25.8594 77.9885 26.125C78.2072 26.3906 78.4702 26.599 78.7775 26.75C79.09 26.901 79.4442 26.9766 79.84 26.9766C80.3505 26.9766 80.7827 26.8724 81.1369 26.6641C81.4911 26.4557 81.801 26.1771 82.0666 25.8281L82.9416 26.5234C82.7593 26.7995 82.5275 27.0625 82.2463 27.3125C81.965 27.5625 81.6187 27.7656 81.2072 27.9219C80.801 28.0781 80.3192 28.1562 79.7619 28.1562ZM88.4375 19.5469V20.6562H83.8672V19.5469H88.4375ZM85.4141 17.4922H86.8594V25.9062C86.8594 26.1927 86.9037 26.4089 86.9922 26.5547C87.0808 26.7005 87.1954 26.7969 87.336 26.8438C87.4766 26.8906 87.6276 26.9141 87.7891 26.9141C87.9089 26.9141 88.0339 26.9036 88.1641 26.8828C88.2995 26.8568 88.4011 26.8359 88.4688 26.8203L88.4766 28C88.362 28.0365 88.211 28.0703 88.0235 28.1016C87.8412 28.138 87.6198 28.1562 87.3594 28.1562C87.0052 28.1562 86.6797 28.0859 86.3829 27.9453C86.086 27.8047 85.849 27.5703 85.6719 27.2422C85.5 26.9089 85.4141 26.4609 85.4141 25.8984V17.4922ZM93.8007 28.1562C93.2121 28.1562 92.6783 28.0573 92.1991 27.8594C91.7251 27.6562 91.3163 27.3724 90.9725 27.0078C90.634 26.6432 90.3736 26.2109 90.1913 25.7109C90.009 25.2109 89.9179 24.6641 89.9179 24.0703V23.7422C89.9179 23.0547 90.0194 22.4427 90.2225 21.9062C90.4257 21.3646 90.7017 20.9062 91.0507 20.5312C91.3996 20.1562 91.7955 19.8724 92.2382 19.6797C92.6809 19.487 93.1392 19.3906 93.6132 19.3906C94.2173 19.3906 94.7382 19.4948 95.1757 19.7031C95.6184 19.9115 95.9804 20.2031 96.2616 20.5781C96.5429 20.9479 96.7512 21.3854 96.8866 21.8906C97.022 22.3906 97.0897 22.9375 97.0897 23.5312V24.1797H90.7772V23H95.6444V22.8906C95.6236 22.5156 95.5455 22.151 95.41 21.7969C95.2798 21.4427 95.0715 21.151 94.785 20.9219C94.4986 20.6927 94.108 20.5781 93.6132 20.5781C93.285 20.5781 92.983 20.6484 92.7069 20.7891C92.4309 20.9245 92.1939 21.1276 91.996 21.3984C91.7981 21.6693 91.6444 22 91.535 22.3906C91.4257 22.7812 91.371 23.2318 91.371 23.7422V24.0703C91.371 24.4714 91.4257 24.849 91.535 25.2031C91.6496 25.5521 91.8137 25.8594 92.0272 26.125C92.246 26.3906 92.509 26.599 92.8163 26.75C93.1288 26.901 93.483 26.9766 93.8788 26.9766C94.3892 26.9766 94.8215 26.8724 95.1757 26.6641C95.5298 26.4557 95.8397 26.1771 96.1054 25.8281L96.9804 26.5234C96.7981 26.7995 96.5663 27.0625 96.285 27.3125C96.0038 27.5625 95.6574 27.7656 95.246 27.9219C94.8397 28.0781 94.358 28.1562 93.8007 28.1562ZM104.265 26.3594V16H105.718V28H104.39L104.265 26.3594ZM98.5779 23.8672V23.7031C98.5779 23.0573 98.656 22.4714 98.8122 21.9453C98.9737 21.4141 99.2002 20.9583 99.4919 20.5781C99.7888 20.1979 100.14 19.9062 100.547 19.7031C100.958 19.4948 101.416 19.3906 101.922 19.3906C102.453 19.3906 102.916 19.4844 103.312 19.6719C103.713 19.8542 104.052 20.1224 104.328 20.4766C104.609 20.8255 104.83 21.2474 104.992 21.7422C105.153 22.237 105.265 22.7969 105.328 23.4219V24.1406C105.271 24.7604 105.159 25.3177 104.992 25.8125C104.83 26.3073 104.609 26.7292 104.328 27.0781C104.052 27.4271 103.713 27.6953 103.312 27.8828C102.911 28.0651 102.442 28.1562 101.906 28.1562C101.411 28.1562 100.958 28.0495 100.547 27.8359C100.14 27.6224 99.7888 27.3229 99.4919 26.9375C99.2002 26.5521 98.9737 26.099 98.8122 25.5781C98.656 25.0521 98.5779 24.4818 98.5779 23.8672ZM100.031 23.7031V23.8672C100.031 24.2891 100.073 24.6849 100.156 25.0547C100.245 25.4245 100.38 25.75 100.562 26.0312C100.745 26.3125 100.976 26.5339 101.258 26.6953C101.539 26.8516 101.875 26.9297 102.265 26.9297C102.745 26.9297 103.138 26.8281 103.445 26.625C103.758 26.4219 104.008 26.1536 104.195 25.8203C104.383 25.487 104.528 25.125 104.633 24.7344V22.8516C104.57 22.5651 104.479 22.2891 104.359 22.0234C104.245 21.7526 104.093 21.513 103.906 21.3047C103.724 21.0911 103.497 20.9219 103.226 20.7969C102.961 20.6719 102.646 20.6094 102.281 20.6094C101.885 20.6094 101.544 20.6927 101.258 20.8594C100.976 21.0208 100.745 21.2448 100.562 21.5312C100.38 21.8125 100.245 22.1406 100.156 22.5156C100.073 22.8854 100.031 23.2812 100.031 23.7031Z" fill="white"/>
<defs>
<filter id="filter0_d_286_34098" x="0.961914" y="0" width="131.691" height="53" filterUnits="userSpaceOnUse" color-interpolation-filters="sRGB">
<feFlood flood-opacity="0" result="BackgroundImageFix"/>
<feColorMatrix in="SourceAlpha" type="matrix" values="0 0 0 0 0 0 0 0 0 0 0 0 0 0 0 0 0 0 127 0" result="hardAlpha"/>
<feOffset dx="2" dy="2"/>
<feGaussianBlur stdDeviation="2"/>
<feComposite in2="hardAlpha" operator="out"/>
<feColorMatrix type="matrix" values="0 0 0 0 0 0 0 0 0 0 0 0 0 0 0 0 0 0 0.25 0"/>
<feBlend mode="normal" in2="BackgroundImageFix" result="effect1_dropShadow_286_34098"/>
<feBlend mode="normal" in="SourceGraphic" in2="effect1_dropShadow_286_34098" result="shape"/>
</filter>
</defs>
</svg>
