<svg width="28" height="30" viewBox="0 0 28 30" fill="none" xmlns="http://www.w3.org/2000/svg">
<path d="M2 12.4C2 7.4977 2 5.0459 3.56267 3.5236C5.124 2 7.63867 2 12.6667 2H15.3333C20.3613 2 22.876 2 24.4373 3.5236C26 5.0459 26 7.4977 26 12.4V17.6C26 22.5023 26 24.9541 24.4373 26.4764C22.876 28 20.3613 28 15.3333 28H12.6667C7.63867 28 5.124 28 3.56267 26.4764C2 24.9541 2 22.5023 2 17.6V12.4Z" stroke="#5D6D79" stroke-width="1.875"/>
<path d="M6 14.9996C6 13.1614 6 12.2423 6.58667 11.6716C7.17067 11.0996 8.11333 11.0996 10 11.0996H18C19.8853 11.0996 20.828 11.0996 21.4133 11.6716C22 12.2423 22 13.1614 22 14.9996V20.1996C22 22.0378 22 22.9569 21.4133 23.5276C20.828 24.0996 19.8853 24.0996 18 24.0996H10C8.11467 24.0996 7.172 24.0996 6.58667 23.5276C6 22.9582 6 22.0391 6 20.1996V14.9996Z" stroke="#5D6D79" stroke-width="1.875"/>
<path d="M7.3335 7.19922H14.0002" stroke="#5D6D79" stroke-width="1.875" stroke-linecap="round"/>
</svg>
