<svg width="28" height="30" viewBox="0 0 28 30" fill="none" xmlns="http://www.w3.org/2000/svg">
<path fill-rule="evenodd" clip-rule="evenodd" d="M1.5 12.2C1.5 6.9206 1.5 4.2802 3.12778 2.6408C4.75417 1 7.37361 1 12.6111 1H15.3889C20.6264 1 23.2458 1 24.8722 2.6408C26.5 4.2802 26.5 6.9206 26.5 12.2V17.8C26.5 23.0794 26.5 25.7198 24.8722 27.3592C23.2458 29 20.6264 29 15.3889 29H12.6111C7.37361 29 4.75417 29 3.12778 27.3592C1.5 25.7198 1.5 23.0794 1.5 17.8V12.2ZM5.66667 15C5.66667 13.0204 5.66667 12.0306 6.27778 11.416C6.88611 10.8 7.86806 10.8 9.83333 10.8H18.1667C20.1306 10.8 21.1125 10.8 21.7222 11.416C22.3333 12.0306 22.3333 13.0204 22.3333 15V20.6C22.3333 22.5796 22.3333 23.5694 21.7222 24.184C21.1125 24.8 20.1306 24.8 18.1667 24.8H9.83333C7.86944 24.8 6.8875 24.8 6.27778 24.184C5.66667 23.5708 5.66667 22.581 5.66667 20.6V15ZM7.05556 5.55C6.77929 5.55 6.51434 5.66062 6.31899 5.85754C6.12364 6.05445 6.01389 6.32152 6.01389 6.6C6.01389 6.87848 6.12364 7.14555 6.31899 7.34246C6.51434 7.53938 6.77929 7.65 7.05556 7.65H14C14.2763 7.65 14.5412 7.53938 14.7366 7.34246C14.9319 7.14555 15.0417 6.87848 15.0417 6.6C15.0417 6.32152 14.9319 6.05445 14.7366 5.85754C14.5412 5.66062 14.2763 5.55 14 5.55H7.05556Z" fill="white"/>
</svg>
