<svg width="30" height="18" viewBox="0 0 30 18" fill="none" xmlns="http://www.w3.org/2000/svg">
<path d="M15 0C13.8397 0 12.7269 0.460936 11.9064 1.28141C11.0859 2.10188 10.625 3.21468 10.625 4.375C10.625 5.53532 11.0859 6.64812 11.9064 7.46859C12.7269 8.28906 13.8397 8.75 15 8.75C16.1603 8.75 17.2731 8.28906 18.0936 7.46859C18.9141 6.64812 19.375 5.53532 19.375 4.375C19.375 3.21468 18.9141 2.10188 18.0936 1.28141C17.2731 0.460936 16.1603 0 15 0ZM15 2.5C15.4973 2.5 15.9742 2.69754 16.3258 3.04917C16.6775 3.40081 16.875 3.87772 16.875 4.375C16.875 4.87228 16.6775 5.34919 16.3258 5.70083C15.9742 6.05246 15.4973 6.25 15 6.25C14.5027 6.25 14.0258 6.05246 13.6742 5.70083C13.3225 5.34919 13.125 4.87228 13.125 4.375C13.125 3.87772 13.3225 3.40081 13.6742 3.04917C14.0258 2.69754 14.5027 2.5 15 2.5ZM6.875 3.75C6.0462 3.75 5.25134 4.07924 4.66529 4.66529C4.07924 5.25134 3.75 6.0462 3.75 6.875C3.75 8.05 4.4125 9.0625 5.3625 9.6C5.8125 9.85 6.325 10 6.875 10C7.425 10 7.9375 9.85 8.3875 9.6C8.85 9.3375 9.2375 8.9625 9.525 8.5125C8.61435 7.32571 8.12209 5.8709 8.125 4.375V4.025C7.75 3.85 7.325 3.75 6.875 3.75ZM23.125 3.75C22.675 3.75 22.25 3.85 21.875 4.025V4.375C21.875 5.875 21.3875 7.325 20.475 8.5125C20.625 8.75 20.7875 8.9375 20.975 9.125C21.5514 9.68388 22.3221 9.99752 23.125 10C23.675 10 24.1875 9.85 24.6375 9.6C25.5875 9.0625 26.25 8.05 26.25 6.875C26.25 6.0462 25.9208 5.25134 25.3347 4.66529C24.7487 4.07924 23.9538 3.75 23.125 3.75ZM15 11.25C12.075 11.25 6.25 12.7125 6.25 15.625V17.5H23.75V15.625C23.75 12.7125 17.925 11.25 15 11.25ZM5.8875 11.9375C3.475 12.225 0 13.45 0 15.625V17.5H3.75V15.0875C3.75 13.825 4.6125 12.775 5.8875 11.9375ZM24.1125 11.9375C25.3875 12.775 26.25 13.825 26.25 15.0875V17.5H30V15.625C30 13.45 26.525 12.225 24.1125 11.9375ZM15 13.75C16.9125 13.75 19.05 14.375 20.2875 15H9.7125C10.95 14.375 13.0875 13.75 15 13.75Z" fill="white"/>
</svg>
