<svg width="26" height="28" viewBox="0 0 26 28" fill="none" xmlns="http://www.w3.org/2000/svg">
<path d="M1.75 11.5C1.75 6.78625 1.75 4.42875 3.215 2.965C4.67875 1.5 7.03625 1.5 11.75 1.5H14.25C18.9637 1.5 21.3212 1.5 22.785 2.965C24.25 4.42875 24.25 6.78625 24.25 11.5V16.5C24.25 21.2137 24.25 23.5712 22.785 25.035C21.3212 26.5 18.9637 26.5 14.25 26.5H11.75C7.03625 26.5 4.67875 26.5 3.215 25.035C1.75 23.5712 1.75 21.2137 1.75 16.5V11.5Z" stroke="#5D6D79" stroke-width="1.875"/>
<path d="M5.5 14C5.5 12.2325 5.5 11.3487 6.05 10.8C6.5975 10.25 7.48125 10.25 9.25 10.25H16.75C18.5175 10.25 19.4012 10.25 19.95 10.8C20.5 11.3487 20.5 12.2325 20.5 14V19C20.5 20.7675 20.5 21.6512 19.95 22.2C19.4012 22.75 18.5175 22.75 16.75 22.75H9.25C7.4825 22.75 6.59875 22.75 6.05 22.2C5.5 21.6525 5.5 20.7687 5.5 19V14Z" stroke="#5D6D79" stroke-width="1.875"/>
<path d="M6.75 6.5H13" stroke="#5D6D79" stroke-width="1.875" stroke-linecap="round"/>
</svg>
