<svg width="24" height="26" viewBox="0 0 24 26" fill="none" xmlns="http://www.w3.org/2000/svg">
<path fill-rule="evenodd" clip-rule="evenodd" d="M0.75 10.5C0.75 5.78625 0.75 3.42875 2.215 1.965C3.67875 0.5 6.03625 0.5 10.75 0.5H13.25C17.9637 0.5 20.3212 0.5 21.785 1.965C23.25 3.42875 23.25 5.78625 23.25 10.5V15.5C23.25 20.2137 23.25 22.5712 21.785 24.035C20.3212 25.5 17.9637 25.5 13.25 25.5H10.75C6.03625 25.5 3.67875 25.5 2.215 24.035C0.75 22.5712 0.75 20.2137 0.75 15.5V10.5ZM4.5 13C4.5 11.2325 4.5 10.3487 5.05 9.8C5.5975 9.25 6.48125 9.25 8.25 9.25H15.75C17.5175 9.25 18.4012 9.25 18.95 9.8C19.5 10.3487 19.5 11.2325 19.5 13V18C19.5 19.7675 19.5 20.6512 18.95 21.2C18.4012 21.75 17.5175 21.75 15.75 21.75H8.25C6.4825 21.75 5.59875 21.75 5.05 21.2C4.5 20.6525 4.5 19.7687 4.5 18V13ZM5.75 4.5625C5.50136 4.5625 5.2629 4.66127 5.08709 4.83709C4.91127 5.0129 4.8125 5.25136 4.8125 5.5C4.8125 5.74864 4.91127 5.9871 5.08709 6.16291C5.2629 6.33873 5.50136 6.4375 5.75 6.4375H12C12.2486 6.4375 12.4871 6.33873 12.6629 6.16291C12.8387 5.9871 12.9375 5.74864 12.9375 5.5C12.9375 5.25136 12.8387 5.0129 12.6629 4.83709C12.4871 4.66127 12.2486 4.5625 12 4.5625H5.75Z" fill="white"/>
</svg>
