<svg width="30" height="30" viewBox="0 0 30 30" fill="none" xmlns="http://www.w3.org/2000/svg">
<path fill-rule="evenodd" clip-rule="evenodd" d="M10.3125 8.4375C10.3125 5.84867 12.4112 3.75 15 3.75C17.5888 3.75 19.6875 5.84867 19.6875 8.4375C19.6875 11.0263 17.5888 13.125 15 13.125C12.4112 13.125 10.3125 11.0263 10.3125 8.4375Z" fill="#04AA9C"/>
<path fill-rule="evenodd" clip-rule="evenodd" d="M19.6875 12.1875C19.6875 10.1164 21.3664 8.4375 23.4375 8.4375C25.5086 8.4375 27.1875 10.1164 27.1875 12.1875C27.1875 14.2586 25.5086 15.9375 23.4375 15.9375C21.3664 15.9375 19.6875 14.2586 19.6875 12.1875Z" fill="#04AA9C"/>
<path fill-rule="evenodd" clip-rule="evenodd" d="M2.8125 12.1875C2.8125 10.1164 4.49143 8.4375 6.5625 8.4375C8.63357 8.4375 10.3125 10.1164 10.3125 12.1875C10.3125 14.2586 8.63357 15.9375 6.5625 15.9375C4.49143 15.9375 2.8125 14.2586 2.8125 12.1875Z" fill="#04AA9C"/>
<path fill-rule="evenodd" clip-rule="evenodd" d="M7.88733 18.8969C9.38479 16.5555 12.0104 15 15 15C17.9899 15 20.6159 16.5559 22.1132 18.8978C23.1484 20.5168 23.5963 22.469 23.3862 24.3724C23.3534 24.6699 23.1805 24.9338 22.9209 25.0827C20.5868 26.422 17.8814 27.1875 15 27.1875C12.1186 27.1875 9.41324 26.422 7.07906 25.0827C6.81949 24.9338 6.64662 24.6699 6.61379 24.3724C6.40367 22.4686 6.85176 20.5161 7.88733 18.8969Z" fill="#04AA9C"/>
<path d="M6.35285 17.8171C6.3378 17.8402 6.32284 17.8634 6.30797 17.8867C5.10114 19.7736 4.54885 22.0208 4.71839 24.2363C3.95834 24.1208 3.22087 23.9351 2.51303 23.6858L2.36934 23.6352C2.1072 23.5429 1.92403 23.3048 1.90199 23.0278L1.8899 22.8759C1.88002 22.7517 1.875 22.6264 1.875 22.5C1.875 19.9814 3.86131 17.9268 6.35285 17.8171Z" fill="#04AA9C"/>
<path d="M25.282 24.2362C25.4515 22.0212 24.8995 19.7745 23.6931 17.8877C23.6781 17.8641 23.6629 17.8406 23.6476 17.8171C26.1389 17.927 28.125 19.9816 28.125 22.5C28.125 22.6264 28.12 22.7518 28.1101 22.8759L28.098 23.0278C28.076 23.3048 27.8928 23.5429 27.6307 23.6352L27.487 23.6858C26.7793 23.9351 26.0419 24.1207 25.282 24.2362Z" fill="#04AA9C"/>
</svg>
