<svg width="27" height="24" viewBox="0 0 27 24" fill="none" xmlns="http://www.w3.org/2000/svg">
<path fill-rule="evenodd" clip-rule="evenodd" d="M8.4375 4.6875C8.4375 2.09867 10.5362 0 13.125 0C15.7138 0 17.8125 2.09867 17.8125 4.6875C17.8125 7.27633 15.7138 9.375 13.125 9.375C10.5362 9.375 8.4375 7.27633 8.4375 4.6875Z" fill="#04AA9C"/>
<path fill-rule="evenodd" clip-rule="evenodd" d="M17.8125 8.4375C17.8125 6.36643 19.4914 4.6875 21.5625 4.6875C23.6336 4.6875 25.3125 6.36643 25.3125 8.4375C25.3125 10.5086 23.6336 12.1875 21.5625 12.1875C19.4914 12.1875 17.8125 10.5086 17.8125 8.4375Z" fill="#04AA9C"/>
<path fill-rule="evenodd" clip-rule="evenodd" d="M0.9375 8.4375C0.9375 6.36643 2.61643 4.6875 4.6875 4.6875C6.75857 4.6875 8.4375 6.36643 8.4375 8.4375C8.4375 10.5086 6.75857 12.1875 4.6875 12.1875C2.61643 12.1875 0.9375 10.5086 0.9375 8.4375Z" fill="#04AA9C"/>
<path fill-rule="evenodd" clip-rule="evenodd" d="M6.01233 15.1469C7.50979 12.8055 10.1354 11.25 13.125 11.25C16.1149 11.25 18.7409 12.8059 20.2382 15.1478C21.2734 16.7668 21.7213 18.719 21.5112 20.6224C21.4784 20.9199 21.3055 21.1838 21.0459 21.3327C18.7118 22.672 16.0064 23.4375 13.125 23.4375C10.2436 23.4375 7.53824 22.672 5.20406 21.3327C4.94449 21.1838 4.77162 20.9199 4.73879 20.6224C4.52867 18.7186 4.97676 16.7661 6.01233 15.1469Z" fill="#04AA9C"/>
<path d="M4.47785 14.0671C4.4628 14.0902 4.44784 14.1134 4.43297 14.1367C3.22614 16.0236 2.67385 18.2708 2.84339 20.4863C2.08334 20.3708 1.34587 20.1851 0.638035 19.9358L0.494337 19.8852C0.232198 19.7929 0.0490343 19.5548 0.0269887 19.2778L0.0149039 19.1259C0.00502143 19.0017 0 18.8764 0 18.75C0 16.2314 1.98631 14.1768 4.47785 14.0671Z" fill="#04AA9C"/>
<path d="M23.407 20.4862C23.5765 18.2712 23.0245 16.0245 21.8182 14.1377C21.8031 14.1141 21.7879 14.0906 21.7726 14.0671C24.2639 14.177 26.25 16.2316 26.25 18.75C26.25 18.8764 26.245 19.0018 26.2351 19.1259L26.223 19.2778C26.201 19.5548 26.0178 19.7929 25.7557 19.8852L25.612 19.9358C24.9043 20.1851 24.1669 20.3707 23.407 20.4862Z" fill="#04AA9C"/>
</svg>
