<svg width="30" height="28" viewBox="0 0 30 30" fill="none" xmlns="http://www.w3.org/2000/svg">
<path d="M22.5 23.3989C22.8094 23.4245 23.1223 23.4375 23.4383 23.4375C24.7487 23.4375 26.0068 23.2135 27.1763 22.8016C27.1842 22.7021 27.1883 22.6015 27.1883 22.5C27.1883 20.4289 25.5093 18.75 23.4383 18.75C22.6538 18.75 21.9255 18.9909 21.3235 19.4028M22.5 23.3989C22.5 23.4118 22.5001 23.4246 22.5001 23.4375C22.5001 23.7187 22.4846 23.9964 22.4544 24.2696C20.2585 25.5296 17.7134 26.25 15.0001 26.25C12.2867 26.25 9.74165 25.5296 7.54569 24.2696C7.51554 23.9964 7.50006 23.7187 7.50006 23.4375C7.50006 23.4247 7.50009 23.4119 7.50016 23.3991M22.5 23.3989C22.4926 21.9282 22.0619 20.5577 21.3235 19.4028M21.3235 19.4028C19.9911 17.319 17.6569 15.9375 15.0001 15.9375C12.3436 15.9375 10.0096 17.3186 8.67717 19.402M8.67717 19.402C8.07535 18.9906 7.34751 18.75 6.56348 18.75C4.49241 18.75 2.81348 20.4289 2.81348 22.5C2.81348 22.6015 2.81751 22.7021 2.82543 22.8016C3.99497 23.2135 5.25306 23.4375 6.56348 23.4375C6.8789 23.4375 7.1913 23.4245 7.50016 23.3991M8.67717 19.402C7.93844 20.5571 7.50754 21.928 7.50016 23.3991M18.7501 8.4375C18.7501 10.5086 17.0711 12.1875 15.0001 12.1875C12.929 12.1875 11.2501 10.5086 11.2501 8.4375C11.2501 6.36643 12.929 4.6875 15.0001 4.6875C17.0711 4.6875 18.7501 6.36643 18.7501 8.4375ZM26.2501 12.1875C26.2501 13.7408 24.9909 15 23.4376 15C21.8843 15 20.6251 13.7408 20.6251 12.1875C20.6251 10.6342 21.8843 9.375 23.4376 9.375C24.9909 9.375 26.2501 10.6342 26.2501 12.1875ZM9.37506 12.1875C9.37506 13.7408 8.11586 15 6.56256 15C5.00926 15 3.75006 13.7408 3.75006 12.1875C3.75006 10.6342 5.00926 9.375 6.56256 9.375C8.11586 9.375 9.37506 10.6342 9.37506 12.1875Z" stroke="#5D6D79" stroke-width="2.5" stroke-linecap="round" stroke-linejoin="round"/>
</svg>
