<svg width="34" height="34" viewBox="0 0 34 34" fill="none" xmlns="http://www.w3.org/2000/svg">
<rect width="34" height="34" rx="5" fill="#04AA9C"/>
<path d="M27 8H7C6.46957 8 5.96086 8.21071 5.58579 8.58579C5.21071 8.96086 5 9.46957 5 10V24C5 24.5304 5.21071 25.0391 5.58579 25.4142C5.96086 25.7893 6.46957 26 7 26H27C27.5304 26 28.0391 25.7893 28.4142 25.4142C28.7893 25.0391 29 24.5304 29 24V10C29 9.46957 28.7893 8.96086 28.4142 8.58579C28.0391 8.21071 27.5304 8 27 8ZM27 24H7V10H27V24ZM24 23L26 21L24.5 19H22.85C22.63 18.37 22.5 17.7 22.5 17C22.5 16.3 22.63 15.63 22.85 15H24.5L26 13L24 11C22.7 12 21.73 13.38 21.28 15C21.1 15.64 21 16.31 21 17C21 17.69 21.1 18.36 21.28 19C21.73 20.61 22.7 22 24 23ZM14 17C14.7956 17 15.5587 16.6839 16.1213 16.1213C16.6839 15.5587 17 14.7956 17 14C17 13.2044 16.6839 12.4413 16.1213 11.8787C15.5587 11.3161 14.7956 11 14 11C13.2044 11 12.4413 11.3161 11.8787 11.8787C11.3161 12.4413 11 13.2044 11 14C11 14.7956 11.3161 15.5587 11.8787 16.1213C12.4413 16.6839 13.2044 17 14 17ZM14 13C14.2652 13 14.5196 13.1054 14.7071 13.2929C14.8946 13.4804 15 13.7348 15 14C15 14.2652 14.8946 14.5196 14.7071 14.7071C14.5196 14.8946 14.2652 15 14 15C13.7348 15 13.4804 14.8946 13.2929 14.7071C13.1054 14.5196 13 14.2652 13 14C13 13.7348 13.1054 13.4804 13.2929 13.2929C13.4804 13.1054 13.7348 13 14 13ZM20 21.59C20 19.09 16.03 18 14 18C11.97 18 8 19.09 8 21.59V23H20V21.59ZM10.5 21C11.22 20.5 12.7 20 14 20C15.3 20 16.77 20.5 17.5 21H10.5Z" fill="white"/>
</svg>
