<svg width="26" height="26" viewBox="0 0 26 26" fill="none" xmlns="http://www.w3.org/2000/svg">
<path d="M15.4 18.5H17.8V15.75H20.2V13H17.8V10.25H15.4V13H13V15.75H15.4V18.5ZM3.4 24C2.74 24 2.1748 23.7305 1.7044 23.1915C1.234 22.6525 0.999202 22.0053 1 21.25V4.75C1 3.99375 1.2352 3.34613 1.7056 2.80713C2.176 2.26813 2.7408 1.99909 3.4 2H10.6L13 4.75H22.6C23.26 4.75 23.8252 5.0195 24.2956 5.5585C24.766 6.0975 25.0008 6.74467 25 7.5V21.25C25 22.0063 24.7648 22.6539 24.2944 23.1929C23.824 23.7319 23.2592 24.0009 22.6 24H3.4ZM3.4 4.75V21.25H22.6V7.5H12.01L9.61 4.75H3.4Z" fill="#5D6D79"/>
</svg>
