<svg width="23" height="25" viewBox="0 0 23 28" fill="none" xmlns="http://www.w3.org/2000/svg">
<path d="M20.75 17V13.7188C20.75 11.3888 18.8612 9.5 16.5312 9.5H14.6562C13.8796 9.5 13.25 8.8704 13.25 8.09375V6.21875C13.25 3.8888 11.3612 2 9.03125 2H6.6875M11.375 13.25V20.75M15.125 17H7.625M9.5 2H3.40625C2.6296 2 2 2.6296 2 3.40625V24.9688C2 25.7454 2.6296 26.375 3.40625 26.375H19.3438C20.1204 26.375 20.75 25.7454 20.75 24.9688V13.25C20.75 7.0368 15.7132 2 9.5 2Z" stroke="#5D6D79" stroke-width="3" stroke-linecap="round" stroke-linejoin="round"/>
</svg>
