<svg width="55" height="55" viewBox="0 0 55 55" fill="none" xmlns="http://www.w3.org/2000/svg">
<path d="M28.9583 33.3333H27.5V27.5H26.0417M27.5 21.6667H27.5146M40.625 27.5C40.625 29.2236 40.2855 30.9303 39.6259 32.5227C38.9663 34.1151 37.9995 35.562 36.7808 36.7808C35.562 37.9995 34.1151 38.9663 32.5227 39.6259C30.9303 40.2855 29.2236 40.625 27.5 40.625C25.7764 40.625 24.0697 40.2855 22.4773 39.6259C20.8849 38.9663 19.438 37.9995 18.2192 36.7808C17.0005 35.562 16.0337 34.1151 15.3741 32.5227C14.7145 30.9303 14.375 29.2236 14.375 27.5C14.375 24.019 15.7578 20.6806 18.2192 18.2192C20.6806 15.7578 24.019 14.375 27.5 14.375C30.981 14.375 34.3194 15.7578 36.7808 18.2192C39.2422 20.6806 40.625 24.019 40.625 27.5Z" stroke="#04AA9C" stroke-width="2" stroke-linecap="round" stroke-linejoin="round"/>
</svg>
