<svg xmlns="http://www.w3.org/2000/svg" xmlns:xlink="http://www.w3.org/1999/xlink" width="1024" zoomAndPan="magnify" viewBox="0 0 768 576" height="768" preserveAspectRatio="xMidYMid meet" version="1.0"><defs><clipPath id="f9b09b0043"><path d="M 105.425781 9.425781 L 662.675781 9.425781 L 662.675781 566.675781 L 105.425781 566.675781 Z M 105.425781 9.425781 " clip-rule="nonzero"/></clipPath></defs><rect x="-76.8" width="921.6" fill="#ffffff" y="-57.6" height="691.2" fill-opacity="1"/><rect x="-76.8" width="921.6" fill="#ffffff" y="-57.6" height="691.2" fill-opacity="1"/><rect x="-76.8" width="921.6" fill="#ffffff" y="-57.6" height="691.2" fill-opacity="1"/><g clip-path="url(#f9b09b0043)"><path fill="#04aa9c" d="M 384.050781 9.425781 C 230.417969 9.425781 105.425781 134.417969 105.425781 288.050781 C 105.425781 371.984375 142.789062 447.308594 201.683594 498.433594 C 202.328125 499.226562 203.117188 499.894531 204.011719 500.449219 C 252.613281 541.710938 315.453125 566.675781 384.050781 566.675781 C 452.65625 566.675781 515.507812 541.699219 564.113281 500.433594 C 564.984375 499.882812 565.769531 499.230469 566.402344 498.445312 C 625.308594 447.320312 662.675781 371.992188 662.675781 288.050781 C 662.675781 134.417969 537.6875 9.425781 384.050781 9.425781 Z M 219.8125 489.496094 C 243.558594 420.035156 310.125 371.96875 384.015625 371.957031 C 384.027344 371.957031 384.039062 371.957031 384.046875 371.957031 C 384.058594 371.957031 384.0625 371.957031 384.078125 371.957031 C 457.972656 371.96875 524.535156 420.035156 548.28125 489.503906 C 503.46875 526.101562 446.289062 548.101562 384.050781 548.101562 C 321.8125 548.101562 264.625 526.101562 219.8125 489.496094 Z M 384.019531 353.375 C 327.949219 353.355469 282.328125 307.730469 282.328125 251.652344 C 282.328125 195.5625 327.960938 149.929688 384.050781 149.929688 C 440.140625 149.929688 485.773438 195.5625 485.773438 251.652344 C 485.773438 307.730469 440.160156 353.355469 384.082031 353.375 C 384.070312 353.375 384.058594 353.375 384.046875 353.375 C 384.039062 353.375 384.027344 353.375 384.019531 353.375 Z M 563.308594 476.179688 C 541.214844 419.316406 492.757812 376.617188 434.960938 360.496094 C 475.878906 341.273438 504.351562 299.777344 504.351562 251.65625 C 504.351562 185.324219 450.382812 131.359375 384.050781 131.359375 C 317.71875 131.359375 263.753906 185.324219 263.753906 251.65625 C 263.753906 299.777344 292.222656 341.273438 333.144531 360.496094 C 275.34375 376.617188 226.890625 419.316406 204.796875 476.179688 C 155.078125 428.78125 124 362 124 288.050781 C 124 144.660156 240.660156 28 384.050781 28 C 527.445312 28 644.101562 144.660156 644.101562 288.050781 C 644.101562 362 613.027344 428.789062 563.308594 476.179688 Z M 563.308594 476.179688 " fill-opacity="1" fill-rule="nonzero"/></g></svg>