<svg width="70" height="70" viewBox="0 0 70 70" fill="none" xmlns="http://www.w3.org/2000/svg">
<path d="M29.6507 10.3628C29.9276 10.4568 30.1995 10.5705 30.4641 10.6991L33.6359 12.2615C34.0604 12.4705 34.5273 12.5792 35.0005 12.5792C35.4737 12.5792 35.9406 12.4705 36.3652 12.2615L39.537 10.6991C41.1546 9.90339 43.022 9.78274 44.7285 10.3636C46.435 10.9445 47.841 12.1794 48.6372 13.7968L48.8201 14.1973L48.9759 14.6101L50.1131 17.9551C50.4221 18.8649 51.1366 19.5769 52.0439 19.8859L55.3912 21.0231C56.3069 21.3347 57.1455 21.838 57.8511 22.4994C58.5567 23.1609 59.1131 23.9653 59.483 24.859C59.8529 25.7526 60.028 26.7149 59.9964 27.6816C59.9648 28.6482 59.7273 29.597 59.2998 30.4646L57.7398 33.6365C57.5309 34.0611 57.4222 34.528 57.4222 35.0012C57.4222 35.4744 57.5309 35.9413 57.7398 36.3658L59.2998 39.5377C59.7269 40.4052 59.964 41.3538 59.9954 42.3202C60.0268 43.2865 59.8516 44.2485 59.4817 45.1418C59.1118 46.0352 58.5556 46.8393 57.8502 47.5006C57.1449 48.1619 56.3065 48.6652 55.3912 48.9767L52.0439 50.114C51.5961 50.2667 51.1894 50.5202 50.8551 50.855C50.5207 51.1898 50.2677 51.5968 50.1156 52.0448L48.9759 55.3922C48.6643 56.3075 48.1611 57.1458 47.4998 57.8512C46.8385 58.5566 46.0344 59.1128 45.141 59.4828C44.2477 59.8527 43.2858 60.0278 42.3194 59.9964C41.353 59.965 40.4045 59.7279 39.537 59.3008L36.3652 57.7408C35.9406 57.5319 35.4737 57.4232 35.0005 57.4232C34.5273 57.4232 34.0604 57.5319 33.6359 57.7408L30.4641 59.3008C29.5966 59.7279 28.648 59.965 27.6817 59.9964C26.7153 60.0278 25.7534 59.8527 24.86 59.4828C23.9667 59.1128 23.1626 58.5566 22.5013 57.8512C21.84 57.1458 21.3368 56.3075 21.0252 55.3922L19.888 52.0448C19.735 51.5967 19.4811 51.1899 19.1459 50.8555C18.8107 50.5212 18.4031 50.2683 17.9547 50.1164L14.6098 48.9767C13.6943 48.6654 12.8557 48.1624 12.1501 47.5012C11.4445 46.84 10.888 46.0359 10.5178 45.1425C10.1477 44.2492 9.97233 43.2871 10.0035 42.3206C10.0348 41.3541 10.2718 40.4053 10.6988 39.5377L12.2612 36.3658C12.4702 35.9413 12.5789 35.4744 12.5789 35.0012C12.5789 34.528 12.4702 34.0611 12.2612 33.6365L10.6988 30.4646C10.2718 29.597 10.0348 28.6483 10.0035 27.6818C9.97233 26.7152 10.1477 25.7532 10.5178 24.8598C10.888 23.9665 11.4445 23.1623 12.1501 22.5012C12.8557 21.84 13.6943 21.3369 14.6098 21.0256L17.9547 19.8884C18.4032 19.7357 18.8106 19.4819 19.1454 19.1467C19.4802 18.8115 19.7334 18.4038 19.8855 17.9551L21.0227 14.6101C21.3102 13.7646 21.7614 12.984 22.3507 12.3129C22.9399 11.6418 23.6556 11.0934 24.4568 10.699C25.258 10.3046 26.1291 10.0719 27.0203 10.0142C27.9115 9.95652 28.8053 10.075 29.6507 10.3628ZM43.5766 27.5078L30.1797 40.9074L25.2996 35.0481C25.146 34.8545 24.9551 34.6935 24.7383 34.5746C24.5215 34.4558 24.2831 34.3816 24.0372 34.3562C23.7912 34.3309 23.5427 34.355 23.3062 34.4271C23.0698 34.4992 22.8501 34.6179 22.6602 34.7762C22.4702 34.9345 22.3139 35.1292 22.2003 35.3488C22.0867 35.5684 22.0182 35.8085 21.9987 36.0549C21.9793 36.3014 22.0094 36.5493 22.0872 36.784C22.1649 37.0187 22.2889 37.2354 22.4517 37.4215L28.6322 44.8382C28.7969 45.0361 29.0011 45.1975 29.2317 45.3121C29.4623 45.4267 29.7143 45.492 29.9715 45.5038C30.2287 45.5157 30.4856 45.4738 30.7258 45.381C30.9659 45.2881 31.1841 45.1462 31.3664 44.9643L46.1996 30.1309C46.3818 29.9611 46.5279 29.7564 46.6292 29.529C46.7306 29.3015 46.7851 29.056 46.7894 28.807C46.7938 28.5581 46.748 28.3108 46.6548 28.0799C46.5615 27.849 46.4227 27.6393 46.2467 27.4632C46.0706 27.2872 45.8609 27.1483 45.63 27.0551C45.3991 26.9618 45.1518 26.916 44.9029 26.9204C44.6539 26.9248 44.4084 26.9793 44.181 27.0807C43.9535 27.182 43.7488 27.3281 43.5791 27.5103L43.5766 27.5078Z" fill="#04AA9C"/>
</svg>
