<svg width="41" height="41" viewBox="0 0 41 41" fill="none" xmlns="http://www.w3.org/2000/svg">
<rect width="40.75" height="40.375" rx="20.1875" fill="white"/>
<path d="M29.75 23V19.7188C29.75 17.3888 27.8612 15.5 25.5312 15.5H23.6562C22.8796 15.5 22.25 14.8704 22.25 14.0938V12.2188C22.25 9.8888 20.3612 8 18.0312 8H15.6875M20.375 19.25V26.75M24.125 23H16.625M18.5 8H12.4062C11.6296 8 11 8.6296 11 9.40625V30.9688C11 31.7454 11.6296 32.375 12.4062 32.375H28.3438C29.1204 32.375 29.75 31.7454 29.75 30.9688V19.25C29.75 13.0368 24.7132 8 18.5 8Z" stroke="#5D6D79" stroke-width="3" stroke-linecap="round" stroke-linejoin="round"/>
<rect x="0.5" y="0.5" width="39.75" height="39.375" rx="19.6875" stroke="black" stroke-opacity="0.1"/>
</svg>
