<svg width="50" height="50" viewBox="0 0 50 50" fill="none" xmlns="http://www.w3.org/2000/svg">
<path d="M36.2942 10C35.3364 10 34.3948 10.3755 33.6723 11.0964L21.269 23.4543L20.9935 23.7297L20.9184 24.1214L20.0544 28.5019L19.6663 30.3392L21.5031 29.9512L25.8855 29.0876L26.2774 29.0125L26.5528 28.7372L38.9161 16.3392C39.4339 15.8198 39.7864 15.1588 39.929 14.4396C40.0717 13.7204 39.9982 12.975 39.7179 12.2974C39.4375 11.6199 38.9628 11.0404 38.3536 10.632C37.7443 10.2236 37.0278 10.0046 36.2942 10.0025V10ZM36.2942 12.428C36.5885 12.428 36.8752 12.5782 37.1557 12.8573C37.7141 13.4155 37.7141 14.0188 37.1557 14.5782L25.0253 26.7009L22.8716 27.1314L23.3036 24.9787L35.434 12.8536C35.7132 12.5745 36 12.4243 36.2942 12.4243V12.428ZM10 14.9687V40H35.0421V23.4944L32.5379 25.9975V37.4969H12.5042V17.4718H24.0086L26.5128 14.9687H10Z" fill="#04AA9C"/>
</svg>
