<svg width="26" height="26" viewBox="0 0 26 26" fill="none" xmlns="http://www.w3.org/2000/svg">
<path d="M11.0457 4.61626H4.5845C3.89905 4.61626 3.24167 4.88855 2.75698 5.37324C2.27229 5.85793 2 6.5153 2 7.20076V21.4155C2 22.101 2.27229 22.7583 2.75698 23.243C3.24167 23.7277 3.89905 24 4.5845 24H18.7992C19.4847 24 20.1421 23.7277 20.6268 23.243C21.1114 22.7583 21.3837 22.101 21.3837 21.4155V14.9543M19.5565 2.78902C19.7949 2.54217 20.0801 2.34528 20.3954 2.20983C20.7107 2.07438 21.0499 2.00308 21.393 2.0001C21.7362 1.99712 22.0765 2.06251 22.3942 2.19246C22.7118 2.32241 23.0003 2.51432 23.243 2.75698C23.4857 2.99965 23.6776 3.28821 23.8075 3.60584C23.9375 3.92346 24.0029 4.26379 23.9999 4.60696C23.9969 4.95012 23.9256 5.28926 23.7902 5.60458C23.6547 5.9199 23.4578 6.20509 23.211 6.4435L12.1157 17.5388H8.46125V13.8843L19.5565 2.78902Z" stroke="#5D6D79" stroke-width="3" stroke-linecap="round" stroke-linejoin="round"/>
</svg>
