<svg width="44" height="44" viewBox="0 0 44 44" fill="none" xmlns="http://www.w3.org/2000/svg">
<path d="M26.8617 14.4867L28.5492 12.7992C29.2814 12.0669 30.4686 12.0669 31.2008 12.7992C31.9331 13.5314 31.9331 14.7186 31.2008 15.4508L20.5822 26.0695C20.0535 26.5981 19.4014 26.9868 18.6849 27.2002L16 28L16.7998 25.3151C17.0132 24.5986 17.4018 23.9465 17.9305 23.4178L26.8617 14.4867ZM26.8617 14.4867L29.5 17.125M28 24V28.75C28 29.9926 26.9926 31 25.75 31H15.25C14.0074 31 13 29.9926 13 28.75V18.25C13 17.0074 14.0074 16 15.25 16H20" stroke="#0F172A" stroke-width="1.5" stroke-linecap="round" stroke-linejoin="round"/>
</svg>
