<svg width="23" height="19" viewBox="0 0 23 19" fill="none" xmlns="http://www.w3.org/2000/svg">
<path d="M21.4198 4.03125V14.9688C21.4198 16.2632 20.3814 17.3125 19.1005 17.3125H3.63862C2.35771 17.3125 1.31934 16.2632 1.31934 14.9688V4.03125M21.4198 4.03125C21.4198 2.73683 20.3814 1.6875 19.1005 1.6875H3.63862C2.35771 1.6875 1.31934 2.73683 1.31934 4.03125M21.4198 4.03125V4.28407C21.4198 5.09797 21.002 5.85359 20.316 6.28015L12.5851 11.0878C11.8397 11.5514 10.8995 11.5514 10.154 11.0878L2.42309 6.28015C1.73717 5.85359 1.31934 5.09797 1.31934 4.28407V4.03125" stroke="#04AA9C" stroke-width="2" stroke-linecap="round" stroke-linejoin="round"/>
</svg>
