<svg width="55" height="55" viewBox="0 0 55 55" fill="none" xmlns="http://www.w3.org/2000/svg">
<path d="M42.8125 13.2736L34.0548 13.2736V11.0937C34.0548 10.4895 33.5654 10 32.9611 10C32.3568 10 31.8673 10.4895 31.8673 11.0937V13.273H23.1173V11.0937C23.1173 10.4895 22.6279 10 22.0236 10C21.4193 10 20.9298 10.4895 20.9298 11.0937V13.273H12.1875C10.9795 13.273 10 14.2525 10 15.4605V42.8043C10 44.0123 10.9795 44.9918 12.1875 44.9918H42.8125C44.0205 44.9918 45 44.0123 45 42.8043V15.4605C45 14.253 44.0205 13.2736 42.8125 13.2736ZM42.8125 42.8043H12.1875V15.4605H20.9298V16.5625C20.9298 17.1668 21.4193 17.6562 22.0236 17.6562C22.6279 17.6562 23.1173 17.1668 23.1173 16.5625V15.4611H31.8673V16.563C31.8673 17.1673 32.3568 17.6568 32.9611 17.6568C33.5654 17.6568 34.0548 17.1673 34.0548 16.563V15.4611H42.8125V42.8043ZM35.1562 27.4923H37.3438C37.9475 27.4923 38.4375 27.0023 38.4375 26.3986V24.2111C38.4375 23.6073 37.9475 23.1173 37.3438 23.1173H35.1562C34.5525 23.1173 34.0625 23.6073 34.0625 24.2111V26.3986C34.0625 27.0023 34.5525 27.4923 35.1562 27.4923ZM35.1562 36.2418H37.3438C37.9475 36.2418 38.4375 35.7523 38.4375 35.148V32.9605C38.4375 32.3568 37.9475 31.8668 37.3438 31.8668H35.1562C34.5525 31.8668 34.0625 32.3568 34.0625 32.9605V35.148C34.0625 35.7529 34.5525 36.2418 35.1562 36.2418ZM28.5938 31.8668H26.4062C25.8025 31.8668 25.3125 32.3568 25.3125 32.9605V35.148C25.3125 35.7523 25.8025 36.2418 26.4062 36.2418H28.5938C29.1975 36.2418 29.6875 35.7523 29.6875 35.148V32.9605C29.6875 32.3573 29.1975 31.8668 28.5938 31.8668ZM28.5938 23.1173H26.4062C25.8025 23.1173 25.3125 23.6073 25.3125 24.2111V26.3986C25.3125 27.0023 25.8025 27.4923 26.4062 27.4923H28.5938C29.1975 27.4923 29.6875 27.0023 29.6875 26.3986V24.2111C29.6875 23.6068 29.1975 23.1173 28.5938 23.1173ZM19.8438 23.1173H17.6562C17.0525 23.1173 16.5625 23.6073 16.5625 24.2111V26.3986C16.5625 27.0023 17.0525 27.4923 17.6562 27.4923H19.8438C20.4475 27.4923 20.9375 27.0023 20.9375 26.3986V24.2111C20.9375 23.6068 20.4475 23.1173 19.8438 23.1173ZM19.8438 31.8668H17.6562C17.0525 31.8668 16.5625 32.3568 16.5625 32.9605V35.148C16.5625 35.7523 17.0525 36.2418 17.6562 36.2418H19.8438C20.4475 36.2418 20.9375 35.7523 20.9375 35.148V32.9605C20.9375 32.3573 20.4475 31.8668 19.8438 31.8668Z" fill="#04AA9C"/>
</svg>
