<svg width="18" height="20" viewBox="0 0 18 20" fill="none" xmlns="http://www.w3.org/2000/svg">
<path fill-rule="evenodd" clip-rule="evenodd" d="M7.20719 11.1739C8.18635 11.1739 8.69677 12.2975 8.09781 13.0177L8.01656 13.1062L3.72281 17.3474H7.45823C7.72373 17.3476 7.97909 17.4481 8.17215 17.6281C8.36521 17.8081 8.48139 18.0542 8.49695 18.316C8.51251 18.5778 8.42628 18.8355 8.25587 19.0367C8.08546 19.2378 7.84374 19.367 7.5801 19.398L7.45823 19.4052H1.45927C0.480102 19.4052 -0.0303146 18.2816 0.568644 17.5614L0.649894 17.4729L4.94364 13.2317H1.20823C0.942727 13.2314 0.68736 13.131 0.494301 12.951C0.301243 12.7709 0.185066 12.5249 0.169506 12.2631C0.153947 12.0013 0.24018 11.7435 0.410586 11.5424C0.580993 11.3413 0.82271 11.2121 1.08635 11.1811L1.20823 11.1739H7.20719ZM13.7082 1.91368C13.9845 1.91368 14.2494 2.02208 14.4448 2.21504C14.6401 2.408 14.7499 2.6697 14.7499 2.94259V15.7155L15.9176 14.5621C16.0143 14.4665 16.1291 14.3906 16.2555 14.3389C16.3819 14.2871 16.5174 14.2605 16.6542 14.2604C16.791 14.2604 16.9265 14.2869 17.053 14.3386C17.1794 14.3903 17.2943 14.466 17.391 14.5616C17.4878 14.6571 17.5646 14.7705 17.617 14.8954C17.6694 15.0202 17.6964 15.154 17.6965 15.2892C17.6965 15.4243 17.6696 15.5581 17.6173 15.683C17.565 15.8079 17.4883 15.9214 17.3916 16.017L14.4447 18.9267C14.2493 19.1196 13.9844 19.228 13.7082 19.228C13.432 19.228 13.1671 19.1196 12.9718 18.9267L10.0249 16.017C9.92818 15.9214 9.85148 15.8079 9.79916 15.683C9.74685 15.5581 9.71995 15.4243 9.72 15.2892C9.72004 15.154 9.74704 15.0202 9.79945 14.8954C9.85185 14.7705 9.92863 14.6571 10.0254 14.5616C10.1222 14.466 10.2371 14.3903 10.3635 14.3386C10.4899 14.2869 10.6254 14.2604 10.7622 14.2604C10.8991 14.2605 11.0345 14.2871 11.1609 14.3389C11.2873 14.3906 11.4021 14.4665 11.4989 14.5621L12.6666 15.7155V2.94259C12.6666 2.6697 12.7763 2.408 12.9717 2.21504C13.167 2.02208 13.432 1.91368 13.7082 1.91368ZM4.33323 0.884766C5.03531 0.884766 5.66656 1.29221 5.95406 1.91573L6.01031 2.05258L8.43948 8.77034C8.52902 9.01759 8.51946 9.2893 8.41277 9.52982C8.30608 9.77034 8.11032 9.96146 7.8656 10.064C7.62088 10.1666 7.34571 10.1729 7.09645 10.0816C6.8472 9.99028 6.64272 9.80829 6.52489 9.5729L6.47698 9.46177L5.9801 8.08715H2.68635L2.18948 9.46177C2.1011 9.71021 1.91966 9.91573 1.6825 10.036C1.44534 10.1563 1.17052 10.1822 0.914621 10.1083C0.658723 10.0345 0.441225 9.86655 0.306909 9.63909C0.172593 9.41162 0.131683 9.14194 0.192602 8.88558L0.226977 8.77034L2.65614 2.05155C2.77983 1.71004 3.00736 1.41463 3.30757 1.20576C3.60779 0.996894 3.96602 0.88478 4.33323 0.884766ZM4.33323 3.53216L3.4301 6.02932H5.23635L4.33323 3.53216Z" fill="white"/>
</svg>
