<svg width="45" height="44" viewBox="0 0 45 44" fill="none" xmlns="http://www.w3.org/2000/svg">
<rect width="45" height="44" rx="5" fill="#04AA9C"/>
<path d="M20.1562 12C19.5346 12 18.9385 12.2431 18.499 12.6759C18.0594 13.1087 17.8125 13.6957 17.8125 14.3077V15.0769H12.3437C11.7221 15.0769 11.126 15.3201 10.6865 15.7528C10.2469 16.1856 10 16.7726 10 17.3846V29.6923C10 30.3043 10.2469 30.8913 10.6865 31.3241C11.126 31.7569 11.7221 32 12.3437 32H32.6562C33.2779 32 33.874 31.7569 34.3135 31.3241C34.7531 30.8913 35 30.3043 35 29.6923V17.3846C35 16.7726 34.7531 16.1856 34.3135 15.7528C33.874 15.3201 33.2779 15.0769 32.6562 15.0769H27.1875V14.3077C27.1875 13.6957 26.9406 13.1087 26.501 12.6759C26.0615 12.2431 25.4654 12 24.8437 12H20.1562ZM20.1562 13.5385H24.8437C25.051 13.5385 25.2497 13.6195 25.3962 13.7638C25.5427 13.908 25.625 14.1037 25.625 14.3077V15.0769H19.375V14.3077C19.375 14.1037 19.4573 13.908 19.6038 13.7638C19.7503 13.6195 19.949 13.5385 20.1562 13.5385ZM23.1031 24.1754L33.4375 21.4631V29.6923C33.4375 29.8963 33.3552 30.092 33.2087 30.2362C33.0622 30.3805 32.8634 30.4615 32.6562 30.4615H12.3437C12.1365 30.4615 11.9378 30.3805 11.7913 30.2362C11.6448 30.092 11.5625 29.8963 11.5625 29.6923V21.4615L21.8969 24.1754C22.2921 24.279 22.7079 24.279 23.1031 24.1754ZM12.3437 16.6154H32.6562C32.8634 16.6154 33.0622 16.6964 33.2087 16.8407C33.3552 16.9849 33.4375 17.1806 33.4375 17.3846V19.8708L22.7016 22.6892C22.5695 22.724 22.4305 22.724 22.2984 22.6892L11.5625 19.8708V17.3846C11.5625 17.1806 11.6448 16.9849 11.7913 16.8407C11.9378 16.6964 12.1365 16.6154 12.3437 16.6154Z" fill="white"/>
</svg>
