<svg width="27" height="25" viewBox="0 0 27 25" fill="none" xmlns="http://www.w3.org/2000/svg">
<path d="M12.4621 2.14959C12.8282 1.78347 13.4218 1.78347 13.7879 2.14959L24.6496 13.0113C25.0157 13.3774 25.6093 13.3774 25.9754 13.0113C26.3415 12.6451 26.3415 12.0516 25.9754 11.6854L15.1137 0.823762C14.0154 -0.274589 12.2346 -0.274586 11.1363 0.823763L0.274587 11.6854C-0.0915292 12.0516 -0.0915292 12.6451 0.274587 13.0113C0.640704 13.3774 1.2343 13.3774 1.60041 13.0113L12.4621 2.14959Z" fill="#04AA9C"/>
<path d="M13.125 4.13833L23.3238 14.3371C23.3609 14.3742 23.3988 14.4101 23.4375 14.4448V22.1921C23.4375 23.4865 22.3882 24.5358 21.0938 24.5358H16.875C16.3572 24.5358 15.9375 24.1161 15.9375 23.5983V17.9733C15.9375 17.4556 15.5178 17.0358 15 17.0358H11.25C10.7322 17.0358 10.3125 17.4556 10.3125 17.9733V23.5983C10.3125 24.1161 9.89277 24.5358 9.375 24.5358H5.15625C3.86183 24.5358 2.8125 23.4865 2.8125 22.1921V14.4448C2.85116 14.4101 2.88909 14.3742 2.92624 14.3371L13.125 4.13833Z" fill="#04AA9C"/>
</svg>
