<svg width="50" height="48" viewBox="0 0 50 48" fill="none" xmlns="http://www.w3.org/2000/svg">
<rect width="50" height="48" rx="24" fill="#04AA9C"/>
<path d="M24.4697 15.8447C24.7626 15.5518 25.2374 15.5518 25.5303 15.8447L34.2197 24.534C34.5126 24.8269 34.9874 24.8269 35.2803 24.534C35.5732 24.2411 35.5732 23.7662 35.2803 23.4733L26.591 14.784C25.7123 13.9053 24.2877 13.9053 23.409 14.784L14.7197 23.4733C14.4268 23.7662 14.4268 24.2411 14.7197 24.534C15.0126 24.8269 15.4874 24.8269 15.7803 24.534L24.4697 15.8447Z" fill="white"/>
<path d="M25 17.4357L33.159 25.5947C33.1887 25.6244 33.2191 25.6531 33.25 25.6808V31.8787C33.25 32.9142 32.4105 33.7537 31.375 33.7537H28C27.5858 33.7537 27.25 33.4179 27.25 33.0037V28.5037C27.25 28.0895 26.9142 27.7537 26.5 27.7537H23.5C23.0858 27.7537 22.75 28.0895 22.75 28.5037V33.0037C22.75 33.4179 22.4142 33.7537 22 33.7537H18.625C17.5895 33.7537 16.75 32.9142 16.75 31.8787V25.6808C16.7809 25.6531 16.8113 25.6244 16.841 25.5947L25 17.4357Z" fill="white"/>
<rect x="0.5" y="0.5" width="49" height="47" rx="23.5" stroke="black" stroke-opacity="0.1"/>
</svg>
