<svg width="30" height="30" viewBox="0 0 30 30" fill="none" xmlns="http://www.w3.org/2000/svg">
<path d="M14.3371 4.80193C14.7032 4.43581 15.2968 4.43581 15.6629 4.80193L26.5246 15.6636C26.8907 16.0297 27.4843 16.0297 27.8504 15.6636C28.2165 15.2975 28.2165 14.7039 27.8504 14.3378L16.9887 3.47611C15.8904 2.37776 14.1096 2.37776 13.0113 3.47611L2.14959 14.3378C1.78347 14.7039 1.78347 15.2975 2.14959 15.6636C2.5157 16.0297 3.1093 16.0297 3.47541 15.6636L14.3371 4.80193Z" fill="#04AA9C"/>
<path d="M15 6.79067L25.1988 16.9894C25.2359 17.0266 25.2738 17.0625 25.3125 17.0971V24.8444C25.3125 26.1389 24.2632 27.1882 22.9688 27.1882H18.75C18.2322 27.1882 17.8125 26.7685 17.8125 26.2507V20.6257C17.8125 20.1079 17.3928 19.6882 16.875 19.6882H13.125C12.6072 19.6882 12.1875 20.1079 12.1875 20.6257V26.2507C12.1875 26.7685 11.7678 27.1882 11.25 27.1882H7.03125C5.73683 27.1882 4.6875 26.1389 4.6875 24.8444V17.0971C4.72616 17.0625 4.76409 17.0266 4.80124 16.9894L15 6.79067Z" fill="#04AA9C"/>
</svg>
