<svg width="100" height="100" viewBox="0 0 100 100" fill="none" xmlns="http://www.w3.org/2000/svg">
<g clip-path="url(#clip0_1_5007)">
<path d="M88.8889 16.668H11.1111C9.63767 16.668 8.22459 17.2533 7.18273 18.2952C6.14086 19.337 5.55554 20.7501 5.55554 22.2235V77.7791C5.55554 79.2525 6.14086 80.6656 7.18273 81.7075C8.22459 82.7493 9.63767 83.3346 11.1111 83.3346H88.8889C90.3623 83.3346 91.7754 82.7493 92.8172 81.7075C93.8591 80.6656 94.4444 79.2525 94.4444 77.7791V22.2235C94.4444 20.7501 93.8591 19.337 92.8172 18.2952C91.7754 17.2533 90.3623 16.668 88.8889 16.668ZM84.6111 77.7791H15.7222L35.1667 57.668L31.1667 53.8069L11.1111 74.5569V26.4457L45.6389 60.8069C46.6798 61.8416 48.0878 62.4224 49.5555 62.4224C51.0232 62.4224 52.4313 61.8416 53.4722 60.8069L88.8889 25.5846V74.1957L68.4444 53.7513L64.5278 57.668L84.6111 77.7791ZM14.75 22.2235H84.3889L49.5555 56.8624L14.75 22.2235Z" fill="#04AA9C"/>
</g>
<defs>
<clipPath id="clip0_1_5007">
<rect width="100" height="100" fill="white"/>
</clipPath>
</defs>
</svg>
