<svg width="25" height="24" viewBox="0 0 25 24" fill="none" xmlns="http://www.w3.org/2000/svg">
<path d="M17.5625 5.625V5.875H17.8125H22.5C22.931 5.875 23.3443 6.04621 23.649 6.35095C23.9538 6.6557 24.125 7.06902 24.125 7.5V21.5625C24.125 21.9935 23.9538 22.4068 23.649 22.7115C23.3443 23.0163 22.931 23.1875 22.5 23.1875H1.875C1.44402 23.1875 1.0307 23.0163 0.725951 22.7115C0.421205 22.4068 0.25 21.9935 0.25 21.5625V7.5C0.25 7.06902 0.421205 6.6557 0.725951 6.35095C1.0307 6.04621 1.44402 5.875 1.875 5.875H6.5625H6.8125V5.625C6.8125 4.19946 7.37879 2.83231 8.3868 1.8243C9.39481 0.816293 10.762 0.25 12.1875 0.25C13.613 0.25 14.9802 0.816293 15.9882 1.8243C16.9962 2.83231 17.5625 4.19946 17.5625 5.625ZM15.9375 5.875H16.1875V5.625C16.1875 4.56413 15.7661 3.54672 15.0159 2.79657C14.2658 2.04643 13.2484 1.625 12.1875 1.625C11.1266 1.625 10.1092 2.04643 9.35907 2.79657C8.60893 3.54672 8.1875 4.56413 8.1875 5.625V5.875H8.4375H15.9375Z" fill="#04AA9C" stroke="#04AA9C" stroke-width="0.5"/>
</svg>
