<svg width="30" height="30" viewBox="0 0 30 30" fill="none" xmlns="http://www.w3.org/2000/svg">
<path d="M20.375 7.5V7.75H20.625H25.3125C25.7435 7.75 26.1568 7.92121 26.4615 8.22595C26.7663 8.5307 26.9375 8.94402 26.9375 9.375V23.4375C26.9375 23.8685 26.7663 24.2818 26.4615 24.5865C26.1568 24.8913 25.7435 25.0625 25.3125 25.0625H4.6875C4.25652 25.0625 3.8432 24.8913 3.53845 24.5865C3.2337 24.2818 3.0625 23.8685 3.0625 23.4375V9.375C3.0625 8.94402 3.2337 8.5307 3.53845 8.22595C3.8432 7.92121 4.25652 7.75 4.6875 7.75H9.375H9.625V7.5C9.625 6.07446 10.1913 4.70731 11.1993 3.6993C12.2073 2.69129 13.5745 2.125 15 2.125C16.4255 2.125 17.7927 2.69129 18.8007 3.6993C19.8087 4.70731 20.375 6.07446 20.375 7.5ZM18.75 7.75H19V7.5C19 6.43913 18.5786 5.42172 17.8284 4.67157C17.0783 3.92143 16.0609 3.5 15 3.5C13.9391 3.5 12.9217 3.92143 12.1716 4.67157C11.4214 5.42172 11 6.43913 11 7.5V7.75H11.25H18.75Z" fill="#04AA9C" stroke="#04AA9C" stroke-width="0.5"/>
</svg>
