<svg width="25" height="25" viewBox="0 0 25 26" fill="none" xmlns="http://www.w3.org/2000/svg">
<g clip-path="url(#clip0_720_34058)">
<path d="M22.5 6.375H18.0572C17.9947 4.90776 17.3845 3.51346 16.3418 2.47075C15.24 1.36897 13.7456 0.75 12.1875 0.75C10.6294 0.75 9.13502 1.36897 8.03325 2.47075C6.99054 3.51346 6.38026 4.90776 6.31782 6.375H1.875C1.31141 6.375 0.770913 6.59888 0.372398 6.9974C-0.0261168 7.39591 -0.25 7.93641 -0.25 8.5V22.5625C-0.25 23.1261 -0.0261168 23.6666 0.372398 24.0651C0.770913 24.4636 1.31141 24.6875 1.875 24.6875H22.5C23.0636 24.6875 23.6041 24.4636 24.0026 24.0651C24.4011 23.6666 24.625 23.1261 24.625 22.5625V8.5C24.625 7.93641 24.4011 7.39591 24.0026 6.9974C23.6041 6.59888 23.0636 6.375 22.5 6.375ZM12.1875 3.125C13.1158 3.125 14.006 3.49375 14.6624 4.15013C15.2596 4.74733 15.6187 5.53812 15.6786 6.375H8.69643C8.75633 5.53812 9.11543 4.74733 9.71263 4.15013C10.369 3.49375 11.2592 3.125 12.1875 3.125ZM2.125 22.3125V8.75H22.25V22.3125H2.125Z" fill="#5D6D79" stroke="#5D6D79" stroke-width="0.5"/>
</g>
<defs>
<clipPath id="clip0_720_34058">
<rect width="24.375" height="25.4375" fill="white"/>
</clipPath>
</defs>
</svg>
