<svg width="10" height="10" viewBox="0 0 10 10" fill="none" xmlns="http://www.w3.org/2000/svg">
<path fill-rule="evenodd" clip-rule="evenodd" d="M2.4 2.4V1.8C2.4 1.32261 2.58964 0.864773 2.92721 0.527208C3.26477 0.189642 3.72261 0 4.2 0H5.4C5.87739 0 6.33523 0.189642 6.67279 0.527208C7.01036 0.864773 7.2 1.32261 7.2 1.8V2.4H8.4C8.71826 2.4 9.02348 2.52643 9.24853 2.75147C9.47357 2.97652 9.6 3.28174 9.6 3.6V5.742C8.06377 6.31124 6.4383 6.60179 4.8 6.6C3.1617 6.60182 1.53622 6.31127 0 5.742V3.6C0 3.28174 0.126428 2.97652 0.351472 2.75147C0.576515 2.52643 0.88174 2.4 1.2 2.4H2.4ZM3.6 1.8C3.6 1.64087 3.66321 1.48826 3.77574 1.37574C3.88826 1.26321 4.04087 1.2 4.2 1.2H5.4C5.55913 1.2 5.71174 1.26321 5.82426 1.37574C5.93679 1.48826 6 1.64087 6 1.8V2.4H3.6V1.8ZM4.2 4.8C4.2 4.64087 4.26321 4.48826 4.37574 4.37574C4.48826 4.26321 4.64087 4.2 4.8 4.2H4.806C4.96513 4.2 5.11774 4.26321 5.23026 4.37574C5.34279 4.48826 5.406 4.64087 5.406 4.8C5.406 4.95913 5.34279 5.11174 5.23026 5.22426C5.11774 5.33679 4.96513 5.4 4.806 5.4H4.8C4.64087 5.4 4.48826 5.33679 4.37574 5.22426C4.26321 5.11174 4.2 4.95913 4.2 4.8Z" fill="#5D6D79"/>
<path d="M0 6.60156V7.98636C0 8.30462 0.126428 8.60985 0.351472 8.83489C0.576515 9.05993 0.88174 9.18636 1.2 9.18636H8.4C8.71826 9.18636 9.02348 9.05993 9.24853 8.83489C9.47357 8.60985 9.6 8.30462 9.6 7.98636V6.60156C8.05342 7.12282 6.43206 7.38791 4.8 7.38636C3.1224 7.38636 1.5078 7.11036 0 6.60156Z" fill="#5D6D79"/>
</svg>
