<svg width="9" height="9" viewBox="0 0 9 9" fill="none" xmlns="http://www.w3.org/2000/svg">
<path fill-rule="evenodd" clip-rule="evenodd" d="M2.02519 1.09188C2.68156 0.392762 3.57179 0 4.50004 0C5.42828 0 6.31851 0.392762 6.97488 1.09188C7.63125 1.791 8 2.73922 8 3.72792C8 4.71663 7.63125 5.66484 6.97488 6.36396L4.50004 9L2.02519 6.36396C1.70017 6.0178 1.44234 5.60685 1.26644 5.15455C1.09054 4.70226 1 4.21749 1 3.72792C1 3.23836 1.09054 2.75359 1.26644 2.30129C1.44234 1.849 1.70017 1.43804 2.02519 1.09188ZM4.50004 4.79299C4.76524 4.79299 5.01958 4.68078 5.2071 4.48104C5.39463 4.2813 5.49998 4.0104 5.49998 3.72792C5.49998 3.44545 5.39463 3.17454 5.2071 2.97481C5.01958 2.77507 4.76524 2.66286 4.50004 2.66286C4.23484 2.66286 3.9805 2.77507 3.79297 2.97481C3.60545 3.17454 3.5001 3.44545 3.5001 3.72792C3.5001 4.0104 3.60545 4.2813 3.79297 4.48104C3.9805 4.68078 4.23484 4.79299 4.50004 4.79299Z" fill="#5D6D79"/>
</svg>
