<svg width="26" height="26" viewBox="0 0 26 26" fill="none" xmlns="http://www.w3.org/2000/svg">
<path fill-rule="evenodd" clip-rule="evenodd" d="M5.66667 2.84615C4.65415 2.84615 3.83333 3.6727 3.83333 4.69231L3.83333 21.3077C3.83333 22.3273 4.65414 23.1538 5.66667 23.1538H13C14.0125 23.1538 14.8333 22.3273 14.8333 21.3077V16.6923C14.8333 16.1825 15.2437 15.7692 15.75 15.7692C16.2563 15.7692 16.6667 16.1825 16.6667 16.6923V21.3077C16.6667 23.3469 15.025 25 13 25H5.66667C3.64162 25 2 23.3469 2 21.3077L2 4.69231C2 2.6531 3.64162 1 5.66667 1L13 1C15.025 1 16.6667 2.6531 16.6667 4.69231V9.30769C16.6667 9.81749 16.2563 10.2308 15.75 10.2308C15.2437 10.2308 14.8333 9.81749 14.8333 9.30769V4.69231C14.8333 3.67271 14.0125 2.84615 13 2.84615L5.66667 2.84615ZM18.7685 8.65498C19.1265 8.2945 19.7069 8.2945 20.0649 8.65498L23.7315 12.3473C24.0895 12.7078 24.0895 13.2922 23.7315 13.6527L20.0648 17.345C19.7069 17.7055 19.1265 17.7055 18.7685 17.345C18.4105 16.9845 18.4105 16.4001 18.7685 16.0396L20.8703 13.9231L7.5 13.9231C6.99374 13.9231 6.58333 13.5098 6.58333 13C6.58333 12.4902 6.99374 12.0769 7.5 12.0769L20.8703 12.0769L18.7685 9.96041C18.4105 9.59992 18.4105 9.01546 18.7685 8.65498Z" fill="#FF0E0E" fill-opacity="0.8" stroke="#FF0E0E" stroke-opacity="0.8" stroke-linecap="round" stroke-linejoin="round"/>
</svg>
