<svg width="27" height="26" viewBox="0 0 27 26" fill="none" xmlns="http://www.w3.org/2000/svg">
<path d="M9.03125 12.3125C9.03125 12.5714 8.82138 12.7812 8.5625 12.7812C8.30362 12.7812 8.09375 12.5714 8.09375 12.3125C8.09375 12.0536 8.30362 11.8438 8.5625 11.8438C8.82138 11.8438 9.03125 12.0536 9.03125 12.3125ZM9.03125 12.3125H8.5625M13.7188 12.3125C13.7188 12.5714 13.5089 12.7812 13.25 12.7812C12.9911 12.7812 12.7812 12.5714 12.7812 12.3125C12.7812 12.0536 12.9911 11.8438 13.25 11.8438C13.5089 11.8438 13.7188 12.0536 13.7188 12.3125ZM13.7188 12.3125H13.25M18.4062 12.3125C18.4062 12.5714 18.1964 12.7812 17.9375 12.7812C17.6786 12.7812 17.4688 12.5714 17.4688 12.3125C17.4688 12.0536 17.6786 11.8438 17.9375 11.8438C18.1964 11.8438 18.4062 12.0536 18.4062 12.3125ZM18.4062 12.3125H17.9375M24.5 12.3125C24.5 18.0079 19.4632 22.625 13.25 22.625C12.1407 22.625 11.0688 22.4778 10.0565 22.2036C8.8377 23.0598 7.35251 23.5625 5.75 23.5625C5.50098 23.5625 5.2547 23.5504 5.01208 23.5267C4.8125 23.5072 4.61475 23.4799 4.41974 23.445C5.02415 22.7316 5.45346 21.8658 5.64236 20.9135C5.75567 20.3422 5.47588 19.7874 5.05855 19.3811C3.16213 17.5352 2 15.0483 2 12.3125C2 6.61706 7.0368 2 13.25 2C19.4632 2 24.5 6.61706 24.5 12.3125Z" stroke="#5D6D79" stroke-width="3" stroke-linecap="round" stroke-linejoin="round"/>
</svg>
