<svg width="25" height="25" viewBox="0 0 25 25" fill="none" xmlns="http://www.w3.org/2000/svg">
<path d="M13.75 12.7188V8.75C13.75 8.39583 13.63 8.09875 13.39 7.85875C13.15 7.61875 12.8533 7.49917 12.5 7.5C12.1458 7.5 11.8487 7.62 11.6087 7.86C11.3687 8.1 11.2492 8.39667 11.25 8.75V13.2187C11.25 13.3854 11.2812 13.5471 11.3437 13.7038C11.4062 13.8604 11.5 14.0008 11.625 14.125L14.7812 17.2812C15.0312 17.5312 15.3283 17.6562 15.6725 17.6562C16.0167 17.6562 16.3133 17.5312 16.5625 17.2812C16.7917 17.0312 16.9062 16.7342 16.9062 16.39C16.9062 16.0458 16.7917 15.7596 16.5625 15.5313L13.75 12.7188ZM12.5 5C12.8542 5 13.1513 4.88 13.3913 4.64C13.6313 4.4 13.7508 4.10333 13.75 3.75C13.75 3.39583 13.63 3.09875 13.39 2.85875C13.15 2.61875 12.8533 2.49917 12.5 2.5C12.1458 2.5 11.8487 2.62 11.6087 2.86C11.3687 3.1 11.2492 3.39667 11.25 3.75C11.25 4.10417 11.37 4.40125 11.61 4.64125C11.85 4.88125 12.1467 5.00083 12.5 5ZM20 12.5C20 12.8542 20.12 13.1513 20.36 13.3913C20.6 13.6313 20.8967 13.7508 21.25 13.75C21.6042 13.75 21.9012 13.63 22.1412 13.39C22.3812 13.15 22.5008 12.8533 22.5 12.5C22.5 12.1458 22.38 11.8487 22.14 11.6087C21.9 11.3687 21.6033 11.2492 21.25 11.25C20.8958 11.25 20.5988 11.37 20.3588 11.61C20.1188 11.85 19.9992 12.1467 20 12.5ZM12.5 20C12.1458 20 11.8487 20.12 11.6087 20.36C11.3687 20.6 11.2492 20.8967 11.25 21.25C11.25 21.6042 11.37 21.9012 11.61 22.1412C11.85 22.3812 12.1467 22.5008 12.5 22.5C12.8542 22.5 13.1513 22.38 13.3913 22.14C13.6313 21.9 13.7508 21.6033 13.75 21.25C13.75 20.8958 13.63 20.5988 13.39 20.3588C13.15 20.1188 12.8533 19.9992 12.5 20ZM5 12.5C5 12.1458 4.88 11.8487 4.64 11.6087C4.4 11.3687 4.10333 11.2492 3.75 11.25C3.39583 11.25 3.09875 11.37 2.85875 11.61C2.61875 11.85 2.49917 12.1467 2.5 12.5C2.5 12.8542 2.62 13.1513 2.86 13.3913C3.1 13.6313 3.39667 13.7508 3.75 13.75C4.10417 13.75 4.40125 13.63 4.64125 13.39C4.88125 13.15 5.00083 12.8533 5 12.5ZM12.5 25C10.7708 25 9.14583 24.6717 7.625 24.015C6.10417 23.3583 4.78125 22.4679 3.65625 21.3438C2.53125 20.2188 1.64083 18.8958 0.985 17.375C0.329167 15.8542 0.000833333 14.2292 0 12.5C0 10.7708 0.328333 9.14583 0.985 7.625C1.64167 6.10417 2.53208 4.78125 3.65625 3.65625C4.78125 2.53125 6.10417 1.64083 7.625 0.985C9.14583 0.329167 10.7708 0.000833333 12.5 0C14.2292 0 15.8542 0.328333 17.375 0.985C18.8958 1.64167 20.2188 2.53208 21.3438 3.65625C22.4688 4.78125 23.3596 6.10417 24.0162 7.625C24.6729 9.14583 25.0008 10.7708 25 12.5C25 14.2292 24.6717 15.8542 24.015 17.375C23.3583 18.8958 22.4679 20.2188 21.3438 21.3438C20.2188 22.4688 18.8958 23.3596 17.375 24.0162C15.8542 24.6729 14.2292 25.0008 12.5 25Z" fill="#04AA9C"/>
</svg>
