<svg width="25" height="25" viewBox="0 0 25 25" fill="none" xmlns="http://www.w3.org/2000/svg">
<path d="M13.75 12.7188L16.5625 15.5313C16.7917 15.7604 16.9062 16.0471 16.9062 16.3912C16.9062 16.7354 16.7917 17.0321 16.5625 17.2812C16.3125 17.5312 16.0154 17.6562 15.6712 17.6562C15.3271 17.6562 15.0304 17.5312 14.7812 17.2812L11.625 14.125C11.5 14 11.4062 13.8592 11.3437 13.7025C11.2812 13.5458 11.25 13.3846 11.25 13.2187V8.75C11.25 8.39583 11.37 8.09875 11.61 7.85875C11.85 7.61875 12.1467 7.49917 12.5 7.5C12.8542 7.5 13.1513 7.62 13.3913 7.86C13.6313 8.1 13.7508 8.39667 13.75 8.75V12.7188ZM12.5 5C12.1458 5 11.8487 4.88 11.6087 4.64C11.3687 4.4 11.2492 4.10333 11.25 3.75V2.5H13.75V3.75C13.75 4.10417 13.63 4.40125 13.39 4.64125C13.15 4.88125 12.8533 5.00083 12.5 5ZM20 12.5C20 12.1458 20.12 11.8487 20.36 11.6087C20.6 11.3687 20.8967 11.2492 21.25 11.25H22.5V13.75H21.25C20.8958 13.75 20.5988 13.63 20.3588 13.39C20.1188 13.15 19.9992 12.8533 20 12.5ZM12.5 20C12.8542 20 13.1513 20.12 13.3913 20.36C13.6313 20.6 13.7508 20.8967 13.75 21.25V22.5H11.25V21.25C11.25 20.8958 11.37 20.5988 11.61 20.3588C11.85 20.1188 12.1467 19.9992 12.5 20ZM5 12.5C5 12.8542 4.88 13.1513 4.64 13.3913C4.4 13.6313 4.10333 13.7508 3.75 13.75H2.5V11.25H3.75C4.10417 11.25 4.40125 11.37 4.64125 11.61C4.88125 11.85 5.00083 12.1467 5 12.5ZM12.5 25C10.7708 25 9.14583 24.6717 7.625 24.015C6.10417 23.3583 4.78125 22.4679 3.65625 21.3438C2.53125 20.2188 1.64083 18.8958 0.985 17.375C0.329167 15.8542 0.000833333 14.2292 0 12.5C0 10.7708 0.328333 9.14583 0.985 7.625C1.64167 6.10417 2.53208 4.78125 3.65625 3.65625C4.78125 2.53125 6.10417 1.64083 7.625 0.985C9.14583 0.329167 10.7708 0.000833333 12.5 0C14.2292 0 15.8542 0.328333 17.375 0.985C18.8958 1.64167 20.2188 2.53208 21.3438 3.65625C22.4688 4.78125 23.3596 6.10417 24.0162 7.625C24.6729 9.14583 25.0008 10.7708 25 12.5C25 14.2292 24.6717 15.8542 24.015 17.375C23.3583 18.8958 22.4679 20.2188 21.3438 21.3438C20.2188 22.4688 18.8958 23.3596 17.375 24.0162C15.8542 24.6729 14.2292 25.0008 12.5 25ZM22.5 12.5C22.5 9.70833 21.5312 7.34375 19.5937 5.40625C17.6562 3.46875 15.2917 2.5 12.5 2.5C9.70833 2.5 7.34375 3.46875 5.40625 5.40625C3.46875 7.34375 2.5 9.70833 2.5 12.5C2.5 15.2917 3.46875 17.6562 5.40625 19.5937C7.34375 21.5312 9.70833 22.5 12.5 22.5C15.2917 22.5 17.6562 21.5312 19.5937 19.5937C21.5312 17.6562 22.5 15.2917 22.5 12.5Z" fill="#5D6D79"/>
</svg>
