<svg width="26" height="26" viewBox="0 0 26 26" fill="none" xmlns="http://www.w3.org/2000/svg">
<path d="M14.25 13.2188V9.25C14.25 8.89583 14.13 8.59875 13.89 8.35875C13.65 8.11875 13.3533 7.99917 13 8C12.6458 8 12.3487 8.12 12.1087 8.36C11.8687 8.6 11.7492 8.89667 11.75 9.25V13.7188C11.75 13.8854 11.7812 14.0471 11.8438 14.2038C11.9062 14.3604 12 14.5008 12.125 14.625L15.2812 17.7812C15.5312 18.0312 15.8283 18.1562 16.1725 18.1562C16.5167 18.1562 16.8133 18.0312 17.0625 17.7812C17.2917 17.5312 17.4062 17.2342 17.4062 16.89C17.4062 16.5458 17.2917 16.2596 17.0625 16.0312L14.25 13.2188ZM13 5.5C13.3542 5.5 13.6513 5.38 13.8913 5.14C14.1313 4.9 14.2508 4.60333 14.25 4.25C14.25 3.89583 14.13 3.59875 13.89 3.35875C13.65 3.11875 13.3533 2.99917 13 3C12.6458 3 12.3487 3.12 12.1087 3.36C11.8687 3.6 11.7492 3.89667 11.75 4.25C11.75 4.60417 11.87 4.90125 12.11 5.14125C12.35 5.38125 12.6467 5.50083 13 5.5ZM20.5 13C20.5 13.3542 20.62 13.6513 20.86 13.8913C21.1 14.1313 21.3967 14.2508 21.75 14.25C22.1042 14.25 22.4012 14.13 22.6412 13.89C22.8812 13.65 23.0008 13.3533 23 13C23 12.6458 22.88 12.3487 22.64 12.1087C22.4 11.8687 22.1033 11.7492 21.75 11.75C21.3958 11.75 21.0988 11.87 20.8588 12.11C20.6188 12.35 20.4992 12.6467 20.5 13ZM13 20.5C12.6458 20.5 12.3487 20.62 12.1087 20.86C11.8687 21.1 11.7492 21.3967 11.75 21.75C11.75 22.1042 11.87 22.4012 12.11 22.6412C12.35 22.8812 12.6467 23.0008 13 23C13.3542 23 13.6513 22.88 13.8913 22.64C14.1313 22.4 14.2508 22.1033 14.25 21.75C14.25 21.3958 14.13 21.0988 13.89 20.8588C13.65 20.6188 13.3533 20.4992 13 20.5ZM5.5 13C5.5 12.6458 5.38 12.3487 5.14 12.1087C4.9 11.8687 4.60333 11.7492 4.25 11.75C3.89583 11.75 3.59875 11.87 3.35875 12.11C3.11875 12.35 2.99917 12.6467 3 13C3 13.3542 3.12 13.6513 3.36 13.8913C3.6 14.1313 3.89667 14.2508 4.25 14.25C4.60417 14.25 4.90125 14.13 5.14125 13.89C5.38125 13.65 5.50083 13.3533 5.5 13ZM13 25.5C11.2708 25.5 9.64583 25.1717 8.125 24.515C6.60417 23.8583 5.28125 22.9679 4.15625 21.8438C3.03125 20.7188 2.14083 19.3958 1.485 17.875C0.829167 16.3542 0.500833 14.7292 0.5 13C0.5 11.2708 0.828333 9.64583 1.485 8.125C2.14167 6.60417 3.03208 5.28125 4.15625 4.15625C5.28125 3.03125 6.60417 2.14083 8.125 1.485C9.64583 0.829167 11.2708 0.500833 13 0.5C14.7292 0.5 16.3542 0.828333 17.875 1.485C19.3958 2.14167 20.7188 3.03208 21.8438 4.15625C22.9688 5.28125 23.8596 6.60417 24.5162 8.125C25.1729 9.64583 25.5008 11.2708 25.5 13C25.5 14.7292 25.1717 16.3542 24.515 17.875C23.8583 19.3958 22.9679 20.7188 21.8438 21.8438C20.7188 22.9688 19.3958 23.8596 17.875 24.5162C16.3542 25.1729 14.7292 25.5008 13 25.5Z" fill="#04AA9C"/>
</svg>
