<svg width="129" height="53" viewBox="0 0 129 53" fill="none" xmlns="http://www.w3.org/2000/svg">
<g filter="url(#filter0_d_286_34095)">
<path d="M2.79297 22C2.79297 10.9543 11.7473 2 22.793 2H105.027L122.494 24.5L105.027 47H22.793C11.7473 47 2.79297 38.0457 2.79297 27V22Z" fill="#FCE22A"/>
</g>
<path d="M31.251 23.5391H28.2119V22.3125H31.251C31.8395 22.3125 32.3161 22.2188 32.6807 22.0312C33.0452 21.8438 33.3109 21.5833 33.4775 21.25C33.6494 20.9167 33.7354 20.5365 33.7354 20.1094C33.7354 19.7188 33.6494 19.3516 33.4775 19.0078C33.3109 18.6641 33.0452 18.388 32.6807 18.1797C32.3161 17.9661 31.8395 17.8594 31.251 17.8594H28.5635V28H27.0557V16.625H31.251C32.1104 16.625 32.8369 16.7734 33.4307 17.0703C34.0244 17.3672 34.4749 17.7786 34.7822 18.3047C35.0895 18.8255 35.2432 19.4219 35.2432 20.0938C35.2432 20.8229 35.0895 21.4453 34.7822 21.9609C34.4749 22.4766 34.0244 22.8698 33.4307 23.1406C32.8369 23.4062 32.1104 23.5391 31.251 23.5391ZM40.4891 28.1562C39.9006 28.1562 39.3667 28.0573 38.8875 27.8594C38.4136 27.6562 38.0047 27.3724 37.661 27.0078C37.3224 26.6432 37.062 26.2109 36.8797 25.7109C36.6974 25.2109 36.6063 24.6641 36.6063 24.0703V23.7422C36.6063 23.0547 36.7079 22.4427 36.911 21.9062C37.1141 21.3646 37.3901 20.9062 37.7391 20.5312C38.0881 20.1562 38.4839 19.8724 38.9266 19.6797C39.3693 19.487 39.8276 19.3906 40.3016 19.3906C40.9058 19.3906 41.4266 19.4948 41.8641 19.7031C42.3068 19.9115 42.6688 20.2031 42.95 20.5781C43.2313 20.9479 43.4396 21.3854 43.575 21.8906C43.7105 22.3906 43.7782 22.9375 43.7782 23.5312V24.1797H37.4657V23H42.3329V22.8906C42.312 22.5156 42.2339 22.151 42.0985 21.7969C41.9683 21.4427 41.7599 21.151 41.4735 20.9219C41.187 20.6927 40.7964 20.5781 40.3016 20.5781C39.9735 20.5781 39.6714 20.6484 39.3954 20.7891C39.1193 20.9245 38.8823 21.1276 38.6844 21.3984C38.4865 21.6693 38.3329 22 38.2235 22.3906C38.1141 22.7812 38.0594 23.2318 38.0594 23.7422V24.0703C38.0594 24.4714 38.1141 24.849 38.2235 25.2031C38.3381 25.5521 38.5021 25.8594 38.7157 26.125C38.9344 26.3906 39.1974 26.599 39.5047 26.75C39.8172 26.901 40.1714 26.9766 40.5672 26.9766C41.0776 26.9766 41.5099 26.8724 41.8641 26.6641C42.2183 26.4557 42.5282 26.1771 42.7938 25.8281L43.6688 26.5234C43.4865 26.7995 43.2547 27.0625 42.9735 27.3125C42.6922 27.5625 42.3459 27.7656 41.9344 27.9219C41.5282 28.0781 41.0464 28.1562 40.4891 28.1562ZM47.071 21.3516V28H45.6257V19.5469H46.9929L47.071 21.3516ZM46.7272 23.4531L46.1257 23.4297C46.1309 22.8516 46.2168 22.3177 46.3835 21.8281C46.5501 21.3333 46.7845 20.9036 47.0866 20.5391C47.3887 20.1745 47.7481 19.8932 48.1647 19.6953C48.5866 19.4922 49.0527 19.3906 49.5632 19.3906C49.9798 19.3906 50.3548 19.4479 50.6882 19.5625C51.0215 19.6719 51.3054 19.849 51.5397 20.0938C51.7793 20.3385 51.9616 20.6562 52.0866 21.0469C52.2116 21.4323 52.2741 21.9036 52.2741 22.4609V28H50.821V22.4453C50.821 22.0026 50.7559 21.6484 50.6257 21.3828C50.4955 21.112 50.3054 20.9167 50.0554 20.7969C49.8054 20.6719 49.4981 20.6094 49.1335 20.6094C48.7741 20.6094 48.446 20.6849 48.1491 20.8359C47.8574 20.987 47.6048 21.1953 47.3913 21.4609C47.183 21.7266 47.0189 22.0312 46.8991 22.375C46.7845 22.7135 46.7272 23.0729 46.7272 23.4531ZM59.9575 26.3594V16H61.4107V28H60.0825L59.9575 26.3594ZM54.27 23.8672V23.7031C54.27 23.0573 54.3482 22.4714 54.5044 21.9453C54.6659 21.4141 54.8924 20.9583 55.1841 20.5781C55.481 20.1979 55.8325 19.9062 56.2388 19.7031C56.6502 19.4948 57.1086 19.3906 57.6138 19.3906C58.145 19.3906 58.6086 19.4844 59.0044 19.6719C59.4055 19.8542 59.744 20.1224 60.02 20.4766C60.3013 20.8255 60.5226 21.2474 60.6841 21.7422C60.8456 22.237 60.9575 22.7969 61.02 23.4219V24.1406C60.9627 24.7604 60.8508 25.3177 60.6841 25.8125C60.5226 26.3073 60.3013 26.7292 60.02 27.0781C59.744 27.4271 59.4055 27.6953 59.0044 27.8828C58.6034 28.0651 58.1346 28.1562 57.5982 28.1562C57.1034 28.1562 56.6502 28.0495 56.2388 27.8359C55.8325 27.6224 55.481 27.3229 55.1841 26.9375C54.8924 26.5521 54.6659 26.099 54.5044 25.5781C54.3482 25.0521 54.27 24.4818 54.27 23.8672ZM55.7232 23.7031V23.8672C55.7232 24.2891 55.7648 24.6849 55.8482 25.0547C55.9367 25.4245 56.0721 25.75 56.2544 26.0312C56.4367 26.3125 56.6685 26.5339 56.9497 26.6953C57.231 26.8516 57.5669 26.9297 57.9575 26.9297C58.4367 26.9297 58.8299 26.8281 59.1372 26.625C59.4497 26.4219 59.6997 26.1536 59.8872 25.8203C60.0747 25.487 60.2206 25.125 60.3247 24.7344V22.8516C60.2622 22.5651 60.1711 22.2891 60.0513 22.0234C59.9367 21.7526 59.7857 21.513 59.5982 21.3047C59.4159 21.0911 59.1893 20.9219 58.9185 20.7969C58.6529 20.6719 58.3377 20.6094 57.9732 20.6094C57.5773 20.6094 57.2362 20.6927 56.9497 20.8594C56.6685 21.0208 56.4367 21.2448 56.2544 21.5312C56.0721 21.8125 55.9367 22.1406 55.8482 22.5156C55.7648 22.8854 55.7232 23.2812 55.7232 23.7031ZM65.391 19.5469V28H63.9379V19.5469H65.391ZM63.8285 17.3047C63.8285 17.0703 63.8988 16.8724 64.0394 16.7109C64.1852 16.5495 64.3988 16.4688 64.68 16.4688C64.9561 16.4688 65.167 16.5495 65.3129 16.7109C65.4639 16.8724 65.5394 17.0703 65.5394 17.3047C65.5394 17.5286 65.4639 17.7214 65.3129 17.8828C65.167 18.0391 64.9561 18.1172 64.68 18.1172C64.3988 18.1172 64.1852 18.0391 64.0394 17.8828C63.8988 17.7214 63.8285 17.5286 63.8285 17.3047ZM69.3166 21.3516V28H67.8713V19.5469H69.2385L69.3166 21.3516ZM68.9729 23.4531L68.3713 23.4297C68.3765 22.8516 68.4624 22.3177 68.6291 21.8281C68.7958 21.3333 69.0301 20.9036 69.3322 20.5391C69.6343 20.1745 69.9937 19.8932 70.4104 19.6953C70.8322 19.4922 71.2984 19.3906 71.8088 19.3906C72.2255 19.3906 72.6005 19.4479 72.9338 19.5625C73.2671 19.6719 73.551 19.849 73.7854 20.0938C74.0249 20.3385 74.2072 20.6562 74.3322 21.0469C74.4572 21.4323 74.5197 21.9036 74.5197 22.4609V28H73.0666V22.4453C73.0666 22.0026 73.0015 21.6484 72.8713 21.3828C72.7411 21.112 72.551 20.9167 72.301 20.7969C72.051 20.6719 71.7437 20.6094 71.3791 20.6094C71.0197 20.6094 70.6916 20.6849 70.3947 20.8359C70.1031 20.987 69.8505 21.1953 69.6369 21.4609C69.4286 21.7266 69.2645 22.0312 69.1447 22.375C69.0301 22.7135 68.9729 23.0729 68.9729 23.4531ZM82.3516 19.5469H83.6641V27.8203C83.6641 28.5651 83.5131 29.2005 83.211 29.7266C82.9089 30.2526 82.487 30.651 81.9454 30.9219C81.4089 31.1979 80.7891 31.3359 80.086 31.3359C79.7943 31.3359 79.4506 31.2891 79.0547 31.1953C78.6641 31.1068 78.2787 30.9531 77.8985 30.7344C77.5235 30.5208 77.2084 30.2318 76.9532 29.8672L77.711 29.0078C78.0651 29.4349 78.4349 29.7318 78.8204 29.8984C79.211 30.0651 79.5964 30.1484 79.9766 30.1484C80.4349 30.1484 80.8308 30.0625 81.1641 29.8906C81.4974 29.7188 81.7552 29.4635 81.9375 29.125C82.125 28.7917 82.2188 28.3802 82.2188 27.8906V21.4062L82.3516 19.5469ZM76.5313 23.8672V23.7031C76.5313 23.0573 76.6068 22.4714 76.7579 21.9453C76.9141 21.4141 77.1355 20.9583 77.4219 20.5781C77.7136 20.1979 78.0651 19.9062 78.4766 19.7031C78.8881 19.4948 79.3516 19.3906 79.8672 19.3906C80.3985 19.3906 80.862 19.4844 81.2579 19.6719C81.6589 19.8542 81.9974 20.1224 82.2735 20.4766C82.5547 20.8255 82.7761 21.2474 82.9375 21.7422C83.099 22.237 83.211 22.7969 83.2735 23.4219V24.1406C83.2162 24.7604 83.1042 25.3177 82.9375 25.8125C82.7761 26.3073 82.5547 26.7292 82.2735 27.0781C81.9974 27.4271 81.6589 27.6953 81.2579 27.8828C80.8568 28.0651 80.3881 28.1562 79.8516 28.1562C79.3464 28.1562 78.8881 28.0495 78.4766 27.8359C78.0704 27.6224 77.7214 27.3229 77.4297 26.9375C77.1381 26.5521 76.9141 26.099 76.7579 25.5781C76.6068 25.0521 76.5313 24.4818 76.5313 23.8672ZM77.9766 23.7031V23.8672C77.9766 24.2891 78.0183 24.6849 78.1016 25.0547C78.1901 25.4245 78.323 25.75 78.5 26.0312C78.6823 26.3125 78.9141 26.5339 79.1954 26.6953C79.4766 26.8516 79.8125 26.9297 80.2032 26.9297C80.6823 26.9297 81.0782 26.8281 81.3907 26.625C81.7032 26.4219 81.9506 26.1536 82.1329 25.8203C82.3204 25.487 82.4662 25.125 82.5704 24.7344V22.8516C82.5131 22.5651 82.4245 22.2891 82.3047 22.0234C82.1901 21.7526 82.0391 21.513 81.8516 21.3047C81.6693 21.0911 81.4427 20.9219 81.1719 20.7969C80.9011 20.6719 80.5834 20.6094 80.2188 20.6094C79.823 20.6094 79.4818 20.6927 79.1954 20.8594C78.9141 21.0208 78.6823 21.2448 78.5 21.5312C78.323 21.8125 78.1901 22.1406 78.1016 22.5156C78.0183 22.8854 77.9766 23.2812 77.9766 23.7031Z" fill="white"/>
<defs>
<filter id="filter0_d_286_34095" x="0.792969" y="0" width="127.701" height="53" filterUnits="userSpaceOnUse" color-interpolation-filters="sRGB">
<feFlood flood-opacity="0" result="BackgroundImageFix"/>
<feColorMatrix in="SourceAlpha" type="matrix" values="0 0 0 0 0 0 0 0 0 0 0 0 0 0 0 0 0 0 127 0" result="hardAlpha"/>
<feOffset dx="2" dy="2"/>
<feGaussianBlur stdDeviation="2"/>
<feComposite in2="hardAlpha" operator="out"/>
<feColorMatrix type="matrix" values="0 0 0 0 0 0 0 0 0 0 0 0 0 0 0 0 0 0 0.25 0"/>
<feBlend mode="normal" in2="BackgroundImageFix" result="effect1_dropShadow_286_34095"/>
<feBlend mode="normal" in="SourceGraphic" in2="effect1_dropShadow_286_34095" result="shape"/>
</filter>
</defs>
</svg>
