<svg width="23" height="23" viewBox="0 0 23 23" fill="none" xmlns="http://www.w3.org/2000/svg">
<path d="M1.34375 6.10609C1.34375 14.8266 8.3393 21.8959 16.9688 21.8959H19.3125C20.6069 21.8959 21.6562 20.8355 21.6562 19.5274V18.0836C21.6562 17.5402 21.2903 17.0665 20.7686 16.9347L16.1611 15.7707C15.7037 15.6551 15.2223 15.8279 14.9394 16.209L13.9288 17.5708C13.6354 17.966 13.1281 18.1407 12.6691 17.9708C9.22437 16.6956 6.48974 13.9322 5.22788 10.4511C5.05973 9.98722 5.23267 9.47457 5.62375 9.17816L6.97127 8.15686C7.34847 7.87097 7.51939 7.38449 7.40503 6.92225L6.25316 2.26616C6.12274 1.73897 5.65401 1.36914 5.11628 1.36914H3.6875C2.39308 1.36914 1.34375 2.42954 1.34375 3.73762V6.10609Z" stroke="#04AA9C" stroke-width="2" stroke-linecap="round" stroke-linejoin="round"/>
</svg>
