<svg width="56" height="53" viewBox="0 0 56 53" fill="none" xmlns="http://www.w3.org/2000/svg">
<rect width="56" height="53" rx="5" fill="#04AA9C"/>
<path d="M28 18.75C28.9472 18.75 29.8556 19.1451 30.5254 19.8483C31.1952 20.5516 31.5714 21.5054 31.5714 22.5C31.5714 22.9925 31.4791 23.4801 31.2996 23.9351C31.1201 24.39 30.857 24.8034 30.5254 25.1517C30.1937 25.4999 29.8 25.7761 29.3667 25.9645C28.9334 26.153 28.469 26.25 28 26.25C27.0528 26.25 26.1444 25.8549 25.4746 25.1517C24.8048 24.4484 24.4286 23.4946 24.4286 22.5C24.4286 21.5054 24.8048 20.5516 25.4746 19.8483C26.1444 19.1451 27.0528 18.75 28 18.75ZM28 12C30.6522 12 33.1957 13.1062 35.0711 15.0754C36.9464 17.0445 38 19.7152 38 22.5C38 30.375 28 42 28 42C28 42 18 30.375 18 22.5C18 19.7152 19.0536 17.0445 20.9289 15.0754C22.8043 13.1062 25.3478 12 28 12ZM28 15C26.1056 15 24.2888 15.7902 22.9492 17.1967C21.6097 18.6032 20.8571 20.5109 20.8571 22.5C20.8571 24 20.8571 27 28 37.065C35.1429 27 35.1429 24 35.1429 22.5C35.1429 20.5109 34.3903 18.6032 33.0508 17.1967C31.7112 15.7902 29.8944 15 28 15Z" fill="white"/>
</svg>
