<svg width="50" height="50" viewBox="0 0 50 50" fill="none" xmlns="http://www.w3.org/2000/svg">
<path d="M23.5 32.5H26.5V26.5H32.5V23.5H26.5V17.5H23.5V23.5H17.5V26.5H23.5V32.5ZM25 40C22.925 40 20.975 39.606 19.15 38.818C17.325 38.03 15.7375 36.9615 14.3875 35.6125C13.0375 34.2625 11.969 32.675 11.182 30.85C10.395 29.025 10.001 27.075 10 25C10 22.925 10.394 20.975 11.182 19.15C11.97 17.325 13.0385 15.7375 14.3875 14.3875C15.7375 13.0375 17.325 11.969 19.15 11.182C20.975 10.395 22.925 10.001 25 10C27.075 10 29.025 10.394 30.85 11.182C32.675 11.97 34.2625 13.0385 35.6125 14.3875C36.9625 15.7375 38.0315 17.325 38.8195 19.15C39.6075 20.975 40.001 22.925 40 25C40 27.075 39.606 29.025 38.818 30.85C38.03 32.675 36.9615 34.2625 35.6125 35.6125C34.2625 36.9625 32.675 38.0315 30.85 38.8195C29.025 39.6075 27.075 40.001 25 40ZM25 37C28.35 37 31.1875 35.8375 33.5125 33.5125C35.8375 31.1875 37 28.35 37 25C37 21.65 35.8375 18.8125 33.5125 16.4875C31.1875 14.1625 28.35 13 25 13C21.65 13 18.8125 14.1625 16.4875 16.4875C14.1625 18.8125 13 21.65 13 25C13 28.35 14.1625 31.1875 16.4875 33.5125C18.8125 35.8375 21.65 37 25 37Z" fill="#04AA9C"/>
</svg>
