<svg width="128" height="53" viewBox="0 0 128 53" fill="none" xmlns="http://www.w3.org/2000/svg">
<g filter="url(#filter0_d_286_34101)">
<path d="M104.213 46.5H3.21677L19.6777 24.2978L19.9035 23.9933L19.6712 23.6937L3.2438 2.5H104.213L121.292 24.5L104.213 46.5Z" stroke="#B6B6B6" shape-rendering="crispEdges"/>
</g>
<path d="M32.6065 21.9531V22.6719C32.6065 23.526 32.4997 24.2917 32.2862 24.9688C32.0726 25.6458 31.7654 26.2214 31.3643 26.6953C30.9633 27.1693 30.4815 27.5312 29.919 27.7812C29.3617 28.0312 28.7367 28.1562 28.044 28.1562C27.3721 28.1562 26.7549 28.0312 26.1924 27.7812C25.6351 27.5312 25.1508 27.1693 24.7393 26.6953C24.3331 26.2214 24.018 25.6458 23.794 24.9688C23.57 24.2917 23.4581 23.526 23.4581 22.6719V21.9531C23.4581 21.099 23.5674 20.3359 23.7862 19.6641C24.0101 18.987 24.3253 18.4115 24.7315 17.9375C25.1378 17.4583 25.6195 17.0938 26.1768 16.8438C26.7393 16.5938 27.3565 16.4688 28.0284 16.4688C28.7211 16.4688 29.3461 16.5938 29.9034 16.8438C30.4659 17.0938 30.9476 17.4583 31.3487 17.9375C31.7549 18.4115 32.0648 18.987 32.2784 19.6641C32.4971 20.3359 32.6065 21.099 32.6065 21.9531ZM31.1143 22.6719V21.9375C31.1143 21.2604 31.044 20.6615 30.9034 20.1406C30.768 19.6198 30.5674 19.1823 30.3018 18.8281C30.0362 18.474 29.7107 18.2057 29.3253 18.0234C28.945 17.8411 28.5128 17.75 28.0284 17.75C27.5596 17.75 27.1351 17.8411 26.7549 18.0234C26.3799 18.2057 26.057 18.474 25.7862 18.8281C25.5206 19.1823 25.3148 19.6198 25.169 20.1406C25.0232 20.6615 24.9503 21.2604 24.9503 21.9375V22.6719C24.9503 23.3542 25.0232 23.9583 25.169 24.4844C25.3148 25.0052 25.5232 25.4453 25.794 25.8047C26.07 26.1589 26.3956 26.4271 26.7706 26.6094C27.1508 26.7917 27.5753 26.8828 28.044 26.8828C28.5336 26.8828 28.9685 26.7917 29.3487 26.6094C29.7289 26.4271 30.0492 26.1589 30.3096 25.8047C30.5753 25.4453 30.7758 25.0052 30.9112 24.4844C31.0466 23.9583 31.1143 23.3542 31.1143 22.6719ZM36.2509 21.3516V28H34.8056V19.5469H36.1728L36.2509 21.3516ZM35.9071 23.4531L35.3056 23.4297C35.3108 22.8516 35.3967 22.3177 35.5634 21.8281C35.73 21.3333 35.9644 20.9036 36.2665 20.5391C36.5686 20.1745 36.928 19.8932 37.3446 19.6953C37.7665 19.4922 38.2326 19.3906 38.7431 19.3906C39.1597 19.3906 39.5347 19.4479 39.8681 19.5625C40.2014 19.6719 40.4853 19.849 40.7196 20.0938C40.9592 20.3385 41.1415 20.6562 41.2665 21.0469C41.3915 21.4323 41.454 21.9036 41.454 22.4609V28H40.0009V22.4453C40.0009 22.0026 39.9358 21.6484 39.8056 21.3828C39.6754 21.112 39.4853 20.9167 39.2353 20.7969C38.9853 20.6719 38.678 20.6094 38.3134 20.6094C37.954 20.6094 37.6259 20.6849 37.329 20.8359C37.0373 20.987 36.7847 21.1953 36.5712 21.4609C36.3629 21.7266 36.1988 22.0312 36.079 22.375C35.9644 22.7135 35.9071 23.0729 35.9071 23.4531ZM49.3834 21.1719V31.25H47.9303V19.5469H49.2584L49.3834 21.1719ZM55.0787 23.7031V23.8672C55.0787 24.4818 55.0058 25.0521 54.8599 25.5781C54.7141 26.099 54.5006 26.5521 54.2193 26.9375C53.9433 27.3229 53.6021 27.6224 53.1959 27.8359C52.7896 28.0495 52.3235 28.1562 51.7974 28.1562C51.261 28.1562 50.787 28.0677 50.3756 27.8906C49.9641 27.7135 49.6151 27.4557 49.3287 27.1172C49.0422 26.7786 48.8131 26.3724 48.6412 25.8984C48.4745 25.4245 48.3599 24.8906 48.2974 24.2969V23.4219C48.3599 22.7969 48.4771 22.237 48.649 21.7422C48.8209 21.2474 49.0474 20.8255 49.3287 20.4766C49.6151 20.1224 49.9615 19.8542 50.3678 19.6719C50.774 19.4844 51.2428 19.3906 51.774 19.3906C52.3053 19.3906 52.7766 19.4948 53.1881 19.7031C53.5995 19.9062 53.9459 20.1979 54.2271 20.5781C54.5084 20.9583 54.7193 21.4141 54.8599 21.9453C55.0058 22.4714 55.0787 23.0573 55.0787 23.7031ZM53.6256 23.8672V23.7031C53.6256 23.2812 53.5813 22.8854 53.4928 22.5156C53.4042 22.1406 53.2662 21.8125 53.0787 21.5312C52.8964 21.2448 52.662 21.0208 52.3756 20.8594C52.0891 20.6927 51.748 20.6094 51.3521 20.6094C50.9875 20.6094 50.6698 20.6719 50.399 20.7969C50.1334 20.9219 49.9068 21.0911 49.7193 21.3047C49.5318 21.513 49.3782 21.7526 49.2584 22.0234C49.1438 22.2891 49.0579 22.5651 49.0006 22.8516V24.875C49.1047 25.2396 49.2506 25.5833 49.4381 25.9062C49.6256 26.224 49.8756 26.4818 50.1881 26.6797C50.5006 26.8724 50.8938 26.9688 51.3678 26.9688C51.7584 26.9688 52.0943 26.888 52.3756 26.7266C52.662 26.5599 52.8964 26.3333 53.0787 26.0469C53.2662 25.7604 53.4042 25.4323 53.4928 25.0625C53.5813 24.6875 53.6256 24.2891 53.6256 23.8672ZM58.5278 20.875V28H57.0824V19.5469H58.4887L58.5278 20.875ZM61.1684 19.5L61.1606 20.8438C61.0408 20.8177 60.9262 20.8021 60.8168 20.7969C60.7126 20.7865 60.5929 20.7812 60.4574 20.7812C60.1241 20.7812 59.8298 20.8333 59.5746 20.9375C59.3194 21.0417 59.1033 21.1875 58.9262 21.375C58.7491 21.5625 58.6085 21.7865 58.5043 22.0469C58.4054 22.3021 58.3403 22.5833 58.309 22.8906L57.9028 23.125C57.9028 22.6146 57.9522 22.1354 58.0512 21.6875C58.1554 21.2396 58.3142 20.8438 58.5278 20.5C58.7413 20.151 59.0121 19.8802 59.3403 19.6875C59.6736 19.4896 60.0694 19.3906 60.5278 19.3906C60.6319 19.3906 60.7517 19.4036 60.8871 19.4297C61.0225 19.4505 61.1163 19.474 61.1684 19.5ZM62.1253 23.8672V23.6875C62.1253 23.0781 62.2138 22.513 62.3909 21.9922C62.568 21.4661 62.8232 21.0104 63.1565 20.625C63.4898 20.2344 63.8935 19.9323 64.3674 19.7188C64.8414 19.5 65.3726 19.3906 65.9612 19.3906C66.5549 19.3906 67.0888 19.5 67.5628 19.7188C68.0419 19.9323 68.4482 20.2344 68.7815 20.625C69.12 21.0104 69.3779 21.4661 69.5549 21.9922C69.732 22.513 69.8206 23.0781 69.8206 23.6875V23.8672C69.8206 24.4766 69.732 25.0417 69.5549 25.5625C69.3779 26.0833 69.12 26.5391 68.7815 26.9297C68.4482 27.3151 68.0445 27.6172 67.5706 27.8359C67.1018 28.0495 66.5706 28.1562 65.9768 28.1562C65.3831 28.1562 64.8492 28.0495 64.3753 27.8359C63.9013 27.6172 63.495 27.3151 63.1565 26.9297C62.8232 26.5391 62.568 26.0833 62.3909 25.5625C62.2138 25.0417 62.1253 24.4766 62.1253 23.8672ZM63.5706 23.6875V23.8672C63.5706 24.2891 63.62 24.6875 63.719 25.0625C63.818 25.4323 63.9664 25.7604 64.1643 26.0469C64.3674 26.3333 64.62 26.5599 64.9221 26.7266C65.2242 26.888 65.5758 26.9688 65.9768 26.9688C66.3726 26.9688 66.719 26.888 67.0159 26.7266C67.318 26.5599 67.568 26.3333 67.7659 26.0469C67.9638 25.7604 68.1122 25.4323 68.2112 25.0625C68.3154 24.6875 68.3674 24.2891 68.3674 23.8672V23.6875C68.3674 23.2708 68.3154 22.8776 68.2112 22.5078C68.1122 22.1328 67.9612 21.8021 67.7581 21.5156C67.5601 21.224 67.3101 20.9948 67.0081 20.8281C66.7112 20.6615 66.3622 20.5781 65.9612 20.5781C65.5654 20.5781 65.2164 20.6615 64.9143 20.8281C64.6174 20.9948 64.3674 21.224 64.1643 21.5156C63.9664 21.8021 63.818 22.1328 63.719 22.5078C63.62 22.8776 63.5706 23.2708 63.5706 23.6875ZM77.2696 19.5469H78.5821V27.8203C78.5821 28.5651 78.4311 29.2005 78.129 29.7266C77.8269 30.2526 77.405 30.651 76.8634 30.9219C76.3269 31.1979 75.7071 31.3359 75.004 31.3359C74.7123 31.3359 74.3686 31.2891 73.9728 31.1953C73.5821 31.1068 73.1967 30.9531 72.8165 30.7344C72.4415 30.5208 72.1264 30.2318 71.8712 29.8672L72.629 29.0078C72.9832 29.4349 73.353 29.7318 73.7384 29.8984C74.129 30.0651 74.5144 30.1484 74.8946 30.1484C75.353 30.1484 75.7488 30.0625 76.0821 29.8906C76.4155 29.7188 76.6733 29.4635 76.8556 29.125C77.0431 28.7917 77.1368 28.3802 77.1368 27.8906V21.4062L77.2696 19.5469ZM71.4493 23.8672V23.7031C71.4493 23.0573 71.5248 22.4714 71.6759 21.9453C71.8321 21.4141 72.0535 20.9583 72.3399 20.5781C72.6316 20.1979 72.9832 19.9062 73.3946 19.7031C73.8061 19.4948 74.2696 19.3906 74.7853 19.3906C75.3165 19.3906 75.78 19.4844 76.1759 19.6719C76.5769 19.8542 76.9155 20.1224 77.1915 20.4766C77.4728 20.8255 77.6941 21.2474 77.8556 21.7422C78.017 22.237 78.129 22.7969 78.1915 23.4219V24.1406C78.1342 24.7604 78.0222 25.3177 77.8556 25.8125C77.6941 26.3073 77.4728 26.7292 77.1915 27.0781C76.9155 27.4271 76.5769 27.6953 76.1759 27.8828C75.7748 28.0651 75.3061 28.1562 74.7696 28.1562C74.2644 28.1562 73.8061 28.0495 73.3946 27.8359C72.9884 27.6224 72.6394 27.3229 72.3478 26.9375C72.0561 26.5521 71.8321 26.099 71.6759 25.5781C71.5248 25.0521 71.4493 24.4818 71.4493 23.8672ZM72.8946 23.7031V23.8672C72.8946 24.2891 72.9363 24.6849 73.0196 25.0547C73.1082 25.4245 73.241 25.75 73.4181 26.0312C73.6004 26.3125 73.8321 26.5339 74.1134 26.6953C74.3946 26.8516 74.7306 26.9297 75.1212 26.9297C75.6004 26.9297 75.9962 26.8281 76.3087 26.625C76.6212 26.4219 76.8686 26.1536 77.0509 25.8203C77.2384 25.487 77.3842 25.125 77.4884 24.7344V22.8516C77.4311 22.5651 77.3425 22.2891 77.2228 22.0234C77.1082 21.7526 76.9571 21.513 76.7696 21.3047C76.5873 21.0911 76.3608 20.9219 76.0899 20.7969C75.8191 20.6719 75.5014 20.6094 75.1368 20.6094C74.741 20.6094 74.3998 20.6927 74.1134 20.8594C73.8321 21.0208 73.6004 21.2448 73.4181 21.5312C73.241 21.8125 73.1082 22.1406 73.0196 22.5156C72.9363 22.8854 72.8946 23.2812 72.8946 23.7031ZM82.3828 20.875V28H80.9374V19.5469H82.3437L82.3828 20.875ZM85.0234 19.5L85.0156 20.8438C84.8958 20.8177 84.7812 20.8021 84.6718 20.7969C84.5676 20.7865 84.4479 20.7812 84.3124 20.7812C83.9791 20.7812 83.6848 20.8333 83.4296 20.9375C83.1744 21.0417 82.9583 21.1875 82.7812 21.375C82.6041 21.5625 82.4635 21.7865 82.3593 22.0469C82.2604 22.3021 82.1953 22.5833 82.164 22.8906L81.7578 23.125C81.7578 22.6146 81.8072 22.1354 81.9062 21.6875C82.0104 21.2396 82.1692 20.8438 82.3828 20.5C82.5963 20.151 82.8671 19.8802 83.1953 19.6875C83.5286 19.4896 83.9244 19.3906 84.3828 19.3906C84.4869 19.3906 84.6067 19.4036 84.7421 19.4297C84.8775 19.4505 84.9713 19.474 85.0234 19.5ZM89.8709 28.1562C89.2823 28.1562 88.7485 28.0573 88.2693 27.8594C87.7954 27.6562 87.3865 27.3724 87.0428 27.0078C86.7042 26.6432 86.4438 26.2109 86.2615 25.7109C86.0792 25.2109 85.9881 24.6641 85.9881 24.0703V23.7422C85.9881 23.0547 86.0896 22.4427 86.2928 21.9062C86.4959 21.3646 86.7719 20.9062 87.1209 20.5312C87.4698 20.1562 87.8657 19.8724 88.3084 19.6797C88.7511 19.487 89.2094 19.3906 89.6834 19.3906C90.2875 19.3906 90.8084 19.4948 91.2459 19.7031C91.6886 19.9115 92.0506 20.2031 92.3318 20.5781C92.6131 20.9479 92.8214 21.3854 92.9568 21.8906C93.0922 22.3906 93.1599 22.9375 93.1599 23.5312V24.1797H86.8474V23H91.7146V22.8906C91.6938 22.5156 91.6157 22.151 91.4803 21.7969C91.35 21.4427 91.1417 21.151 90.8553 20.9219C90.5688 20.6927 90.1782 20.5781 89.6834 20.5781C89.3553 20.5781 89.0532 20.6484 88.7771 20.7891C88.5011 20.9245 88.2641 21.1276 88.0662 21.3984C87.8683 21.6693 87.7146 22 87.6053 22.3906C87.4959 22.7812 87.4412 23.2318 87.4412 23.7422V24.0703C87.4412 24.4714 87.4959 24.849 87.6053 25.2031C87.7198 25.5521 87.8839 25.8594 88.0974 26.125C88.3162 26.3906 88.5792 26.599 88.8865 26.75C89.199 26.901 89.5532 26.9766 89.949 26.9766C90.4594 26.9766 90.8917 26.8724 91.2459 26.6641C91.6 26.4557 91.9099 26.1771 92.1756 25.8281L93.0506 26.5234C92.8683 26.7995 92.6365 27.0625 92.3553 27.3125C92.074 27.5625 91.7277 27.7656 91.3162 27.9219C90.9099 28.0781 90.4282 28.1562 89.8709 28.1562ZM99.9293 25.7578C99.9293 25.5495 99.8824 25.3568 99.7887 25.1797C99.7002 24.9974 99.5153 24.8333 99.234 24.6875C98.958 24.5365 98.5413 24.4062 97.984 24.2969C97.5153 24.1979 97.0908 24.0807 96.7106 23.9453C96.3356 23.8099 96.0153 23.6458 95.7496 23.4531C95.4892 23.2604 95.2887 23.0339 95.1481 22.7734C95.0074 22.513 94.9371 22.2083 94.9371 21.8594C94.9371 21.526 95.0101 21.2109 95.1559 20.9141C95.3069 20.6172 95.5179 20.3542 95.7887 20.125C96.0647 19.8958 96.3955 19.7161 96.7809 19.5859C97.1663 19.4557 97.596 19.3906 98.0699 19.3906C98.747 19.3906 99.3252 19.5104 99.8043 19.75C100.283 19.9896 100.651 20.3099 100.906 20.7109C101.161 21.1068 101.289 21.5469 101.289 22.0312H99.8434C99.8434 21.7969 99.7731 21.5703 99.6324 21.3516C99.497 21.1276 99.2965 20.9427 99.0309 20.7969C98.7705 20.651 98.4502 20.5781 98.0699 20.5781C97.6689 20.5781 97.3434 20.6406 97.0934 20.7656C96.8486 20.8854 96.6689 21.0391 96.5543 21.2266C96.4449 21.4141 96.3903 21.612 96.3903 21.8203C96.3903 21.9766 96.4163 22.1172 96.4684 22.2422C96.5257 22.362 96.6246 22.474 96.7653 22.5781C96.9059 22.6771 97.1038 22.7708 97.359 22.8594C97.6142 22.9479 97.9397 23.0365 98.3356 23.125C99.0283 23.2812 99.5986 23.4688 100.047 23.6875C100.494 23.9062 100.828 24.1745 101.047 24.4922C101.265 24.8099 101.375 25.1953 101.375 25.6484C101.375 26.0182 101.297 26.3568 101.14 26.6641C100.989 26.9714 100.768 27.237 100.476 27.4609C100.19 27.6797 99.846 27.8516 99.4449 27.9766C99.0491 28.0964 98.6038 28.1562 98.109 28.1562C97.3642 28.1562 96.734 28.0234 96.2184 27.7578C95.7028 27.4922 95.3121 27.1484 95.0465 26.7266C94.7809 26.3047 94.6481 25.8594 94.6481 25.3906H96.1012C96.122 25.7865 96.2366 26.1016 96.4449 26.3359C96.6533 26.5651 96.9085 26.7292 97.2106 26.8281C97.5127 26.9219 97.8121 26.9688 98.109 26.9688C98.5048 26.9688 98.8356 26.9167 99.1012 26.8125C99.372 26.7083 99.5778 26.5651 99.7184 26.3828C99.859 26.2005 99.9293 25.9922 99.9293 25.7578ZM108.355 25.7578C108.355 25.5495 108.308 25.3568 108.214 25.1797C108.126 24.9974 107.941 24.8333 107.66 24.6875C107.384 24.5365 106.967 24.4062 106.41 24.2969C105.941 24.1979 105.516 24.0807 105.136 23.9453C104.761 23.8099 104.441 23.6458 104.175 23.4531C103.915 23.2604 103.714 23.0339 103.574 22.7734C103.433 22.513 103.363 22.2083 103.363 21.8594C103.363 21.526 103.436 21.2109 103.581 20.9141C103.733 20.6172 103.943 20.3542 104.214 20.125C104.49 19.8958 104.821 19.7161 105.206 19.5859C105.592 19.4557 106.022 19.3906 106.496 19.3906C107.173 19.3906 107.751 19.5104 108.23 19.75C108.709 19.9896 109.076 20.3099 109.331 20.7109C109.587 21.1068 109.714 21.5469 109.714 22.0312H108.269C108.269 21.7969 108.199 21.5703 108.058 21.3516C107.923 21.1276 107.722 20.9427 107.456 20.7969C107.196 20.651 106.876 20.5781 106.496 20.5781C106.095 20.5781 105.769 20.6406 105.519 20.7656C105.274 20.8854 105.095 21.0391 104.98 21.2266C104.871 21.4141 104.816 21.612 104.816 21.8203C104.816 21.9766 104.842 22.1172 104.894 22.2422C104.951 22.362 105.05 22.474 105.191 22.5781C105.331 22.6771 105.529 22.7708 105.785 22.8594C106.04 22.9479 106.365 23.0365 106.761 23.125C107.454 23.2812 108.024 23.4688 108.472 23.6875C108.92 23.9062 109.253 24.1745 109.472 24.4922C109.691 24.8099 109.8 25.1953 109.8 25.6484C109.8 26.0182 109.722 26.3568 109.566 26.6641C109.415 26.9714 109.193 27.237 108.902 27.4609C108.615 27.6797 108.272 27.8516 107.871 27.9766C107.475 28.0964 107.029 28.1562 106.535 28.1562C105.79 28.1562 105.16 28.0234 104.644 27.7578C104.128 27.4922 103.738 27.1484 103.472 26.7266C103.206 26.3047 103.074 25.8594 103.074 25.3906H104.527C104.548 25.7865 104.662 26.1016 104.871 26.3359C105.079 26.5651 105.334 26.7292 105.636 26.8281C105.938 26.9219 106.238 26.9688 106.535 26.9688C106.93 26.9688 107.261 26.9167 107.527 26.8125C107.798 26.7083 108.003 26.5651 108.144 26.3828C108.285 26.2005 108.355 25.9922 108.355 25.7578Z" fill="#B6B6B6"/>
<defs>
<filter id="filter0_d_286_34101" x="0.223633" y="0" width="127.701" height="53" filterUnits="userSpaceOnUse" color-interpolation-filters="sRGB">
<feFlood flood-opacity="0" result="BackgroundImageFix"/>
<feColorMatrix in="SourceAlpha" type="matrix" values="0 0 0 0 0 0 0 0 0 0 0 0 0 0 0 0 0 0 127 0" result="hardAlpha"/>
<feOffset dx="2" dy="2"/>
<feGaussianBlur stdDeviation="2"/>
<feComposite in2="hardAlpha" operator="out"/>
<feColorMatrix type="matrix" values="0 0 0 0 0 0 0 0 0 0 0 0 0 0 0 0 0 0 0.25 0"/>
<feBlend mode="normal" in2="BackgroundImageFix" result="effect1_dropShadow_286_34101"/>
<feBlend mode="normal" in="SourceGraphic" in2="effect1_dropShadow_286_34101" result="shape"/>
</filter>
</defs>
</svg>
