<svg width="129" height="53" viewBox="0 0 129 53" fill="none" xmlns="http://www.w3.org/2000/svg">
<g filter="url(#filter0_d_286_34097)">
<path d="M2.82227 2H105.056L122.524 24.5L105.056 47H2.82227L19.8747 24L2.82227 2Z" fill="#F0AE02"/>
</g>
<path d="M33.2051 21.9531V22.6719C33.2051 23.526 33.0984 24.2917 32.8848 24.9688C32.6713 25.6458 32.364 26.2214 31.9629 26.6953C31.5619 27.1693 31.0801 27.5312 30.5176 27.7812C29.9603 28.0312 29.3353 28.1562 28.6426 28.1562C27.9708 28.1562 27.3536 28.0312 26.7911 27.7812C26.2338 27.5312 25.7494 27.1693 25.3379 26.6953C24.9317 26.2214 24.6166 25.6458 24.3926 24.9688C24.1687 24.2917 24.0567 23.526 24.0567 22.6719V21.9531C24.0567 21.099 24.1661 20.3359 24.3848 19.6641C24.6088 18.987 24.9239 18.4115 25.3301 17.9375C25.7364 17.4583 26.2182 17.0938 26.7754 16.8438C27.3379 16.5938 27.9551 16.4688 28.627 16.4688C29.3197 16.4688 29.9447 16.5938 30.502 16.8438C31.0645 17.0938 31.5463 17.4583 31.9473 17.9375C32.3536 18.4115 32.6635 18.987 32.877 19.6641C33.0958 20.3359 33.2051 21.099 33.2051 21.9531ZM31.7129 22.6719V21.9375C31.7129 21.2604 31.6426 20.6615 31.502 20.1406C31.3666 19.6198 31.1661 19.1823 30.9004 18.8281C30.6348 18.474 30.3093 18.2057 29.9239 18.0234C29.5437 17.8411 29.1114 17.75 28.627 17.75C28.1583 17.75 27.7338 17.8411 27.3536 18.0234C26.9786 18.2057 26.6557 18.474 26.3848 18.8281C26.1192 19.1823 25.9135 19.6198 25.7676 20.1406C25.6218 20.6615 25.5489 21.2604 25.5489 21.9375V22.6719C25.5489 23.3542 25.6218 23.9583 25.7676 24.4844C25.9135 25.0052 26.1218 25.4453 26.3926 25.8047C26.6687 26.1589 26.9942 26.4271 27.3692 26.6094C27.7494 26.7917 28.1739 26.8828 28.6426 26.8828C29.1322 26.8828 29.5671 26.7917 29.9473 26.6094C30.3275 26.4271 30.6478 26.1589 30.9083 25.8047C31.1739 25.4453 31.3744 25.0052 31.5098 24.4844C31.6452 23.9583 31.7129 23.3542 31.7129 22.6719ZM36.8495 21.3516V28H35.4042V19.5469H36.7714L36.8495 21.3516ZM36.5058 23.4531L35.9042 23.4297C35.9094 22.8516 35.9953 22.3177 36.162 21.8281C36.3287 21.3333 36.5631 20.9036 36.8651 20.5391C37.1672 20.1745 37.5266 19.8932 37.9433 19.6953C38.3651 19.4922 38.8313 19.3906 39.3417 19.3906C39.7584 19.3906 40.1334 19.4479 40.4667 19.5625C40.8 19.6719 41.0839 19.849 41.3183 20.0938C41.5578 20.3385 41.7401 20.6562 41.8651 21.0469C41.9901 21.4323 42.0526 21.9036 42.0526 22.4609V28H40.5995V22.4453C40.5995 22.0026 40.5344 21.6484 40.4042 21.3828C40.274 21.112 40.0839 20.9167 39.8339 20.7969C39.5839 20.6719 39.2766 20.6094 38.912 20.6094C38.5526 20.6094 38.2245 20.6849 37.9276 20.8359C37.636 20.987 37.3834 21.1953 37.1698 21.4609C36.9615 21.7266 36.7974 22.0312 36.6776 22.375C36.5631 22.7135 36.5058 23.0729 36.5058 23.4531ZM49.982 21.1719V31.25H48.5289V19.5469H49.857L49.982 21.1719ZM55.6773 23.7031V23.8672C55.6773 24.4818 55.6044 25.0521 55.4586 25.5781C55.3127 26.099 55.0992 26.5521 54.8179 26.9375C54.5419 27.3229 54.2008 27.6224 53.7945 27.8359C53.3883 28.0495 52.9221 28.1562 52.3961 28.1562C51.8596 28.1562 51.3857 28.0677 50.9742 27.8906C50.5627 27.7135 50.2138 27.4557 49.9273 27.1172C49.6409 26.7786 49.4117 26.3724 49.2398 25.8984C49.0732 25.4245 48.9586 24.8906 48.8961 24.2969V23.4219C48.9586 22.7969 49.0758 22.237 49.2476 21.7422C49.4195 21.2474 49.6461 20.8255 49.9273 20.4766C50.2138 20.1224 50.5601 19.8542 50.9664 19.6719C51.3726 19.4844 51.8414 19.3906 52.3726 19.3906C52.9039 19.3906 53.3752 19.4948 53.7867 19.7031C54.1982 19.9062 54.5445 20.1979 54.8258 20.5781C55.107 20.9583 55.3179 21.4141 55.4586 21.9453C55.6044 22.4714 55.6773 23.0573 55.6773 23.7031ZM54.2242 23.8672V23.7031C54.2242 23.2812 54.1799 22.8854 54.0914 22.5156C54.0028 22.1406 53.8648 21.8125 53.6773 21.5312C53.495 21.2448 53.2607 21.0208 52.9742 20.8594C52.6877 20.6927 52.3466 20.6094 51.9508 20.6094C51.5862 20.6094 51.2685 20.6719 50.9976 20.7969C50.732 20.9219 50.5054 21.0911 50.3179 21.3047C50.1304 21.513 49.9768 21.7526 49.857 22.0234C49.7424 22.2891 49.6565 22.5651 49.5992 22.8516V24.875C49.7034 25.2396 49.8492 25.5833 50.0367 25.9062C50.2242 26.224 50.4742 26.4818 50.7867 26.6797C51.0992 26.8724 51.4924 26.9688 51.9664 26.9688C52.357 26.9688 52.6929 26.888 52.9742 26.7266C53.2607 26.5599 53.495 26.3333 53.6773 26.0469C53.8648 25.7604 54.0028 25.4323 54.0914 25.0625C54.1799 24.6875 54.2242 24.2891 54.2242 23.8672ZM59.1264 20.875V28H57.6811V19.5469H59.0873L59.1264 20.875ZM61.767 19.5L61.7592 20.8438C61.6394 20.8177 61.5248 20.8021 61.4154 20.7969C61.3113 20.7865 61.1915 20.7812 61.0561 20.7812C60.7227 20.7812 60.4285 20.8333 60.1733 20.9375C59.9181 21.0417 59.7019 21.1875 59.5248 21.375C59.3477 21.5625 59.2071 21.7865 59.1029 22.0469C59.004 22.3021 58.9389 22.5833 58.9076 22.8906L58.5014 23.125C58.5014 22.6146 58.5509 22.1354 58.6498 21.6875C58.754 21.2396 58.9128 20.8438 59.1264 20.5C59.3399 20.151 59.6108 19.8802 59.9389 19.6875C60.2722 19.4896 60.6681 19.3906 61.1264 19.3906C61.2306 19.3906 61.3503 19.4036 61.4858 19.4297C61.6212 19.4505 61.7149 19.474 61.767 19.5ZM62.7239 23.8672V23.6875C62.7239 23.0781 62.8124 22.513 62.9895 21.9922C63.1666 21.4661 63.4218 21.0104 63.7551 20.625C64.0885 20.2344 64.4921 19.9323 64.9661 19.7188C65.44 19.5 65.9713 19.3906 66.5598 19.3906C67.1536 19.3906 67.6874 19.5 68.1614 19.7188C68.6406 19.9323 69.0468 20.2344 69.3801 20.625C69.7187 21.0104 69.9765 21.4661 70.1536 21.9922C70.3307 22.513 70.4192 23.0781 70.4192 23.6875V23.8672C70.4192 24.4766 70.3307 25.0417 70.1536 25.5625C69.9765 26.0833 69.7187 26.5391 69.3801 26.9297C69.0468 27.3151 68.6432 27.6172 68.1692 27.8359C67.7004 28.0495 67.1692 28.1562 66.5754 28.1562C65.9817 28.1562 65.4478 28.0495 64.9739 27.8359C64.4999 27.6172 64.0937 27.3151 63.7551 26.9297C63.4218 26.5391 63.1666 26.0833 62.9895 25.5625C62.8124 25.0417 62.7239 24.4766 62.7239 23.8672ZM64.1692 23.6875V23.8672C64.1692 24.2891 64.2187 24.6875 64.3176 25.0625C64.4166 25.4323 64.565 25.7604 64.7629 26.0469C64.9661 26.3333 65.2187 26.5599 65.5208 26.7266C65.8228 26.888 66.1744 26.9688 66.5754 26.9688C66.9713 26.9688 67.3176 26.888 67.6145 26.7266C67.9166 26.5599 68.1666 26.3333 68.3645 26.0469C68.5624 25.7604 68.7109 25.4323 68.8098 25.0625C68.914 24.6875 68.9661 24.2891 68.9661 23.8672V23.6875C68.9661 23.2708 68.914 22.8776 68.8098 22.5078C68.7109 22.1328 68.5598 21.8021 68.3567 21.5156C68.1588 21.224 67.9088 20.9948 67.6067 20.8281C67.3098 20.6615 66.9609 20.5781 66.5598 20.5781C66.164 20.5781 65.815 20.6615 65.5129 20.8281C65.2161 20.9948 64.9661 21.224 64.7629 21.5156C64.565 21.8021 64.4166 22.1328 64.3176 22.5078C64.2187 22.8776 64.1692 23.2708 64.1692 23.6875ZM77.8683 19.5469H79.1808V27.8203C79.1808 28.5651 79.0297 29.2005 78.7276 29.7266C78.4256 30.2526 78.0037 30.651 77.462 30.9219C76.9256 31.1979 76.3058 31.3359 75.6026 31.3359C75.311 31.3359 74.9672 31.2891 74.5714 31.1953C74.1808 31.1068 73.7953 30.9531 73.4151 30.7344C73.0401 30.5208 72.725 30.2318 72.4698 29.8672L73.2276 29.0078C73.5818 29.4349 73.9516 29.7318 74.337 29.8984C74.7276 30.0651 75.1131 30.1484 75.4933 30.1484C75.9516 30.1484 76.3474 30.0625 76.6808 29.8906C77.0141 29.7188 77.2719 29.4635 77.4542 29.125C77.6417 28.7917 77.7354 28.3802 77.7354 27.8906V21.4062L77.8683 19.5469ZM72.0479 23.8672V23.7031C72.0479 23.0573 72.1235 22.4714 72.2745 21.9453C72.4308 21.4141 72.6521 20.9583 72.9386 20.5781C73.2302 20.1979 73.5818 19.9062 73.9933 19.7031C74.4047 19.4948 74.8683 19.3906 75.3839 19.3906C75.9151 19.3906 76.3787 19.4844 76.7745 19.6719C77.1756 19.8542 77.5141 20.1224 77.7901 20.4766C78.0714 20.8255 78.2927 21.2474 78.4542 21.7422C78.6157 22.237 78.7276 22.7969 78.7901 23.4219V24.1406C78.7328 24.7604 78.6209 25.3177 78.4542 25.8125C78.2927 26.3073 78.0714 26.7292 77.7901 27.0781C77.5141 27.4271 77.1756 27.6953 76.7745 27.8828C76.3735 28.0651 75.9047 28.1562 75.3683 28.1562C74.8631 28.1562 74.4047 28.0495 73.9933 27.8359C73.587 27.6224 73.2381 27.3229 72.9464 26.9375C72.6547 26.5521 72.4308 26.099 72.2745 25.5781C72.1235 25.0521 72.0479 24.4818 72.0479 23.8672ZM73.4933 23.7031V23.8672C73.4933 24.2891 73.5349 24.6849 73.6183 25.0547C73.7068 25.4245 73.8396 25.75 74.0167 26.0312C74.199 26.3125 74.4308 26.5339 74.712 26.6953C74.9933 26.8516 75.3292 26.9297 75.7198 26.9297C76.199 26.9297 76.5948 26.8281 76.9073 26.625C77.2198 26.4219 77.4672 26.1536 77.6495 25.8203C77.837 25.487 77.9828 25.125 78.087 24.7344V22.8516C78.0297 22.5651 77.9412 22.2891 77.8214 22.0234C77.7068 21.7526 77.5558 21.513 77.3683 21.3047C77.186 21.0911 76.9594 20.9219 76.6886 20.7969C76.4177 20.6719 76.1 20.6094 75.7354 20.6094C75.3396 20.6094 74.9985 20.6927 74.712 20.8594C74.4308 21.0208 74.199 21.2448 74.0167 21.5312C73.8396 21.8125 73.7068 22.1406 73.6183 22.5156C73.5349 22.8854 73.4933 23.2812 73.4933 23.7031ZM82.9814 20.875V28H81.5361V19.5469H82.9423L82.9814 20.875ZM85.622 19.5L85.6142 20.8438C85.4944 20.8177 85.3798 20.8021 85.2704 20.7969C85.1663 20.7865 85.0465 20.7812 84.9111 20.7812C84.5777 20.7812 84.2835 20.8333 84.0283 20.9375C83.7731 21.0417 83.5569 21.1875 83.3798 21.375C83.2027 21.5625 83.0621 21.7865 82.9579 22.0469C82.859 22.3021 82.7939 22.5833 82.7626 22.8906L82.3564 23.125C82.3564 22.6146 82.4059 22.1354 82.5048 21.6875C82.609 21.2396 82.7678 20.8438 82.9814 20.5C83.1949 20.151 83.4658 19.8802 83.7939 19.6875C84.1272 19.4896 84.5231 19.3906 84.9814 19.3906C85.0856 19.3906 85.2053 19.4036 85.3408 19.4297C85.4762 19.4505 85.5699 19.474 85.622 19.5ZM90.4695 28.1562C89.881 28.1562 89.3471 28.0573 88.868 27.8594C88.394 27.6562 87.9851 27.3724 87.6414 27.0078C87.3028 26.6432 87.0424 26.2109 86.8601 25.7109C86.6778 25.2109 86.5867 24.6641 86.5867 24.0703V23.7422C86.5867 23.0547 86.6883 22.4427 86.8914 21.9062C87.0945 21.3646 87.3706 20.9062 87.7195 20.5312C88.0685 20.1562 88.4643 19.8724 88.907 19.6797C89.3497 19.487 89.8081 19.3906 90.282 19.3906C90.8862 19.3906 91.407 19.4948 91.8445 19.7031C92.2872 19.9115 92.6492 20.2031 92.9305 20.5781C93.2117 20.9479 93.42 21.3854 93.5555 21.8906C93.6909 22.3906 93.7586 22.9375 93.7586 23.5312V24.1797H87.4461V23H92.3133V22.8906C92.2924 22.5156 92.2143 22.151 92.0789 21.7969C91.9487 21.4427 91.7403 21.151 91.4539 20.9219C91.1674 20.6927 90.7768 20.5781 90.282 20.5781C89.9539 20.5781 89.6518 20.6484 89.3758 20.7891C89.0997 20.9245 88.8627 21.1276 88.6648 21.3984C88.4669 21.6693 88.3133 22 88.2039 22.3906C88.0945 22.7812 88.0398 23.2318 88.0398 23.7422V24.0703C88.0398 24.4714 88.0945 24.849 88.2039 25.2031C88.3185 25.5521 88.4825 25.8594 88.6961 26.125C88.9148 26.3906 89.1778 26.599 89.4851 26.75C89.7976 26.901 90.1518 26.9766 90.5476 26.9766C91.0581 26.9766 91.4903 26.8724 91.8445 26.6641C92.1987 26.4557 92.5086 26.1771 92.7742 25.8281L93.6492 26.5234C93.4669 26.7995 93.2351 27.0625 92.9539 27.3125C92.6726 27.5625 92.3263 27.7656 91.9148 27.9219C91.5086 28.0781 91.0268 28.1562 90.4695 28.1562ZM100.528 25.7578C100.528 25.5495 100.481 25.3568 100.387 25.1797C100.299 24.9974 100.114 24.8333 99.8326 24.6875C99.5566 24.5365 99.1399 24.4062 98.5826 24.2969C98.1139 24.1979 97.6894 24.0807 97.3092 23.9453C96.9342 23.8099 96.6139 23.6458 96.3483 23.4531C96.0878 23.2604 95.8873 23.0339 95.7467 22.7734C95.6061 22.513 95.5358 22.2083 95.5358 21.8594C95.5358 21.526 95.6087 21.2109 95.7545 20.9141C95.9056 20.6172 96.1165 20.3542 96.3873 20.125C96.6634 19.8958 96.9941 19.7161 97.3795 19.5859C97.7649 19.4557 98.1946 19.3906 98.6686 19.3906C99.3457 19.3906 99.9238 19.5104 100.403 19.75C100.882 19.9896 101.249 20.3099 101.505 20.7109C101.76 21.1068 101.887 21.5469 101.887 22.0312H100.442C100.442 21.7969 100.372 21.5703 100.231 21.3516C100.096 21.1276 99.8951 20.9427 99.6295 20.7969C99.3691 20.651 99.0488 20.5781 98.6686 20.5781C98.2675 20.5781 97.942 20.6406 97.692 20.7656C97.4472 20.8854 97.2675 21.0391 97.153 21.2266C97.0436 21.4141 96.9889 21.612 96.9889 21.8203C96.9889 21.9766 97.0149 22.1172 97.067 22.2422C97.1243 22.362 97.2233 22.474 97.3639 22.5781C97.5045 22.6771 97.7024 22.7708 97.9576 22.8594C98.2128 22.9479 98.5384 23.0365 98.9342 23.125C99.6269 23.2812 100.197 23.4688 100.645 23.6875C101.093 23.9062 101.426 24.1745 101.645 24.4922C101.864 24.8099 101.973 25.1953 101.973 25.6484C101.973 26.0182 101.895 26.3568 101.739 26.6641C101.588 26.9714 101.366 27.237 101.075 27.4609C100.788 27.6797 100.445 27.8516 100.044 27.9766C99.6477 28.0964 99.2024 28.1562 98.7076 28.1562C97.9628 28.1562 97.3326 28.0234 96.817 27.7578C96.3014 27.4922 95.9108 27.1484 95.6451 26.7266C95.3795 26.3047 95.2467 25.8594 95.2467 25.3906H96.6998C96.7207 25.7865 96.8352 26.1016 97.0436 26.3359C97.2519 26.5651 97.5071 26.7292 97.8092 26.8281C98.1113 26.9219 98.4108 26.9688 98.7076 26.9688C99.1035 26.9688 99.4342 26.9167 99.6998 26.8125C99.9707 26.7083 100.176 26.5651 100.317 26.3828C100.458 26.2005 100.528 25.9922 100.528 25.7578ZM108.954 25.7578C108.954 25.5495 108.907 25.3568 108.813 25.1797C108.724 24.9974 108.54 24.8333 108.258 24.6875C107.982 24.5365 107.566 24.4062 107.008 24.2969C106.54 24.1979 106.115 24.0807 105.735 23.9453C105.36 23.8099 105.04 23.6458 104.774 23.4531C104.513 23.2604 104.313 23.0339 104.172 22.7734C104.032 22.513 103.961 22.2083 103.961 21.8594C103.961 21.526 104.034 21.2109 104.18 20.9141C104.331 20.6172 104.542 20.3542 104.813 20.125C105.089 19.8958 105.42 19.7161 105.805 19.5859C106.191 19.4557 106.62 19.3906 107.094 19.3906C107.771 19.3906 108.349 19.5104 108.829 19.75C109.308 19.9896 109.675 20.3099 109.93 20.7109C110.185 21.1068 110.313 21.5469 110.313 22.0312H108.868C108.868 21.7969 108.797 21.5703 108.657 21.3516C108.521 21.1276 108.321 20.9427 108.055 20.7969C107.795 20.651 107.474 20.5781 107.094 20.5781C106.693 20.5781 106.368 20.6406 106.118 20.7656C105.873 20.8854 105.693 21.0391 105.579 21.2266C105.469 21.4141 105.415 21.612 105.415 21.8203C105.415 21.9766 105.441 22.1172 105.493 22.2422C105.55 22.362 105.649 22.474 105.79 22.5781C105.93 22.6771 106.128 22.7708 106.383 22.8594C106.638 22.9479 106.964 23.0365 107.36 23.125C108.053 23.2812 108.623 23.4688 109.071 23.6875C109.519 23.9062 109.852 24.1745 110.071 24.4922C110.29 24.8099 110.399 25.1953 110.399 25.6484C110.399 26.0182 110.321 26.3568 110.165 26.6641C110.013 26.9714 109.792 27.237 109.5 27.4609C109.214 27.6797 108.87 27.8516 108.469 27.9766C108.073 28.0964 107.628 28.1562 107.133 28.1562C106.388 28.1562 105.758 28.0234 105.243 27.7578C104.727 27.4922 104.336 27.1484 104.071 26.7266C103.805 26.3047 103.672 25.8594 103.672 25.3906H105.125C105.146 25.7865 105.261 26.1016 105.469 26.3359C105.678 26.5651 105.933 26.7292 106.235 26.8281C106.537 26.9219 106.836 26.9688 107.133 26.9688C107.529 26.9688 107.86 26.9167 108.125 26.8125C108.396 26.7083 108.602 26.5651 108.743 26.3828C108.883 26.2005 108.954 25.9922 108.954 25.7578Z" fill="white"/>
<defs>
<filter id="filter0_d_286_34097" x="0.822266" y="0" width="127.701" height="53" filterUnits="userSpaceOnUse" color-interpolation-filters="sRGB">
<feFlood flood-opacity="0" result="BackgroundImageFix"/>
<feColorMatrix in="SourceAlpha" type="matrix" values="0 0 0 0 0 0 0 0 0 0 0 0 0 0 0 0 0 0 127 0" result="hardAlpha"/>
<feOffset dx="2" dy="2"/>
<feGaussianBlur stdDeviation="2"/>
<feComposite in2="hardAlpha" operator="out"/>
<feColorMatrix type="matrix" values="0 0 0 0 0 0 0 0 0 0 0 0 0 0 0 0 0 0 0.25 0"/>
<feBlend mode="normal" in2="BackgroundImageFix" result="effect1_dropShadow_286_34097"/>
<feBlend mode="normal" in="SourceGraphic" in2="effect1_dropShadow_286_34097" result="shape"/>
</filter>
</defs>
</svg>
