<svg width="42" height="42" viewBox="0 0 42 42" fill="none" xmlns="http://www.w3.org/2000/svg">
<path d="M21.6875 12.7782V13.2982C21.6875 13.6043 21.8234 13.8945 22.0586 14.0905L23.0381 14.9068C23.443 15.2442 23.5283 15.8325 23.236 16.271L22.7675 16.9737C22.5131 17.3553 22.1388 17.6412 21.7037 17.7863L21.5733 17.8297C20.9383 18.0414 20.6784 18.7989 21.0497 19.3558C21.3884 19.8638 21.2051 20.5537 20.659 20.8267L18.25 22.0312L18.6381 23.0015C18.8073 23.4246 18.624 23.9067 18.2165 24.1105C17.8378 24.2999 17.3778 24.1913 17.1238 23.8526L16.5012 23.0224C16.0412 22.4091 15.0966 22.4943 14.7538 23.1799L14.125 24.4375L13.564 24.5777M21.6875 12.7782C21.4608 12.7595 21.2315 12.75 21 12.75C16.4437 12.75 12.75 16.4437 12.75 21C12.75 22.2819 13.0424 23.4955 13.564 24.5777M21.6875 12.7782C25.9222 13.1276 29.25 16.6752 29.25 21C29.25 22.7226 28.7221 24.3219 27.8191 25.6449M27.8191 25.6449L27.6576 25.1603C27.3769 24.3181 26.5887 23.75 25.7009 23.75H25.125L24.8276 23.4526C24.5778 23.2028 24.239 23.0625 23.8857 23.0625C23.3812 23.0625 22.92 23.3476 22.6943 23.7988L22.6609 23.8658C22.4787 24.2301 22.152 24.5012 21.7604 24.6131L20.854 24.8721C20.3497 25.0162 20.0339 25.5158 20.1201 26.0332L20.187 26.4345C20.2594 26.869 20.6354 27.1875 21.0759 27.1875C21.8517 27.1875 22.5405 27.6839 22.7858 28.4199L22.9826 29.0102M27.8191 25.6449C26.692 27.2964 24.9807 28.5173 22.9826 29.0102M22.9826 29.0102C22.3475 29.1669 21.6835 29.25 21 29.25C17.7255 29.25 14.8966 27.3423 13.564 24.5777M24.4373 18.25C24.4373 19.0714 24.0772 19.8086 23.5063 20.3125" stroke="#04AA9C" stroke-linecap="round" stroke-linejoin="round"/>
</svg>
