<svg width="30" height="30" viewBox="0 0 36 36" fill="none" xmlns="http://www.w3.org/2000/svg">
<path d="M20.4998 15.5C20.776 15.5 20.9998 15.7239 20.9998 16C20.9998 16.7468 20.6718 17.4175 20.1536 17.8749C19.9466 18.0576 19.6306 18.0379 19.4479 17.8309C19.2652 17.6238 19.2849 17.3079 19.4919 17.1251C19.8041 16.8495 19.9998 16.4479 19.9998 16C19.9998 15.7239 20.2237 15.5 20.4998 15.5Z" fill="#5D6D79" fill-opacity="0.7"/>
<path fill-rule="evenodd" clip-rule="evenodd" d="M18 11.5C14.4101 11.5 11.5 14.4101 11.5 18C11.5 21.5899 14.4101 24.5 18 24.5C21.5899 24.5 24.5 21.5899 24.5 18C24.5 14.4101 21.5899 11.5 18 11.5ZM13.0499 20.4001C13.9413 22.2351 15.8229 23.5 18 23.5C18.4415 23.5 18.8709 23.448 19.2823 23.3497C19.091 22.8402 18.6029 22.5 18.0552 22.5C17.7348 22.5 17.4614 22.2684 17.4087 21.9523L17.3601 21.6605C17.2974 21.2842 17.5271 20.9208 17.8938 20.816L18.553 20.6277C18.8378 20.5463 19.0754 20.3491 19.2079 20.0842L19.2322 20.0355C19.3963 19.7073 19.7318 19.5 20.0987 19.5C20.3557 19.5 20.6021 19.6021 20.7837 19.7837L21 20H21.4189C21.9779 20 22.4827 20.3098 22.7405 20.7905C23.2231 19.9724 23.5 19.0186 23.5 18C23.5 15.1345 21.3087 12.7809 18.5104 12.5234C18.54 12.6987 18.6312 12.8593 18.7699 12.9749L19.4823 13.5686C19.7767 13.8139 19.8388 14.2418 19.6262 14.5607L19.2855 15.0718C19.1005 15.3493 18.8282 15.5573 18.5117 15.6628L18.4169 15.6944C17.9551 15.8483 17.7661 16.3992 18.0361 16.8042C18.2824 17.1737 18.1492 17.6754 17.752 17.874L16 18.75L16.2823 19.4557C16.4053 19.7633 16.272 20.114 15.9756 20.2622C15.7002 20.3999 15.3657 20.3209 15.1809 20.0746L14.7281 19.4708C14.3936 19.0248 13.7066 19.0867 13.4573 19.5854L13.0499 20.4001Z" fill="#5D6D79" fill-opacity="0.7"/>
</svg>
