<svg width="18" height="25" viewBox="0 0 18 25" fill="none" xmlns="http://www.w3.org/2000/svg">
<path d="M11.5714 0H2.57143C1.88944 0 1.23539 0.25085 0.753154 0.697365C0.270917 1.14388 0 1.74948 0 2.38095V19.0476C0 19.6791 0.270917 20.2847 0.753154 20.7312C1.23539 21.1777 1.88944 21.4286 2.57143 21.4286H6.42857V25L9 23.8095L11.5714 25V21.4286H15.4286C16.1106 21.4286 16.7646 21.1777 17.2468 20.7312C17.7291 20.2847 18 19.6791 18 19.0476V5.95238M11.5714 15.4762V17.8571L9 16.6667L6.42857 17.8571V15.4762L3.85714 14.2857L6.42857 13.0952V10.7143L9 11.9048L11.5714 10.7143V13.0952L14.1429 14.2857M10.2857 7.14286V1.78571L16.0714 7.14286H10.2857Z" fill="#5D6D79"/>
</svg>
