<svg width="55" height="53" viewBox="0 0 55 53" fill="none" xmlns="http://www.w3.org/2000/svg">
<rect width="55" height="53" rx="5" fill="#04AA9C"/>
<path d="M17.5 11C16.135 11 15 12.0826 15 13.3846V36.0385C15 37.3405 16.135 38.4231 17.5 38.4231H20V42L23.75 39.6154L27.5 42V33.4678C27.3275 33.5627 27.1437 33.6376 26.9525 33.6908C26.8187 33.9658 26.6291 34.2128 26.3946 34.4175C26.1601 34.6222 25.8853 34.7804 25.5863 34.8831C25.3218 34.9655 25.0443 35.0034 24.7662 34.9952C24.4162 34.9952 24.0662 34.9523 23.75 34.8092C23.4299 34.9424 23.0828 35.006 22.7338 34.9952C22.4538 34.9952 22.18 34.9749 21.9138 34.8831C21.3105 34.6739 20.8188 34.2451 20.5462 33.6908C20.3556 33.6373 20.1722 33.5624 20 33.4678V36.0385H17.5V13.3846H37.5V36.0385H31.25C30.9185 36.0385 30.6005 36.1641 30.3661 36.3877C30.1317 36.6113 30 36.9146 30 37.2308C30 37.547 30.1317 37.8503 30.3661 38.0739C30.6005 38.2975 30.9185 38.4231 31.25 38.4231H37.5C38.865 38.4231 40 37.3405 40 36.0385V13.3846C40 12.0826 38.865 11 37.5 11H17.5ZM21.0163 16.9615C20.6847 16.9911 20.3791 17.1451 20.1666 17.3896C19.9541 17.6341 19.8521 17.9491 19.8831 18.2653C19.9141 18.5815 20.0755 18.8731 20.3319 19.0758C20.5882 19.2785 20.9185 19.3757 21.25 19.3462H33.75C34.0815 19.3462 34.3995 19.2205 34.6339 18.9969C34.8683 18.7733 35 18.4701 35 18.1538C35 17.8376 34.8683 17.5344 34.6339 17.3108C34.3995 17.0872 34.0815 16.9615 33.75 16.9615H21.25C21.2109 16.9598 21.1716 16.9598 21.1325 16.9615C21.0938 16.9598 21.055 16.9598 21.0163 16.9615ZM21.0163 21.7308C20.6847 21.7603 20.3791 21.9143 20.1666 22.1588C19.9541 22.4033 19.8521 22.7183 19.8831 23.0346C19.9141 23.3508 20.0755 23.6423 20.3319 23.845C20.5882 24.0477 20.9185 24.145 21.25 24.1154H30C30.3315 24.1154 30.6495 23.9898 30.8839 23.7662C31.1183 23.5426 31.25 23.2393 31.25 22.9231C31.25 22.6069 31.1183 22.3036 30.8839 22.08C30.6495 21.8564 30.3315 21.7308 30 21.7308H21.25C21.2109 21.729 21.1716 21.729 21.1325 21.7308C21.0938 21.7291 21.055 21.7291 21.0163 21.7308ZM23.75 26.0898C23.499 26.0901 23.2544 26.1658 23.0511 26.3062C22.8478 26.4466 22.6961 26.6446 22.6175 26.872C22.5662 26.8887 22.51 26.8911 22.4612 26.9102C22.25 26.7891 22.004 26.7347 21.7585 26.7548C21.5129 26.775 21.2803 26.8685 21.0938 27.0222C20.9049 27.1726 20.7697 27.3752 20.7068 27.602C20.6439 27.8288 20.6563 28.0687 20.7425 28.2885C20.7087 28.3373 20.695 28.3862 20.6638 28.4375C20.4196 28.4763 20.1942 28.5869 20.0192 28.7539C19.8441 28.9208 19.7282 29.1358 19.6875 29.3687C19.6474 29.5955 19.6822 29.8286 19.7873 30.0356C19.8923 30.2427 20.0624 30.4134 20.2737 30.524C20.2825 30.5992 20.2575 30.6755 20.2737 30.7482C20.1228 30.9235 20.0309 31.1381 20.0099 31.364C19.989 31.5899 20.04 31.8166 20.1562 32.0144C20.3988 32.4162 20.8812 32.6404 21.3675 32.5736C21.43 32.6297 21.4937 32.6714 21.5625 32.7227C21.575 33.1841 21.8837 33.605 22.3438 33.7659C22.7987 33.9245 23.3137 33.7719 23.6325 33.4297C23.6787 33.4321 23.7025 33.4678 23.75 33.4678C23.8013 33.4678 23.855 33.4321 23.9062 33.4297C24.0142 33.5459 24.1465 33.6392 24.2947 33.7035C24.4428 33.7678 24.6035 33.8016 24.7662 33.8029C24.9012 33.8029 25.0238 33.8112 25.1562 33.7659C25.3811 33.6867 25.5757 33.5449 25.715 33.3588C25.8543 33.1728 25.9318 32.9512 25.9375 32.7227C26.0037 32.6726 26.0687 32.6297 26.1325 32.5736C26.3698 32.6057 26.6117 32.5697 26.8275 32.4701C27.0432 32.3705 27.2229 32.2119 27.3438 32.0144C27.4603 31.8165 27.5115 31.5895 27.4905 31.3634C27.4695 31.1372 27.3774 30.9224 27.2262 30.747C27.2437 30.6755 27.215 30.5968 27.2262 30.524C27.4384 30.4142 27.6091 30.2436 27.7143 30.0363C27.8194 29.8291 27.8538 29.5956 27.8125 29.3687C27.772 29.1357 27.6561 28.9207 27.481 28.7537C27.306 28.5867 27.0805 28.4761 26.8363 28.4375C26.8063 28.385 26.7912 28.3385 26.7575 28.2885C26.8443 28.0686 26.8571 27.8284 26.7942 27.6012C26.7312 27.3741 26.5956 27.1713 26.4062 27.021C26.2197 26.8674 25.987 26.7739 25.7414 26.754C25.4957 26.7341 25.2498 26.7887 25.0387 26.9102C24.9887 26.8911 24.9337 26.8887 24.8825 26.8732C24.8041 26.6456 24.6525 26.4473 24.4492 26.3067C24.2458 26.1661 24.0012 26.0902 23.75 26.0898ZM23.75 28.1764C24.8575 28.1764 25.7425 29.0205 25.7425 30.0769C25.7425 31.1357 24.8587 31.9775 23.75 31.9775C23.4879 31.9789 23.2282 31.9307 22.9857 31.8357C22.7433 31.7407 22.5231 31.6007 22.3378 31.424C22.1524 31.2472 22.0057 31.0371 21.9061 30.8059C21.8065 30.5747 21.756 30.3269 21.7575 30.0769C21.7575 29.0193 22.6425 28.1764 23.75 28.1764Z" fill="white"/>
</svg>
