<svg width="129" height="53" viewBox="0 0 129 53" fill="none" xmlns="http://www.w3.org/2000/svg">
<g filter="url(#filter0_d_286_34094)">
<path d="M2.5166 2H104.751L122.218 24.5L104.751 47H2.5166L19.569 24L2.5166 2Z" fill="#F90202"/>
</g>
<path d="M39.7471 16.625H43.5127C44.3669 16.625 45.0882 16.7552 45.6768 17.0156C46.2705 17.276 46.721 17.6615 47.0283 18.1719C47.3408 18.6771 47.4971 19.2995 47.4971 20.0391C47.4971 20.5599 47.3903 21.0365 47.1768 21.4688C46.9684 21.8958 46.6663 22.2604 46.2705 22.5625C45.8799 22.8594 45.4111 23.0807 44.8643 23.2266L44.4424 23.3906H40.9033L40.8877 22.1641H43.5596C44.1012 22.1641 44.5518 22.0703 44.9111 21.8828C45.2705 21.6901 45.5413 21.4323 45.7236 21.1094C45.9059 20.7865 45.9971 20.4297 45.9971 20.0391C45.9971 19.6016 45.9111 19.2188 45.7393 18.8906C45.5674 18.5625 45.2965 18.3099 44.9268 18.1328C44.5622 17.9505 44.0908 17.8594 43.5127 17.8594H41.2549V28H39.7471V16.625ZM46.3955 28L43.6299 22.8438L45.2002 22.8359L48.0049 27.9062V28H46.3955ZM53.0555 28.1562C52.467 28.1562 51.9331 28.0573 51.4539 27.8594C50.98 27.6562 50.5711 27.3724 50.2274 27.0078C49.8888 26.6432 49.6284 26.2109 49.4461 25.7109C49.2638 25.2109 49.1727 24.6641 49.1727 24.0703V23.7422C49.1727 23.0547 49.2743 22.4427 49.4774 21.9062C49.6805 21.3646 49.9565 20.9062 50.3055 20.5312C50.6545 20.1562 51.0503 19.8724 51.493 19.6797C51.9357 19.487 52.394 19.3906 52.868 19.3906C53.4722 19.3906 53.993 19.4948 54.4305 19.7031C54.8732 19.9115 55.2352 20.2031 55.5164 20.5781C55.7977 20.9479 56.006 21.3854 56.1414 21.8906C56.2769 22.3906 56.3446 22.9375 56.3446 23.5312V24.1797H50.0321V23H54.8993V22.8906C54.8784 22.5156 54.8003 22.151 54.6649 21.7969C54.5347 21.4427 54.3263 21.151 54.0399 20.9219C53.7534 20.6927 53.3628 20.5781 52.868 20.5781C52.5399 20.5781 52.2378 20.6484 51.9618 20.7891C51.6857 20.9245 51.4487 21.1276 51.2508 21.3984C51.0529 21.6693 50.8993 22 50.7899 22.3906C50.6805 22.7812 50.6258 23.2318 50.6258 23.7422V24.0703C50.6258 24.4714 50.6805 24.849 50.7899 25.2031C50.9045 25.5521 51.0685 25.8594 51.2821 26.125C51.5008 26.3906 51.7638 26.599 52.0711 26.75C52.3836 26.901 52.7378 26.9766 53.1336 26.9766C53.644 26.9766 54.0763 26.8724 54.4305 26.6641C54.7847 26.4557 55.0946 26.1771 55.3602 25.8281L56.2352 26.5234C56.0529 26.7995 55.8211 27.0625 55.5399 27.3125C55.2586 27.5625 54.9123 27.7656 54.5008 27.9219C54.0946 28.0781 53.6128 28.1562 53.0555 28.1562ZM58.2311 19.5469H59.6843V29.0078C59.6843 29.5234 59.6009 29.9609 59.4343 30.3203C59.2728 30.6797 59.028 30.9505 58.6999 31.1328C58.377 31.3203 57.9681 31.4141 57.4733 31.4141C57.3431 31.4141 57.1921 31.401 57.0202 31.375C56.8431 31.349 56.6947 31.3177 56.5749 31.2812L56.5827 30.1172C56.6817 30.138 56.7936 30.1536 56.9186 30.1641C57.0436 30.1797 57.153 30.1875 57.2468 30.1875C57.4603 30.1875 57.64 30.1484 57.7858 30.0703C57.9317 29.9922 58.041 29.8672 58.1139 29.6953C58.1921 29.5234 58.2311 29.2943 58.2311 29.0078V19.5469ZM58.0827 17.3047C58.0827 17.0703 58.1556 16.8724 58.3014 16.7109C58.4473 16.5495 58.6582 16.4688 58.9343 16.4688C59.2155 16.4688 59.429 16.5495 59.5749 16.7109C59.7207 16.8724 59.7936 17.0703 59.7936 17.3047C59.7936 17.5286 59.7207 17.7214 59.5749 17.8828C59.429 18.0391 59.2155 18.1172 58.9343 18.1172C58.6582 18.1172 58.4473 18.0391 58.3014 17.8828C58.1556 17.7214 58.0827 17.5286 58.0827 17.3047ZM65.688 28.1562C65.0995 28.1562 64.5656 28.0573 64.0864 27.8594C63.6125 27.6562 63.2036 27.3724 62.8599 27.0078C62.5213 26.6432 62.2609 26.2109 62.0786 25.7109C61.8963 25.2109 61.8052 24.6641 61.8052 24.0703V23.7422C61.8052 23.0547 61.9068 22.4427 62.1099 21.9062C62.313 21.3646 62.589 20.9062 62.938 20.5312C63.287 20.1562 63.6828 19.8724 64.1255 19.6797C64.5682 19.487 65.0265 19.3906 65.5005 19.3906C66.1047 19.3906 66.6255 19.4948 67.063 19.7031C67.5057 19.9115 67.8677 20.2031 68.1489 20.5781C68.4302 20.9479 68.6385 21.3854 68.7739 21.8906C68.9094 22.3906 68.9771 22.9375 68.9771 23.5312V24.1797H62.6646V23H67.5318V22.8906C67.5109 22.5156 67.4328 22.151 67.2974 21.7969C67.1672 21.4427 66.9588 21.151 66.6724 20.9219C66.3859 20.6927 65.9953 20.5781 65.5005 20.5781C65.1724 20.5781 64.8703 20.6484 64.5943 20.7891C64.3182 20.9245 64.0812 21.1276 63.8833 21.3984C63.6854 21.6693 63.5318 22 63.4224 22.3906C63.313 22.7812 63.2583 23.2318 63.2583 23.7422V24.0703C63.2583 24.4714 63.313 24.849 63.4224 25.2031C63.537 25.5521 63.701 25.8594 63.9146 26.125C64.1333 26.3906 64.3963 26.599 64.7036 26.75C65.0161 26.901 65.3703 26.9766 65.7661 26.9766C66.2765 26.9766 66.7088 26.8724 67.063 26.6641C67.4172 26.4557 67.7271 26.1771 67.9927 25.8281L68.8677 26.5234C68.6854 26.7995 68.4536 27.0625 68.1724 27.3125C67.8911 27.5625 67.5448 27.7656 67.1333 27.9219C66.7271 28.0781 66.2453 28.1562 65.688 28.1562ZM74.2074 26.9688C74.5511 26.9688 74.8688 26.8984 75.1605 26.7578C75.4522 26.6172 75.6918 26.4245 75.8793 26.1797C76.0668 25.9297 76.1735 25.6458 76.1996 25.3281H77.5746C77.5485 25.8281 77.3793 26.2943 77.0668 26.7266C76.7595 27.1536 76.3558 27.5 75.8558 27.7656C75.3558 28.026 74.8063 28.1562 74.2074 28.1562C73.572 28.1562 73.0173 28.0443 72.5433 27.8203C72.0746 27.5964 71.6839 27.2891 71.3714 26.8984C71.0642 26.5078 70.8324 26.0599 70.6761 25.5547C70.5251 25.0443 70.4496 24.5052 70.4496 23.9375V23.6094C70.4496 23.0417 70.5251 22.5052 70.6761 22C70.8324 21.4896 71.0642 21.0391 71.3714 20.6484C71.6839 20.2578 72.0746 19.9505 72.5433 19.7266C73.0173 19.5026 73.572 19.3906 74.2074 19.3906C74.8688 19.3906 75.447 19.526 75.9418 19.7969C76.4365 20.0625 76.8246 20.4271 77.1058 20.8906C77.3923 21.349 77.5485 21.8698 77.5746 22.4531H76.1996C76.1735 22.1042 76.0746 21.7891 75.9027 21.5078C75.736 21.2266 75.5069 21.0026 75.2152 20.8359C74.9287 20.6641 74.5928 20.5781 74.2074 20.5781C73.7647 20.5781 73.3923 20.6667 73.0902 20.8438C72.7933 21.0156 72.5563 21.25 72.3793 21.5469C72.2074 21.8385 72.0824 22.1641 72.0043 22.5234C71.9313 22.8776 71.8949 23.2396 71.8949 23.6094V23.9375C71.8949 24.3073 71.9313 24.6719 72.0043 25.0312C72.0772 25.3906 72.1996 25.7161 72.3714 26.0078C72.5485 26.2995 72.7855 26.5339 73.0824 26.7109C73.3845 26.8828 73.7595 26.9688 74.2074 26.9688ZM82.8986 19.5469V20.6562H78.3283V19.5469H82.8986ZM79.8752 17.4922H81.3205V25.9062C81.3205 26.1927 81.3648 26.4089 81.4533 26.5547C81.5419 26.7005 81.6564 26.7969 81.7971 26.8438C81.9377 26.8906 82.0887 26.9141 82.2502 26.9141C82.37 26.9141 82.495 26.9036 82.6252 26.8828C82.7606 26.8568 82.8622 26.8359 82.9299 26.8203L82.9377 28C82.8231 28.0365 82.6721 28.0703 82.4846 28.1016C82.3023 28.138 82.0809 28.1562 81.8205 28.1562C81.4663 28.1562 81.1408 28.0859 80.8439 27.9453C80.5471 27.8047 80.3101 27.5703 80.133 27.2422C79.9611 26.9089 79.8752 26.4609 79.8752 25.8984V17.4922Z" fill="white"/>
<defs>
<filter id="filter0_d_286_34094" x="0.516602" y="0" width="127.701" height="53" filterUnits="userSpaceOnUse" color-interpolation-filters="sRGB">
<feFlood flood-opacity="0" result="BackgroundImageFix"/>
<feColorMatrix in="SourceAlpha" type="matrix" values="0 0 0 0 0 0 0 0 0 0 0 0 0 0 0 0 0 0 127 0" result="hardAlpha"/>
<feOffset dx="2" dy="2"/>
<feGaussianBlur stdDeviation="2"/>
<feComposite in2="hardAlpha" operator="out"/>
<feColorMatrix type="matrix" values="0 0 0 0 0 0 0 0 0 0 0 0 0 0 0 0 0 0 0.25 0"/>
<feBlend mode="normal" in2="BackgroundImageFix" result="effect1_dropShadow_286_34094"/>
<feBlend mode="normal" in="SourceGraphic" in2="effect1_dropShadow_286_34094" result="shape"/>
</filter>
</defs>
</svg>
