<svg width="24" height="20" viewBox="0 0 24 20" fill="none" xmlns="http://www.w3.org/2000/svg">
<path d="M23.2188 9.5C23.2193 8.68455 23.0235 7.88096 22.6479 7.15719C22.2722 6.43341 21.7278 5.81074 21.0607 5.34184C20.3935 4.87294 19.6233 4.5716 18.815 4.4633C18.0068 4.355 17.1844 4.44293 16.4173 4.71965C15.6503 4.99638 14.9612 5.45376 14.4082 6.05311C13.8553 6.65246 13.4548 7.37615 13.2407 8.16298C13.0266 8.94981 13.0051 9.77664 13.178 10.5735C13.351 11.3704 13.7133 12.1139 14.2344 12.7412V18.4844C14.2339 18.6903 14.2877 18.8927 14.3904 19.0713C14.493 19.2498 14.6409 19.3981 14.8191 19.5013C14.9974 19.6045 15.1996 19.6588 15.4056 19.659C15.6115 19.6591 15.8138 19.6049 15.9922 19.502L18.1406 18.2715L20.2939 19.502C20.4722 19.6037 20.674 19.6569 20.8792 19.6561C21.0844 19.6554 21.2858 19.6008 21.4633 19.4978C21.6408 19.3947 21.7881 19.2469 21.8905 19.0691C21.9929 18.8912 22.0469 18.6896 22.0469 18.4844V12.7412C22.8051 11.8314 23.2198 10.6843 23.2188 9.5ZM18.1406 6.76562C18.6814 6.76562 19.2101 6.92599 19.6598 7.22645C20.1094 7.52691 20.4599 7.95396 20.6669 8.4536C20.8738 8.95324 20.928 9.50303 20.8225 10.0334C20.717 10.5639 20.4565 11.0511 20.0741 11.4335C19.6917 11.8159 19.2045 12.0763 18.6741 12.1818C18.1437 12.2873 17.5939 12.2332 17.0942 12.0262C16.5946 11.8193 16.1675 11.4688 15.8671 11.0191C15.5666 10.5695 15.4062 10.0408 15.4062 9.5C15.4062 8.7748 15.6943 8.0793 16.2071 7.5665C16.7199 7.05371 17.4154 6.76562 18.1406 6.76562ZM18.7266 15.9043C18.5496 15.8032 18.3493 15.7501 18.1455 15.7501C17.9417 15.7501 17.7414 15.8032 17.5645 15.9043L16.5781 16.4648V14.3311C17.5937 14.6605 18.6875 14.6605 19.7031 14.3311V16.4648L18.7266 15.9043ZM12.6719 15.75C12.6719 16.0608 12.5484 16.3589 12.3286 16.5786C12.1089 16.7984 11.8108 16.9219 11.5 16.9219H2.90625C2.38825 16.9219 1.89146 16.7161 1.52518 16.3498C1.1589 15.9835 0.953125 15.4867 0.953125 14.9687V2.46875C0.953125 1.95075 1.1589 1.45396 1.52518 1.08768C1.89146 0.7214 2.38825 0.515625 2.90625 0.515625H20.0938C20.6118 0.515625 21.1085 0.7214 21.4748 1.08768C21.8411 1.45396 22.0469 1.95075 22.0469 2.46875C22.0473 2.7455 21.9497 3.01346 21.7715 3.22518C21.5933 3.4369 21.3459 3.57872 21.0731 3.6255C20.8004 3.67229 20.5198 3.62103 20.2812 3.48081C20.0426 3.34058 19.8614 3.12044 19.7695 2.85937H3.29688V14.5781H11.5C11.8108 14.5781 12.1089 14.7016 12.3286 14.9214C12.5484 15.1411 12.6719 15.4392 12.6719 15.75ZM11.5 10.6719C11.5 10.9827 11.3765 11.2807 11.1568 11.5005C10.937 11.7203 10.6389 11.8437 10.3281 11.8437H6.42188C6.11107 11.8437 5.813 11.7203 5.59323 11.5005C5.37347 11.2807 5.25 10.9827 5.25 10.6719C5.25 10.3611 5.37347 10.063 5.59323 9.84323C5.813 9.62346 6.11107 9.5 6.42188 9.5H10.3281C10.6389 9.5 10.937 9.62346 11.1568 9.84323C11.3765 10.063 11.5 10.3611 11.5 10.6719ZM11.5 6.76562C11.5 7.07643 11.3765 7.3745 11.1568 7.59427C10.937 7.81403 10.6389 7.9375 10.3281 7.9375H6.42188C6.11107 7.9375 5.813 7.81403 5.59323 7.59427C5.37347 7.3745 5.25 7.07643 5.25 6.76562C5.25 6.45482 5.37347 6.15675 5.59323 5.93698C5.813 5.71721 6.11107 5.59375 6.42188 5.59375H10.3281C10.6389 5.59375 10.937 5.71721 11.1568 5.93698C11.3765 6.15675 11.5 6.45482 11.5 6.76562Z" fill="#04AA9C"/>
</svg>
