<svg width="18" height="21" viewBox="0 0 18 21" fill="none" xmlns="http://www.w3.org/2000/svg">
<path d="M3 6V3C3 2.46957 3.21071 1.96086 3.58579 1.58579C3.96086 1.21071 4.46957 1 5 1H12L17 6V17C17 17.5304 16.7893 18.0391 16.4142 18.4142C16.0391 18.7893 15.5304 19 15 19H10" stroke="#04AA9C" stroke-width="2" stroke-linecap="round" stroke-linejoin="round"/>
<path d="M1 12C1 12.7956 1.31607 13.5587 1.87868 14.1213C2.44129 14.6839 3.20435 15 4 15C4.79565 15 5.55871 14.6839 6.12132 14.1213C6.68393 13.5587 7 12.7956 7 12C7 11.2044 6.68393 10.4413 6.12132 9.87868C5.55871 9.31607 4.79565 9 4 9C3.20435 9 2.44129 9.31607 1.87868 9.87868C1.31607 10.4413 1 11.2044 1 12Z" stroke="#04AA9C" stroke-width="2" stroke-linecap="round" stroke-linejoin="round"/>
<path d="M2.5 15L1 20L4 18.5L7 20L5.5 15" stroke="#04AA9C" stroke-width="2" stroke-linecap="round" stroke-linejoin="round"/>
</svg>
