<svg width="30" height="28" viewBox="0 0 30 28" fill="none" xmlns="http://www.w3.org/2000/svg">
<path d="M21 28C20.175 28 19.4685 27.6951 18.8805 27.0853C18.2925 26.4756 17.999 25.7434 18 24.8889V18.6667C18 17.8111 18.294 17.0784 18.882 16.4687C19.47 15.8589 20.176 15.5545 21 15.5556H27C27.825 15.5556 28.5315 15.8604 29.1195 16.4702C29.7075 17.08 30.001 17.8121 30 18.6667V24.8889C30 25.7444 29.706 26.4771 29.118 27.0869C28.53 27.6967 27.824 28.001 27 28H21ZM0 23.3333V20.2222H13.5V23.3333H0ZM21 12.4444C20.175 12.4444 19.4685 12.1396 18.8805 11.5298C18.2925 10.92 17.999 10.1879 18 9.33333V3.11111C18 2.25556 18.294 1.52289 18.882 0.913113C19.47 0.303336 20.176 -0.0010344 21 2.64101e-06H27C27.825 2.64101e-06 28.5315 0.304892 29.1195 0.914669C29.7075 1.52445 30.001 2.25659 30 3.11111V9.33333C30 10.1889 29.706 10.9216 29.118 11.5313C28.53 12.1411 27.824 12.4455 27 12.4444H21ZM0 7.77778V4.66667H13.5V7.77778H0Z" fill="#5D6D79"/>
</svg>
