<svg width="40" height="40" viewBox="0 0 40 40" fill="none" xmlns="http://www.w3.org/2000/svg">
<rect width="40" height="40" rx="20" fill="white"/>
<rect x="0.5" y="0.5" width="39" height="39" rx="19.5" stroke="black" stroke-opacity="0.1"/>
<path d="M17.6562 7.8125H12.0312C11.2546 7.8125 10.625 8.4421 10.625 9.21875V30.7812C10.625 31.5579 11.2546 32.1875 12.0312 32.1875H27.9688C28.7454 32.1875 29.375 31.5579 29.375 30.7812V19.5312M17.6562 7.8125H18.125C24.3382 7.8125 29.375 12.8493 29.375 19.0625V19.5312M17.6562 7.8125C19.9862 7.8125 21.875 9.7013 21.875 12.0312V13.9062C21.875 14.6829 22.5046 15.3125 23.2812 15.3125H25.1562C27.4862 15.3125 29.375 17.2013 29.375 19.5312M16.25 23.75L19.0625 26.5625L23.75 20" stroke="#5D6D79" stroke-width="3" stroke-linecap="round" stroke-linejoin="round"/>
</svg>
