<svg width="50" height="50" viewBox="0 0 50 50" fill="none" xmlns="http://www.w3.org/2000/svg">
<rect width="50" height="50" rx="25" fill="white"/>
<rect x="0.5" y="0.5" width="49" height="49" rx="24.5" stroke="black" stroke-opacity="0.1"/>
<g clip-path="url(#clip0_368_34101)">
<path fill-rule="evenodd" clip-rule="evenodd" d="M35.75 14.9258V18.9995C36.2424 18.9995 36.7301 19.0965 37.185 19.285C37.64 19.4734 38.0534 19.7497 38.4016 20.0979C38.7498 20.4461 39.0261 20.8595 39.2145 21.3145C39.403 21.7694 39.5 22.2571 39.5 22.7495C39.5 23.242 39.403 23.7296 39.2145 24.1846C39.0261 24.6396 38.7498 25.053 38.4016 25.4012C38.0534 25.7494 37.64 26.0256 37.185 26.2141C36.7301 26.4025 36.2424 26.4995 35.75 26.4995V30.2495C35.75 32.3095 33.3987 33.4858 31.75 32.2495L29.175 30.317C27.7985 29.285 26.1959 28.5959 24.5 28.307V31.862C24.5001 32.6792 24.2048 33.4689 23.6686 34.0855C23.1324 34.7021 22.3913 35.1041 21.582 35.2174C20.7727 35.3307 19.9497 35.1476 19.2648 34.7018C18.5799 34.2561 18.0792 33.5779 17.855 32.792L15.8925 25.922C15.1862 25.088 14.7266 24.0736 14.5653 22.9927C14.404 21.9118 14.5474 20.8073 14.9793 19.8035C15.4113 18.7996 16.1147 17.9361 17.0104 17.31C17.9062 16.684 18.9588 16.3202 20.05 16.2595L23.8225 16.0495C25.6682 15.9468 27.4633 15.4075 29.06 14.4758L31.99 12.7658C33.6575 11.7945 35.75 12.9958 35.75 14.9258ZM19.0425 27.847L20.2587 32.1058C20.3173 32.3119 20.4484 32.4899 20.6279 32.6069C20.8075 32.7239 21.0233 32.772 21.2355 32.7423C21.4477 32.7126 21.642 32.6071 21.7826 32.4453C21.9231 32.2835 22.0003 32.0763 22 31.862V28.0995L20.05 27.9908C19.7106 27.972 19.3735 27.9239 19.0425 27.847ZM33.25 14.9258L30.3187 16.637C28.5379 17.6751 26.5522 18.3124 24.5 18.5045V25.7783C26.7337 26.0858 28.86 26.957 30.675 28.317L33.25 30.2495V14.9258ZM22 18.6545L20.1875 18.7545C19.3443 18.8011 18.5492 19.1621 17.9591 19.7662C17.3691 20.3703 17.0269 21.1737 17.0002 22.0177C16.9735 22.8618 17.2643 23.6852 17.815 24.3254C18.3657 24.9656 19.1364 25.3761 19.975 25.4758L20.1875 25.4945L22 25.5945V18.6545ZM35.75 21.4995V23.9995C36.0686 23.9992 36.375 23.8772 36.6067 23.6585C36.8384 23.4398 36.9778 23.1408 36.9964 22.8228C37.0151 22.5047 36.9116 22.1916 36.7071 21.9472C36.5027 21.7029 36.2126 21.5459 35.8962 21.5083L35.75 21.4995Z" fill="#5D6D79"/>
</g>
<defs>
<clipPath id="clip0_368_34101">
<rect width="30" height="30" fill="white" transform="translate(12 9)"/>
</clipPath>
</defs>
</svg>
