<svg width="25" height="30" viewBox="0 0 25 30" fill="none" xmlns="http://www.w3.org/2000/svg">
<path d="M2.55428 2.91616V11.7011V11.6646V26.2454V2.91616ZM6.3857 17.497H9.57855C9.77012 16.938 10.0043 16.4156 10.281 15.9295C10.5577 15.4435 10.877 14.9939 11.2388 14.5808H6.3857C6.02384 14.5808 5.72031 14.7208 5.4751 15.0007C5.22989 15.2807 5.10771 15.6267 5.10856 16.0389C5.10856 16.452 5.23116 16.7985 5.47638 17.0785C5.72159 17.3584 6.02469 17.4979 6.3857 17.497ZM6.3857 23.3293H9.16348C9.05705 22.8433 8.98766 22.3572 8.9553 21.8712C8.92295 21.3852 8.92848 20.8991 8.9719 20.4131H6.3857C6.02384 20.4131 5.72031 20.5531 5.4751 20.8331C5.22989 21.113 5.10771 21.4591 5.10856 21.8712C5.10856 22.2843 5.23116 22.6309 5.47638 22.9108C5.72159 23.1908 6.02469 23.3303 6.3857 23.3293ZM2.55428 29.1616C1.85185 29.1616 1.25032 28.8758 0.749683 28.3043C0.249044 27.7327 -0.000849258 27.0464 2.16832e-06 26.2454V2.91616C2.16832e-06 2.11422 0.250322 1.42746 0.75096 0.855895C1.2516 0.284328 1.85271 -0.000969578 2.55428 2.47552e-06H11.7178C12.0583 2.47552e-06 12.3831 0.0729066 12.6922 0.218715C13.0013 0.364523 13.2725 0.571084 13.5057 0.838398L19.6999 7.91009C19.934 8.1774 20.1149 8.48749 20.2427 8.84034C20.3704 9.1932 20.4342 9.56355 20.4342 9.9514V12.3937C20.0298 12.1993 19.6147 12.0471 19.189 11.9373C18.7633 11.8275 18.3269 11.7487 17.8799 11.7011V10.2066H12.7714C12.4095 10.2066 12.106 10.0666 11.8608 9.78664C11.6156 9.50668 11.4934 9.16063 11.4943 8.74848V2.91616H2.55428V26.2454H10.249C10.5896 26.8287 10.9728 27.3696 11.3985 27.8683C11.8242 28.3669 12.2925 28.7981 12.8033 29.1616H2.55428ZM17.2414 24.7874C18.1354 24.7874 18.891 24.435 19.5083 23.7303C20.1256 23.0255 20.4342 22.1628 20.4342 21.1422C20.4342 20.1215 20.1256 19.2588 19.5083 18.5541C18.891 17.8493 18.1354 17.497 17.2414 17.497C16.3474 17.497 15.5917 17.8493 14.9745 18.5541C14.3572 19.2588 14.0485 20.1215 14.0485 21.1422C14.0485 22.1628 14.3572 23.0255 14.9745 23.7303C15.5917 24.435 16.3474 24.7874 17.2414 24.7874ZM24.6488 29.599C24.4146 29.8663 24.1166 30 23.7548 30C23.3929 30 23.0949 29.8663 22.8608 29.599L20.3065 26.6829C19.8595 27.0231 19.3755 27.2782 18.8544 27.4484C18.3333 27.6185 17.7957 27.7035 17.2414 27.7035C15.645 27.7035 14.2882 27.0654 13.1711 25.7891C12.0541 24.5128 11.4951 22.9638 11.4943 21.1422C11.4943 19.3196 12.0532 17.7701 13.1711 16.4938C14.2891 15.2175 15.6458 14.5798 17.2414 14.5808C18.8378 14.5808 20.195 15.219 21.3129 16.4953C22.4308 17.7716 22.9894 19.3205 22.9885 21.1422C22.9885 21.774 22.914 22.3878 22.765 22.9837C22.616 23.5796 22.3925 24.1322 22.0945 24.6416L24.6488 27.5577C24.8829 27.825 25 28.1652 25 28.5784C25 28.9915 24.8829 29.3317 24.6488 29.599Z" fill="#5D6D79"/>
</svg>
