<svg width="44" height="46" viewBox="0 0 44 46" fill="none" xmlns="http://www.w3.org/2000/svg">
<rect width="43.1184" height="45.1194" rx="5" fill="#04AA9C"/>
<path d="M31.7707 31.1125L27.133 26.4728C28.5235 24.6608 29.1727 22.3877 28.9489 20.1146C28.7251 17.8415 27.645 15.7386 25.9278 14.2326C24.2105 12.7265 21.9847 11.9301 19.7018 12.0048C17.419 12.0795 15.25 13.0198 13.6349 14.6349C12.0198 16.25 11.0795 18.419 11.0048 20.7018C10.9301 22.9847 11.7265 25.2105 13.2326 26.9278C14.7386 28.645 16.8415 29.7251 19.1146 29.9489C21.3877 30.1727 23.6608 29.5235 25.4728 28.133L30.1144 32.7756C30.2234 32.8846 30.3528 32.971 30.4953 33.03C30.6377 33.089 30.7903 33.1194 30.9445 33.1194C31.0987 33.1194 31.2513 33.089 31.3937 33.03C31.5362 32.971 31.6656 32.8846 31.7746 32.7756C31.8836 32.6666 31.9701 32.5371 32.0291 32.3947C32.0881 32.2523 32.1184 32.0996 32.1184 31.9455C32.1184 31.7913 32.0881 31.6387 32.0291 31.4962C31.9701 31.3538 31.8836 31.2244 31.7746 31.1154L31.7707 31.1125ZM13.3635 21.0041C13.3635 19.6907 13.7529 18.4068 14.4826 17.3147C15.2123 16.2227 16.2494 15.3716 17.4628 14.8689C18.6762 14.3663 20.0114 14.2348 21.2996 14.4911C22.5878 14.7473 23.771 15.3797 24.6997 16.3084C25.6284 17.2372 26.2609 18.4204 26.5171 19.7086C26.7733 20.9967 26.6418 22.3319 26.1392 23.5453C25.6366 24.7588 24.7855 25.7959 23.6934 26.5256C22.6014 27.2552 21.3175 27.6447 20.0041 27.6447C18.2434 27.6429 16.5554 26.9427 15.3104 25.6977C14.0655 24.4527 13.3653 22.7647 13.3635 21.0041Z" fill="white"/>
</svg>
