<svg width="26" height="26" viewBox="0 0 26 26" fill="none" xmlns="http://www.w3.org/2000/svg">
<path d="M9.91944 3.14895C10.0352 2.48594 10.6359 2 11.3399 2H14.6601C15.3641 2 15.9648 2.48594 16.0806 3.14895L16.3538 4.71468C16.4336 5.17184 16.7536 5.55265 17.1783 5.77711C17.2732 5.82729 17.3671 5.87913 17.4598 5.93259C17.8758 6.17247 18.3819 6.24706 18.837 6.08425L20.3946 5.52706C21.0538 5.29125 21.7949 5.54507 22.1469 6.12717L23.807 8.87282C24.159 9.45492 24.0186 10.1947 23.4751 10.6219L22.1896 11.6324C21.8152 11.9267 21.6295 12.3812 21.6385 12.8442C21.6395 12.896 21.64 12.948 21.64 13C21.64 13.052 21.6395 13.104 21.6385 13.1558C21.6296 13.6188 21.8152 14.0732 22.1896 14.3676L23.4751 15.3781C24.0186 15.8053 24.159 16.5451 23.807 17.1272L22.1469 19.8728C21.7949 20.4549 21.0538 20.7087 20.3946 20.4729L18.837 19.9157C18.3819 19.7529 17.8758 19.8275 17.4598 20.0674C17.3671 20.1209 17.2732 20.1727 17.1783 20.2229C16.7536 20.4474 16.4336 20.8282 16.3538 21.2853L16.0806 22.851C15.9648 23.5141 15.3641 24 14.6601 24H11.3399C10.6359 24 10.0352 23.5141 9.91944 22.851L9.64615 21.2853C9.56635 20.8282 9.24639 20.4474 8.82172 20.2229C8.72678 20.1727 8.63293 20.1209 8.54021 20.0674C8.12417 19.8275 7.61814 19.7529 7.16302 19.9158L5.60542 20.4729C4.94623 20.7087 4.20511 20.4549 3.85315 19.8728L2.193 17.1272C1.84104 16.5451 1.9814 15.8053 2.52486 15.3781L3.81044 14.3676C4.18485 14.0733 4.37045 13.6188 4.36147 13.1558C4.36046 13.104 4.35996 13.052 4.35996 13C4.35996 12.948 4.36046 12.896 4.36147 12.8442C4.37045 12.3812 4.18485 11.9268 3.81044 11.6324L2.52486 10.6219C1.9814 10.1947 1.84104 9.45494 2.193 8.87283L3.85315 6.12719C4.20512 5.54508 4.94623 5.29127 5.60542 5.52708L7.163 6.08426C7.61812 6.24707 8.12415 6.17248 8.5402 5.9326C8.63292 5.87914 8.72677 5.82729 8.82172 5.77711C9.24639 5.55265 9.56635 5.17184 9.64615 4.71468L9.91944 3.14895Z" stroke="#5D6D79" stroke-width="3" stroke-linecap="round" stroke-linejoin="round"/>
<path d="M16.8397 12.9999C16.8397 15.0249 15.1205 16.6666 12.9997 16.6666C10.8789 16.6666 9.15968 15.0249 9.15968 12.9999C9.15968 10.9749 10.8789 9.33324 12.9997 9.33324C15.1205 9.33324 16.8397 10.9749 16.8397 12.9999Z" stroke="#5D6D79" stroke-width="3" stroke-linecap="round" stroke-linejoin="round"/>
</svg>
