<svg width="20" height="16" viewBox="0 0 20 16" fill="none" xmlns="http://www.w3.org/2000/svg">
<path d="M18.75 16C18.75 16 20 16 20 14.6667C20 13.3333 18.75 9.33333 13.75 9.33333C8.75 9.33333 7.5 13.3333 7.5 14.6667C7.5 16 8.75 16 8.75 16H18.75ZM8.7775 14.6667C8.76827 14.6653 8.75909 14.6635 8.75 14.6613C8.75125 14.3093 8.95875 13.288 9.7 12.368C10.39 11.5053 11.6025 10.6667 13.75 10.6667C15.8962 10.6667 17.1087 11.5067 17.8 12.368C18.5412 13.288 18.7475 14.3107 18.75 14.6613L18.74 14.664C18.7342 14.665 18.7284 14.6659 18.7225 14.6667H8.7775ZM13.75 6.66667C14.413 6.66667 15.0489 6.38572 15.5178 5.88562C15.9866 5.38552 16.25 4.70724 16.25 4C16.25 3.29276 15.9866 2.61448 15.5178 2.11438C15.0489 1.61428 14.413 1.33333 13.75 1.33333C13.087 1.33333 12.4511 1.61428 11.9822 2.11438C11.5134 2.61448 11.25 3.29276 11.25 4C11.25 4.70724 11.5134 5.38552 11.9822 5.88562C12.4511 6.38572 13.087 6.66667 13.75 6.66667ZM17.5 4C17.5 4.52529 17.403 5.04543 17.2145 5.53073C17.0261 6.01604 16.7499 6.45699 16.4017 6.82843C16.0534 7.19986 15.64 7.4945 15.1851 7.69552C14.7301 7.89654 14.2425 8 13.75 8C13.2575 8 12.7699 7.89654 12.3149 7.69552C11.86 7.4945 11.4466 7.19986 11.0983 6.82843C10.7501 6.45699 10.4739 6.01604 10.2855 5.53073C10.097 5.04543 10 4.52529 10 4C10 2.93913 10.3951 1.92172 11.0983 1.17157C11.8016 0.421427 12.7554 0 13.75 0C14.7446 0 15.6984 0.421427 16.4017 1.17157C17.1049 1.92172 17.5 2.93913 17.5 4ZM8.67 9.70667C8.16998 9.53872 7.65454 9.42831 7.1325 9.37733C6.83916 9.34758 6.54466 9.3329 6.25 9.33333C1.25 9.33333 0 13.3333 0 14.6667C0 15.556 0.41625 16 1.25 16H6.52C6.33469 15.5838 6.24228 15.1274 6.25 14.6667C6.25 13.32 6.72125 11.944 7.6125 10.7947C7.91625 10.4027 8.27 10.036 8.67 9.70667ZM6.15 10.6667C5.41019 11.8524 5.01055 13.2424 5 14.6667H1.25C1.25 14.32 1.455 13.2933 2.2 12.368C2.88125 11.52 4.065 10.6933 6.15 10.668V10.6667ZM1.875 4.66667C1.875 3.6058 2.27009 2.58839 2.97335 1.83824C3.67661 1.08809 4.63044 0.666667 5.625 0.666667C6.61956 0.666667 7.57339 1.08809 8.27665 1.83824C8.97991 2.58839 9.375 3.6058 9.375 4.66667C9.375 5.72753 8.97991 6.74495 8.27665 7.49509C7.57339 8.24524 6.61956 8.66667 5.625 8.66667C4.63044 8.66667 3.67661 8.24524 2.97335 7.49509C2.27009 6.74495 1.875 5.72753 1.875 4.66667ZM5.625 2C4.96196 2 4.32607 2.28095 3.85723 2.78105C3.38839 3.28115 3.125 3.95942 3.125 4.66667C3.125 5.37391 3.38839 6.05219 3.85723 6.55229C4.32607 7.05238 4.96196 7.33333 5.625 7.33333C6.28804 7.33333 6.92393 7.05238 7.39277 6.55229C7.86161 6.05219 8.125 5.37391 8.125 4.66667C8.125 3.95942 7.86161 3.28115 7.39277 2.78105C6.92393 2.28095 6.28804 2 5.625 2Z" fill="white"/>
</svg>
