<svg width="12" height="14" viewBox="0 0 12 14" fill="none" xmlns="http://www.w3.org/2000/svg">
<path d="M3.22 13.7613C3.36217 13.8938 3.55022 13.9659 3.74452 13.9625C3.93882 13.959 4.12421 13.8803 4.26162 13.7429C4.39903 13.6055 4.47775 13.4201 4.48117 13.2258C4.4846 13.0315 4.41248 12.8435 4.28 12.7013L2.56 10.9813H11.25C11.4489 10.9813 11.6397 10.9023 11.7803 10.7616C11.921 10.621 12 10.4302 12 10.2313C12 10.0324 11.921 9.84161 11.7803 9.70096C11.6397 9.56031 11.4489 9.48129 11.25 9.48129H2.56L4.28 7.76129C4.41248 7.61912 4.4846 7.43107 4.48117 7.23677C4.47775 7.04247 4.39903 6.85708 4.26162 6.71967C4.12421 6.58226 3.93882 6.50355 3.74452 6.50012C3.55022 6.49669 3.36217 6.56881 3.22 6.70129L0.22 9.70129C0.0795496 9.84192 0.000659943 10.0325 0.000659943 10.2313C0.000659943 10.43 0.0795496 10.6207 0.22 10.7613L3.22 13.7613ZM8.78 7.26129C8.71134 7.33498 8.62854 7.39408 8.53654 7.43507C8.44454 7.47606 8.34522 7.49811 8.24452 7.49988C8.14382 7.50166 8.04379 7.48314 7.9504 7.44541C7.85701 7.40769 7.77218 7.35155 7.70096 7.28033C7.62974 7.20911 7.5736 7.12428 7.53588 7.03089C7.49816 6.9375 7.47963 6.83747 7.48141 6.73677C7.48318 6.63607 7.50523 6.53675 7.54622 6.44475C7.58721 6.35275 7.64631 6.26995 7.72 6.20129L9.44 4.48129H0.75C0.551088 4.48129 0.360322 4.40227 0.21967 4.26162C0.0790175 4.12097 0 3.9302 0 3.73129C0 3.53238 0.0790175 3.34161 0.21967 3.20096C0.360322 3.06031 0.551088 2.98129 0.75 2.98129H9.44L7.72 1.26129C7.58752 1.11912 7.5154 0.93107 7.51882 0.736769C7.52225 0.542468 7.60097 0.357083 7.73838 0.21967C7.87579 0.0822569 8.06118 0.00354506 8.25548 0.000116847C8.44978 -0.00331137 8.63782 0.0688118 8.78 0.201292L11.78 3.20129C11.9205 3.34192 11.9993 3.53254 11.9993 3.73129C11.9993 3.93004 11.9205 4.12067 11.78 4.26129L8.78 7.26129Z" fill="#5D6D79"/>
</svg>
