<svg width="26" height="26" viewBox="0 0 26 26" fill="none" xmlns="http://www.w3.org/2000/svg">
<path fill-rule="evenodd" clip-rule="evenodd" d="M4.09786 10.6281C5.41521 5.73919 10.4687 2.8379 15.3851 4.14788C17.0084 4.58038 18.4114 5.4164 19.5171 6.51802L21.8556 8.84342H17.9435C17.4345 8.84342 17.0219 9.25372 17.0219 9.75985C17.0219 10.266 17.4345 10.6763 17.9435 10.6763H24.0784C24.3228 10.6763 24.5573 10.5797 24.7301 10.4078C24.903 10.2359 25 10.0028 25 9.75972V3.6593C25 3.15316 24.5874 2.74286 24.0784 2.74286C23.5694 2.74286 23.1568 3.15316 23.1568 3.6593V7.5452L20.8217 5.22319C19.4932 3.89975 17.8066 2.89555 15.8622 2.37745C9.96246 0.805483 3.89829 4.28703 2.31746 10.1537C2.18573 10.6426 2.47749 11.1451 2.96913 11.2761C3.46077 11.4071 3.96612 11.117 4.09786 10.6281ZM23.0306 14.7239C22.5389 14.5929 22.0336 14.883 21.9018 15.3719C20.5845 20.2608 15.531 23.1621 10.6146 21.8521C8.99134 21.4196 7.58831 20.5836 6.48257 19.482L4.14552 17.1565H8.05657C8.56555 17.1565 8.97817 16.7462 8.97817 16.2401C8.97817 15.734 8.56555 15.3237 8.05657 15.3237L1.9216 15.3237C1.41262 15.3237 1 15.734 1 16.2401V22.3407C1 22.8468 1.41262 23.2571 1.9216 23.2571C2.43059 23.2571 2.8432 22.8468 2.8432 22.3407V18.4536L5.17801 20.7768C6.50658 22.1004 8.1929 23.1044 10.1375 23.6225C16.0372 25.1945 22.1014 21.713 23.6822 15.8463C23.814 15.3574 23.5222 14.8549 23.0306 14.7239Z" fill="#5D6D79" stroke="#5D6D79" stroke-linecap="round" stroke-linejoin="round"/>
</svg>
