<svg width="36" height="36" viewBox="0 0 36 36" fill="none" xmlns="http://www.w3.org/2000/svg">
<path d="M5.71001 14H20.92V12H5.71001L9.42001 8.27002C9.5126 8.17678 9.58591 8.06622 9.63576 7.94464C9.68561 7.82307 9.71104 7.69287 9.71057 7.56148C9.71011 7.43008 9.68377 7.30007 9.63306 7.17885C9.58234 7.05764 9.50825 6.9476 9.41501 6.85502C9.32178 6.76243 9.21122 6.68912 9.08964 6.63927C8.96807 6.58942 8.83787 6.564 8.70648 6.56446C8.57508 6.56492 8.44507 6.59126 8.32385 6.64197C8.20264 6.69269 8.0926 6.76678 8.00001 6.86002L1.89001 13L8.00001 19.14C8.08893 19.2453 8.19865 19.331 8.32227 19.3919C8.4459 19.4528 8.58077 19.4874 8.71842 19.4937C8.85607 19.4999 8.99354 19.4777 9.12219 19.4283C9.25083 19.379 9.36789 19.3036 9.46602 19.2068C9.56414 19.1101 9.64121 18.9941 9.6924 18.8662C9.74358 18.7382 9.76777 18.6011 9.76345 18.4634C9.75913 18.3256 9.72639 18.1903 9.66729 18.0658C9.6082 17.9413 9.52401 17.8304 9.42001 17.74L5.71001 14Z" fill="#5D6D79"/>
<path d="M23 12H26V14H23V12Z" fill="#5D6D79"/>
<path d="M28 12H30V14H28V12Z" fill="#5D6D79"/>
<path d="M27.92 17.86C27.8274 17.7668 27.7174 17.6927 27.5962 17.642C27.4749 17.5913 27.3449 17.5649 27.2135 17.5645C27.0821 17.564 26.9519 17.5894 26.8304 17.6393C26.7088 17.6891 26.5982 17.7624 26.505 17.855C26.4118 17.9476 26.3377 18.0576 26.287 18.1789C26.2362 18.3001 26.2099 18.4301 26.2094 18.5615C26.209 18.6929 26.2344 18.8231 26.2843 18.9446C26.3341 19.0662 26.4074 19.1768 26.5 19.27L30.21 23H15V25H30.21L26.5 28.74C26.396 28.8304 26.3118 28.9413 26.2527 29.0658C26.1936 29.1903 26.1609 29.3256 26.1566 29.4634C26.1522 29.6011 26.1764 29.7382 26.2276 29.8662C26.2788 29.9941 26.3559 30.1101 26.454 30.2068C26.5521 30.3036 26.6692 30.379 26.7978 30.4283C26.9265 30.4777 27.0639 30.5 27.2016 30.4937C27.3392 30.4874 27.4741 30.4528 27.5977 30.3919C27.7214 30.331 27.8311 30.2453 27.92 30.14L34 24L27.92 17.86Z" fill="#5D6D79"/>
<path d="M10 23H13V25H10V23Z" fill="#5D6D79"/>
<path d="M6 23H8V25H6V23Z" fill="#5D6D79"/>
</svg>
