<svg width="21" height="22" viewBox="0 0 21 22" fill="none" xmlns="http://www.w3.org/2000/svg">
<path d="M19.5633 3.38462H15.407V2.53846C15.407 1.86522 15.1443 1.21955 14.6766 0.743498C14.2089 0.267444 13.5746 0 12.9132 0H7.92566C7.26427 0 6.62997 0.267444 6.1623 0.743498C5.69462 1.21955 5.43189 1.86522 5.43189 2.53846V3.38462H1.27559C1.05513 3.38462 0.843697 3.47376 0.687806 3.63245C0.531915 3.79113 0.444336 4.00636 0.444336 4.23077C0.444336 4.45518 0.531915 4.67041 0.687806 4.82909C0.843697 4.98777 1.05513 5.07692 1.27559 5.07692H2.10685V20.3077C2.10685 20.7565 2.28201 21.187 2.59379 21.5043C2.90558 21.8217 3.32844 22 3.76937 22H17.0695C17.5104 22 17.9333 21.8217 18.2451 21.5043C18.5569 21.187 18.732 20.7565 18.732 20.3077V5.07692H19.5633C19.7837 5.07692 19.9952 4.98777 20.1511 4.82909C20.307 4.67041 20.3945 4.45518 20.3945 4.23077C20.3945 4.00636 20.307 3.79113 20.1511 3.63245C19.9952 3.47376 19.7837 3.38462 19.5633 3.38462ZM7.0944 2.53846C7.0944 2.31405 7.18198 2.09883 7.33787 1.94014C7.49377 1.78146 7.7052 1.69231 7.92566 1.69231H12.9132C13.1337 1.69231 13.3451 1.78146 13.501 1.94014C13.6569 2.09883 13.7445 2.31405 13.7445 2.53846V3.38462H7.0944V2.53846ZM17.0695 20.3077H3.76937V5.07692H17.0695V20.3077ZM8.75692 9.30769V16.0769C8.75692 16.3013 8.66934 16.5166 8.51345 16.6752C8.35756 16.8339 8.14613 16.9231 7.92566 16.9231C7.7052 16.9231 7.49377 16.8339 7.33787 16.6752C7.18198 16.5166 7.0944 16.3013 7.0944 16.0769V9.30769C7.0944 9.08328 7.18198 8.86806 7.33787 8.70937C7.49377 8.55069 7.7052 8.46154 7.92566 8.46154C8.14613 8.46154 8.35756 8.55069 8.51345 8.70937C8.66934 8.86806 8.75692 9.08328 8.75692 9.30769ZM13.7445 9.30769V16.0769C13.7445 16.3013 13.6569 16.5166 13.501 16.6752C13.3451 16.8339 13.1337 16.9231 12.9132 16.9231C12.6928 16.9231 12.4813 16.8339 12.3254 16.6752C12.1695 16.5166 12.082 16.3013 12.082 16.0769V9.30769C12.082 9.08328 12.1695 8.86806 12.3254 8.70937C12.4813 8.55069 12.6928 8.46154 12.9132 8.46154C13.1337 8.46154 13.3451 8.55069 13.501 8.70937C13.6569 8.86806 13.7445 9.08328 13.7445 9.30769Z" fill="#D61355"/>
</svg>
