<svg width="40" height="36" viewBox="0 0 40 36" fill="none" xmlns="http://www.w3.org/2000/svg">
<path d="M28.75 26C28.75 26 30 26 30 24.6667C30 23.3333 28.75 19.3333 23.75 19.3333C18.75 19.3333 17.5 23.3333 17.5 24.6667C17.5 26 18.75 26 18.75 26H28.75ZM18.7775 24.6667C18.7683 24.6653 18.7591 24.6635 18.75 24.6613C18.7513 24.3093 18.9588 23.288 19.7 22.368C20.39 21.5053 21.6025 20.6667 23.75 20.6667C25.8963 20.6667 27.1087 21.5067 27.8 22.368C28.5412 23.288 28.7475 24.3107 28.75 24.6613L28.74 24.664C28.7342 24.665 28.7284 24.6659 28.7225 24.6667H18.7775ZM23.75 16.6667C24.413 16.6667 25.0489 16.3857 25.5178 15.8856C25.9866 15.3855 26.25 14.7072 26.25 14C26.25 13.2928 25.9866 12.6145 25.5178 12.1144C25.0489 11.6143 24.413 11.3333 23.75 11.3333C23.087 11.3333 22.4511 11.6143 21.9822 12.1144C21.5134 12.6145 21.25 13.2928 21.25 14C21.25 14.7072 21.5134 15.3855 21.9822 15.8856C22.4511 16.3857 23.087 16.6667 23.75 16.6667ZM27.5 14C27.5 14.5253 27.403 15.0454 27.2145 15.5307C27.0261 16.016 26.7499 16.457 26.4017 16.8284C26.0534 17.1999 25.64 17.4945 25.1851 17.6955C24.7301 17.8965 24.2425 18 23.75 18C23.2575 18 22.7699 17.8965 22.3149 17.6955C21.86 17.4945 21.4466 17.1999 21.0983 16.8284C20.7501 16.457 20.4739 16.016 20.2855 15.5307C20.097 15.0454 20 14.5253 20 14C20 12.9391 20.3951 11.9217 21.0983 11.1716C21.8016 10.4214 22.7554 10 23.75 10C24.7446 10 25.6984 10.4214 26.4017 11.1716C27.1049 11.9217 27.5 12.9391 27.5 14ZM18.67 19.7067C18.17 19.5387 17.6545 19.4283 17.1325 19.3773C16.8392 19.3476 16.5447 19.3329 16.25 19.3333C11.25 19.3333 10 23.3333 10 24.6667C10 25.556 10.4162 26 11.25 26H16.52C16.3347 25.5838 16.2423 25.1274 16.25 24.6667C16.25 23.32 16.7213 21.944 17.6125 20.7947C17.9163 20.4027 18.27 20.036 18.67 19.7067ZM16.15 20.6667C15.4102 21.8524 15.0106 23.2424 15 24.6667H11.25C11.25 24.32 11.455 23.2933 12.2 22.368C12.8813 21.52 14.065 20.6933 16.15 20.668V20.6667ZM11.875 14.6667C11.875 13.6058 12.2701 12.5884 12.9733 11.8382C13.6766 11.0881 14.6304 10.6667 15.625 10.6667C16.6196 10.6667 17.5734 11.0881 18.2767 11.8382C18.9799 12.5884 19.375 13.6058 19.375 14.6667C19.375 15.7275 18.9799 16.7449 18.2767 17.4951C17.5734 18.2452 16.6196 18.6667 15.625 18.6667C14.6304 18.6667 13.6766 18.2452 12.9733 17.4951C12.2701 16.7449 11.875 15.7275 11.875 14.6667ZM15.625 12C14.962 12 14.3261 12.281 13.8572 12.781C13.3884 13.2811 13.125 13.9594 13.125 14.6667C13.125 15.3739 13.3884 16.0522 13.8572 16.5523C14.3261 17.0524 14.962 17.3333 15.625 17.3333C16.288 17.3333 16.9239 17.0524 17.3928 16.5523C17.8616 16.0522 18.125 15.3739 18.125 14.6667C18.125 13.9594 17.8616 13.2811 17.3928 12.781C16.9239 12.281 16.288 12 15.625 12Z" fill="white"/>
</svg>
