<svg width="30" height="30" viewBox="0 0 30 30" fill="none" xmlns="http://www.w3.org/2000/svg">
<path d="M15 6.25C13.8397 6.25 12.7269 6.71094 11.9064 7.53141C11.0859 8.35188 10.625 9.46468 10.625 10.625C10.625 11.7853 11.0859 12.8981 11.9064 13.7186C12.7269 14.5391 13.8397 15 15 15C16.1603 15 17.2731 14.5391 18.0936 13.7186C18.9141 12.8981 19.375 11.7853 19.375 10.625C19.375 9.46468 18.9141 8.35188 18.0936 7.53141C17.2731 6.71094 16.1603 6.25 15 6.25ZM15 8.75C15.4973 8.75 15.9742 8.94754 16.3258 9.29917C16.6775 9.65081 16.875 10.1277 16.875 10.625C16.875 11.1223 16.6775 11.5992 16.3258 11.9508C15.9742 12.3025 15.4973 12.5 15 12.5C14.5027 12.5 14.0258 12.3025 13.6742 11.9508C13.3225 11.5992 13.125 11.1223 13.125 10.625C13.125 10.1277 13.3225 9.65081 13.6742 9.29917C14.0258 8.94754 14.5027 8.75 15 8.75ZM6.875 10C6.0462 10 5.25134 10.3292 4.66529 10.9153C4.07924 11.5013 3.75 12.2962 3.75 13.125C3.75 14.3 4.4125 15.3125 5.3625 15.85C5.8125 16.1 6.325 16.25 6.875 16.25C7.425 16.25 7.9375 16.1 8.3875 15.85C8.85 15.5875 9.2375 15.2125 9.525 14.7625C8.61435 13.5757 8.12209 12.1209 8.125 10.625V10.275C7.75 10.1 7.325 10 6.875 10ZM23.125 10C22.675 10 22.25 10.1 21.875 10.275V10.625C21.875 12.125 21.3875 13.575 20.475 14.7625C20.625 15 20.7875 15.1875 20.975 15.375C21.5514 15.9339 22.3221 16.2475 23.125 16.25C23.675 16.25 24.1875 16.1 24.6375 15.85C25.5875 15.3125 26.25 14.3 26.25 13.125C26.25 12.2962 25.9208 11.5013 25.3347 10.9153C24.7487 10.3292 23.9538 10 23.125 10ZM15 17.5C12.075 17.5 6.25 18.9625 6.25 21.875V23.75H23.75V21.875C23.75 18.9625 17.925 17.5 15 17.5ZM5.8875 18.1875C3.475 18.475 0 19.7 0 21.875V23.75H3.75V21.3375C3.75 20.075 4.6125 19.025 5.8875 18.1875ZM24.1125 18.1875C25.3875 19.025 26.25 20.075 26.25 21.3375V23.75H30V21.875C30 19.7 26.525 18.475 24.1125 18.1875ZM15 20C16.9125 20 19.05 20.625 20.2875 21.25H9.7125C10.95 20.625 13.0875 20 15 20Z" fill="#5D6D79"/>
</svg>
