<svg width="28" height="30" viewBox="0 0 28 30" fill="none" xmlns="http://www.w3.org/2000/svg">
<path d="M14 6.875C15.083 6.875 16.1216 7.33594 16.8874 8.15641C17.6531 8.97688 18.0833 10.0897 18.0833 11.25C18.0833 12.4103 17.6531 13.5231 16.8874 14.3436C16.1216 15.1641 15.083 15.625 14 15.625C12.917 15.625 11.8784 15.1641 11.1126 14.3436C10.3469 13.5231 9.91667 12.4103 9.91667 11.25C9.91667 10.0897 10.3469 8.97688 11.1126 8.15641C11.8784 7.33594 12.917 6.875 14 6.875ZM5.83333 10C6.48667 10 7.09333 10.1875 7.61833 10.525C7.44333 12.3125 7.93333 14.0875 8.93667 15.475C8.35333 16.675 7.18667 17.5 5.83333 17.5C4.90508 17.5 4.01484 17.1049 3.35846 16.4017C2.70208 15.6984 2.33333 14.7446 2.33333 13.75C2.33333 12.7554 2.70208 11.8016 3.35846 11.0983C4.01484 10.3951 4.90508 10 5.83333 10ZM22.1667 10C23.0949 10 23.9852 10.3951 24.6415 11.0983C25.2979 11.8016 25.6667 12.7554 25.6667 13.75C25.6667 14.7446 25.2979 15.6984 24.6415 16.4017C23.9852 17.1049 23.0949 17.5 22.1667 17.5C20.8133 17.5 19.6467 16.675 19.0633 15.475C20.0805 14.068 20.5527 12.2952 20.3817 10.525C20.9067 10.1875 21.5133 10 22.1667 10ZM6.41667 22.8125C6.41667 20.225 9.81167 18.125 14 18.125C18.1883 18.125 21.5833 20.225 21.5833 22.8125V25H6.41667V22.8125ZM0 25V23.125C0 21.3875 2.205 19.925 5.19167 19.5C4.50333 20.35 4.08333 21.525 4.08333 22.8125V25H0ZM28 25H23.9167V22.8125C23.9167 21.525 23.4967 20.35 22.8083 19.5C25.795 19.925 28 21.3875 28 23.125V25Z" fill="white"/>
</svg>
