<svg width="25" height="25" viewBox="0 0 25 25" fill="none" xmlns="http://www.w3.org/2000/svg">
<g clip-path="url(#clip0_76_34094)">
<path d="M9.48486 23.4375C9.60693 23.7223 9.75342 23.995 9.92432 24.2554C10.0952 24.5158 10.2905 24.764 10.5103 25H0V0H18.75V11.1206C18.4896 11.0474 18.2292 10.9782 17.9688 10.9131C17.7083 10.848 17.4479 10.7951 17.1875 10.7544V1.5625H1.5625V23.4375H9.48486ZM15.625 6.25H3.125V4.6875H15.625V6.25ZM3.125 9.375H15.625V10.9375H3.125V9.375ZM14.8438 17.1875C15.3809 17.1875 15.8854 17.2892 16.3574 17.4927C16.8294 17.6961 17.2404 17.9769 17.5903 18.335C17.9403 18.693 18.221 19.1081 18.4326 19.5801C18.6442 20.0521 18.75 20.5566 18.75 21.0938C18.75 21.6309 18.6483 22.1354 18.4448 22.6074C18.2414 23.0794 17.9606 23.4945 17.6025 23.8525C17.2445 24.2106 16.8294 24.4914 16.3574 24.6948C15.8854 24.8983 15.3809 25 14.8438 25C14.3066 25 13.8021 24.8983 13.3301 24.6948C12.8581 24.4914 12.443 24.2147 12.085 23.8647C11.7269 23.5148 11.4461 23.0998 11.2427 22.6196C11.0392 22.1395 10.9375 21.6309 10.9375 21.0938C10.9375 20.5566 11.0392 20.0521 11.2427 19.5801C11.4461 19.1081 11.7228 18.6971 12.0728 18.3472C12.4227 17.9972 12.8377 17.7165 13.3179 17.5049C13.798 17.2933 14.3066 17.1875 14.8438 17.1875ZM14.8438 23.4375C15.1693 23.4375 15.4744 23.3765 15.7593 23.2544C16.0441 23.1323 16.2923 22.9655 16.5039 22.7539C16.7155 22.5423 16.8823 22.2941 17.0044 22.0093C17.1265 21.7244 17.1875 21.4193 17.1875 21.0938C17.1875 20.7682 17.1265 20.4631 17.0044 20.1782C16.8823 19.8934 16.7155 19.6452 16.5039 19.4336C16.2923 19.222 16.0441 19.0552 15.7593 18.9331C15.4744 18.811 15.1693 18.75 14.8438 18.75C14.5182 18.75 14.2131 18.811 13.9282 18.9331C13.6434 19.0552 13.3952 19.222 13.1836 19.4336C12.972 19.6452 12.8052 19.8934 12.6831 20.1782C12.561 20.4631 12.5 20.7682 12.5 21.0938C12.5 21.4193 12.561 21.7244 12.6831 22.0093C12.8052 22.2941 12.972 22.5423 13.1836 22.7539C13.3952 22.9655 13.6434 23.1323 13.9282 23.2544C14.2131 23.3765 14.5182 23.4375 14.8438 23.4375ZM14.8438 12.5C15.6576 12.5 16.4714 12.5854 17.2852 12.7563C18.099 12.9272 18.8843 13.1877 19.6411 13.5376C20.3979 13.8875 21.1019 14.3066 21.7529 14.7949C22.404 15.2832 22.9696 15.8488 23.4497 16.4917C23.9298 17.1346 24.3083 17.8385 24.585 18.6035C24.8617 19.3685 25 20.1986 25 21.0938H23.4375C23.4375 20.3532 23.3195 19.6655 23.0835 19.0308C22.8475 18.396 22.5179 17.8182 22.0947 17.2974C21.6715 16.7765 21.1873 16.3167 20.6421 15.918C20.0968 15.5192 19.4987 15.1815 18.8477 14.9048C18.1966 14.6281 17.5374 14.4206 16.8701 14.2822C16.2028 14.1439 15.5273 14.0706 14.8438 14.0625C14.1764 14.0625 13.501 14.1317 12.8174 14.27C12.1338 14.4084 11.4746 14.6159 10.8398 14.8926C10.2051 15.1693 9.611 15.507 9.05762 15.9058C8.50423 16.3045 8.01595 16.7684 7.59277 17.2974C7.1696 17.8263 6.84408 18.4041 6.61621 19.0308C6.38835 19.6574 6.26628 20.3451 6.25 21.0938H4.6875C4.6875 20.2067 4.82585 19.3766 5.10254 18.6035C5.37923 17.8304 5.75765 17.1265 6.23779 16.4917C6.71794 15.8569 7.28353 15.2913 7.93457 14.7949C8.58561 14.2985 9.28548 13.8794 10.0342 13.5376C10.7829 13.1958 11.5682 12.9395 12.3901 12.7686C13.2121 12.5977 14.0299 12.5081 14.8438 12.5Z" fill="white"/>
</g>
<defs>
<clipPath id="clip0_76_34094">
<rect width="25" height="25" fill="white"/>
</clipPath>
</defs>
</svg>
