<svg width="40" height="40" viewBox="0 0 40 40" fill="none" xmlns="http://www.w3.org/2000/svg">
<path d="M26.875 21.7916V25.3333C26.875 26.2454 26.2193 27.0299 25.3151 27.15C23.5762 27.3808 21.802 27.5 20 27.5C18.198 27.5 16.4238 27.3808 14.6849 27.15C13.7807 27.0299 13.125 26.2454 13.125 25.3333V21.7916M26.875 21.7916C27.2683 21.4564 27.5 20.9491 27.5 20.4074V17.2547C27.5 16.354 26.8601 15.5757 25.9692 15.4424C25.0314 15.3021 24.0829 15.1943 23.125 15.1203M26.875 21.7916C26.7137 21.9291 26.5251 22.0377 26.3143 22.1078C24.3294 22.7677 22.2064 23.125 20 23.125C17.7936 23.125 15.6706 22.7677 13.6857 22.1078C13.4749 22.0377 13.2863 21.9291 13.125 21.7916M13.125 21.7916C12.7317 21.4563 12.5 20.9491 12.5 20.4074V17.2547C12.5 16.354 13.1399 15.5757 14.0308 15.4424C14.9686 15.3021 15.9171 15.1943 16.875 15.1203M23.125 15.1203V14.375C23.125 13.3395 22.2855 12.5 21.25 12.5H18.75C17.7145 12.5 16.875 13.3395 16.875 14.375V15.1203M23.125 15.1203C22.0938 15.0406 21.0516 15 20 15C18.9484 15 17.9062 15.0406 16.875 15.1203M20 20.625H20.0062V20.6312H20V20.625Z" stroke="#5D6D79" stroke-width="1.5" stroke-linecap="round" stroke-linejoin="round"/>
</svg>
